<?xml version="1.0" encoding="UTF-8"?>
<svg width="55.298mm" height="51.229mm" version="1.1" viewBox="0 0 55.298 51.229" xmlns="http://www.w3.org/2000/svg" xmlns:cc="http://creativecommons.org/ns#" xmlns:dc="http://purl.org/dc/elements/1.1/" xmlns:rdf="http://www.w3.org/1999/02/22-rdf-syntax-ns#">
 <metadata>
  <rdf:RDF>
   <cc:Work rdf:about="">
    <dc:format>image/svg+xml</dc:format>
    <dc:type rdf:resource="http://purl.org/dc/dcmitype/StillImage"/>
    <dc:title/>
   </cc:Work>
  </rdf:RDF>
 </metadata>
 <g transform="translate(-323.55 -218.82)">
  <g id="XMLID_613_" transform="matrix(.26458 0 0 .26458 51.852 150.94)">
   <g id="XMLID_611_">
    <g id="XMLID_759_">
     <polygon id="XMLID_838_" points="1133.8 261.9 1058.6 321 1133.8 380 1133.8 357.2 1230.7 357.2 1230.7 284.8 1133.8 284.8" fill="#73c9bb"/>
    </g>
   </g>
   <g id="XMLID_610_">
    <g id="XMLID_760_">
     <path id="XMLID_5_" d="m1133.8 385.2c-1.1 0-2.3-0.4-3.2-1.1l-75.2-59.1c-1.3-1-2-2.5-2-4.1s0.7-3.1 2-4.1l75.2-59.1c1.6-1.2 3.7-1.5 5.5-0.6s2.9 2.7 2.9 4.7v17.7h91.7c2.9 0 5.2 2.3 5.2 5.2v72.4c0 2.9-2.3 5.2-5.2 5.2h-91.7v17.7c0 2-1.1 3.8-2.9 4.7-0.8 0.4-1.6 0.5-2.3 0.5zm-66.8-64.2 61.6 48.4v-12.2c0-2.9 2.3-5.2 5.2-5.2h91.7v-62h-91.7c-2.9 0-5.2-2.3-5.2-5.2v-12.2z" fill="#333"/>
    </g>
   </g>
   <g id="XMLID_609_">
    <g id="XMLID_751_">
     <polygon id="XMLID_837_" points="1129 445 1204.2 385.9 1129 326.9 1129 349.7 1032.1 349.7 1032.1 422.1 1129 422.1" fill="#91c83e"/>
    </g>
   </g>
   <g id="XMLID_612_">
    <g id="XMLID_756_">
     <path id="XMLID_6_" d="m1129 450.2c-0.8 0-1.5-0.2-2.3-0.5-1.8-0.9-2.9-2.7-2.9-4.7v-17.7h-91.7c-2.9 0-5.2-2.3-5.2-5.2v-72.4c0-2.9 2.3-5.2 5.2-5.2h91.7v-17.7c0-2 1.1-3.8 2.9-4.7s3.9-0.6 5.5 0.6l75.2 59.1c1.3 1 2 2.5 2 4.1s-0.7 3.1-2 4.1l-75.2 59.1c-0.9 0.7-2.1 1.1-3.2 1.1zm-91.7-33.3h91.7c2.9 0 5.2 2.3 5.2 5.2v12.2l61.6-48.4-61.6-48.4v12.2c0 2.9-2.3 5.2-5.2 5.2h-91.7z" fill="#333"/>
    </g>
   </g>
  </g>
 </g>
</svg>
