<?xml version="1.0" encoding="UTF-8"?>
<svg width="73.581mm" height="73.607mm" version="1.1" viewBox="0 0 73.581 73.607" xmlns="http://www.w3.org/2000/svg" xmlns:cc="http://creativecommons.org/ns#" xmlns:dc="http://purl.org/dc/elements/1.1/" xmlns:rdf="http://www.w3.org/1999/02/22-rdf-syntax-ns#">
 <metadata>
  <rdf:RDF>
   <cc:Work rdf:about="">
    <dc:format>image/svg+xml</dc:format>
    <dc:type rdf:resource="http://purl.org/dc/dcmitype/StillImage"/>
    <dc:title/>
   </cc:Work>
  </rdf:RDF>
 </metadata>
 <g transform="translate(-443.33 -406.5)" clip-rule="evenodd" fill-rule="evenodd">
  <path d="m480.11 480.11c20.267 0 36.804-16.536 36.804-36.804 0-20.267-16.536-36.804-36.804-36.804-20.267 0-36.777 16.536-36.777 36.804 0 20.241 16.51 36.804 36.777 36.804z" fill="#f2f2f2" stroke-width=".26458"/>
  <path d="m462.78 429.12h34.66c2.5665 0 4.6302 2.0638 4.6302 4.6302v19.05c0 2.5665-2.0638 4.6567-4.6302 4.6567h-34.66c-2.54 0-4.6302-2.0902-4.6302-4.6567v-19.05c0-2.5664 2.0902-4.6302 4.6302-4.6302z" fill="#2b9dd8" stroke-width=".26458"/>
  <polygon transform="matrix(.26458 0 0 .26458 158.27 230.39)" points="1198.5 825.4 1216.4 814.9 1234.4 804.6 1216.4 794.3 1198.5 783.9 1198.5 804.6"/>
 </g>
</svg>
