<?xml version="1.0" encoding="UTF-8"?>
<svg width="73.634mm" height="73.607mm" version="1.1" viewBox="0 0 73.634 73.607" xmlns="http://www.w3.org/2000/svg" xmlns:cc="http://creativecommons.org/ns#" xmlns:dc="http://purl.org/dc/elements/1.1/" xmlns:rdf="http://www.w3.org/1999/02/22-rdf-syntax-ns#">
 <metadata>
  <rdf:RDF>
   <cc:Work rdf:about="">
    <dc:format>image/svg+xml</dc:format>
    <dc:type rdf:resource="http://purl.org/dc/dcmitype/StillImage"/>
    <dc:title/>
   </cc:Work>
  </rdf:RDF>
 </metadata>
 <g transform="translate(-447.33 -411.27)" clip-rule="evenodd" fill-rule="evenodd" stroke-width=".26458">
  <path d="m484.16 484.88c20.267 0 36.804-16.536 36.804-36.804 0-20.267-16.536-36.804-36.804-36.804s-36.83 16.536-36.83 36.804c0 20.267 16.563 36.804 36.83 36.804z" fill="#f2f2f2"/>
  <path d="m479.8 428.74h8.7048c5.3446 0 9.7631 4.4185 9.7631 9.816v4.2069h-2.196v-4.2069c0-4.2069-3.4131-7.62-7.5935-7.62h-8.7048c-4.154 0-7.62 3.4131-7.62 7.62v4.2069h-2.1696v-4.2069c0.0529-5.3975 4.4185-9.816 9.816-9.816z"/>
  <path d="m472.18 442.76h-3.5454c-3.6248 0-6.5881 2.9633-6.5881 6.5881v11.456c0 3.6248 2.9369 6.5881 6.5881 6.5881h3.5454z" fill="#2b9dd8"/>
  <path d="m463.29 445.51c-0.79375 1.0848-1.2171 2.4077-1.2171 3.81v11.456c0 1.4288 0.44979 2.7517 1.2171 3.8629 1.0054-2.0902 1.6669-5.6092 1.6669-9.5779 0-3.9423-0.66146-7.4612-1.6669-9.5515z"/>
  <path d="m496.1 442.76h3.5719c3.5983 0 6.5881 2.9633 6.5881 6.5881v11.456c0 3.6248-2.9633 6.5881-6.5881 6.5881h-3.5719z" fill="#2b9dd8"/>
  <path d="m504.99 445.51c0.79375 1.0848 1.2435 2.4077 1.2435 3.81v11.456c0 1.4288-0.47625 2.7517-1.2435 3.8629-1.0054-2.0902-1.6404-5.6092-1.6404-9.5779 0.0265-3.9423 0.635-7.4612 1.6404-9.5515z"/>
 </g>
</svg>
