<?xml version="1.0" encoding="UTF-8" standalone="no"?>
<svg
   xmlns:dc="http://purl.org/dc/elements/1.1/"
   xmlns:cc="http://creativecommons.org/ns#"
   xmlns:rdf="http://www.w3.org/1999/02/22-rdf-syntax-ns#"
   xmlns:svg="http://www.w3.org/2000/svg"
   xmlns="http://www.w3.org/2000/svg"
   id="svg1711"
   version="1.1"
   viewBox="0 0 53.022499 42.121666"
   height="42.121666mm"
   width="53.022499mm">
  <defs
     id="defs1705" />
  <metadata
     id="metadata1708">
    <rdf:RDF>
      <cc:Work
         rdf:about="">
        <dc:format>image/svg+xml</dc:format>
        <dc:type
           rdf:resource="http://purl.org/dc/dcmitype/StillImage" />
        <dc:title></dc:title>
      </cc:Work>
    </rdf:RDF>
  </metadata>
  <g
     transform="translate(-96.708989,-40.927262)"
     id="layer1">
    <g
       transform="matrix(0.26458333,0,0,0.26458333,-17.220593,-30.748362)"
       id="XMLID_592_">
      <g
         id="XMLID_591_">
        <g
           id="XMLID_763_">
          <path
             id="XMLID_843_"
             fill="#73c9bb"
             d="M 612.5,424.9 H 449.1 c -7.3,0 -13.3,-6 -13.3,-13.3 V 289.4 c 0,-7.3 6,-13.3 13.3,-13.3 h 163.4 c 7.3,0 13.3,6 13.3,13.3 v 122.2 c 0,7.3 -6,13.3 -13.3,13.3 z" />
        </g>
      </g>
      <g
         id="XMLID_584_">
        <g
           id="XMLID_767_">
          <path
             id="XMLID_4_"
             fill="#333333"
             d="M 612.5,430.1 H 449.1 c -10.2,0 -18.5,-8.3 -18.5,-18.5 V 289.4 c 0,-10.2 8.3,-18.5 18.5,-18.5 h 163.4 c 10.2,0 18.5,8.3 18.5,18.5 v 122.2 c 0,10.2 -8.3,18.5 -18.5,18.5 z M 449.1,281.3 c -4.5,0 -8.1,3.6 -8.1,8.1 v 122.2 c 0,4.5 3.6,8.1 8.1,8.1 h 163.4 c 4.5,0 8.1,-3.6 8.1,-8.1 V 289.4 c 0,-4.5 -3.6,-8.1 -8.1,-8.1 H 449.1 Z" />
        </g>
      </g>
      <g
         id="XMLID_585_">
        <g
           id="XMLID_766_">
          <polygon
             id="XMLID_842_"
             fill="#333333"
             points="533.5,357 435.1,286 441.2,277.6 533.3,344 620.3,277.7 626.6,285.9 " />
        </g>
      </g>
      <g
         id="XMLID_586_">
        <g
           id="XMLID_588_">
          <g
             id="XMLID_765_">
            <rect
               id="XMLID_841_"
               x="467.79999"
               y="319.89999"
               transform="matrix(0.7813,0.6242,-0.6242,0.7813,337.9655,-213.0862)"
               fill="#333333"
               width="10.4"
               height="111.6" />
          </g>
        </g>
        <g
           id="XMLID_590_">
          <g
             id="XMLID_764_">
            <rect
               id="XMLID_840_"
               x="536.20001"
               y="371.39999"
               transform="matrix(0.5862,0.8102,-0.8102,0.5862,549.7675,-323.1016)"
               fill="#333333"
               width="110"
               height="10.4" />
          </g>
        </g>
      </g>
    </g>
  </g>
</svg>
