<?xml version="1.0" encoding="UTF-8"?>
<svg width="62.984mm" height="46.17mm" version="1.1" viewBox="0 0 62.984 46.17" xmlns="http://www.w3.org/2000/svg" xmlns:cc="http://creativecommons.org/ns#" xmlns:dc="http://purl.org/dc/elements/1.1/" xmlns:rdf="http://www.w3.org/1999/02/22-rdf-syntax-ns#">
 <metadata>
  <rdf:RDF>
   <cc:Work rdf:about="">
    <dc:format>image/svg+xml</dc:format>
    <dc:type rdf:resource="http://purl.org/dc/dcmitype/StillImage"/>
    <dc:title/>
   </cc:Work>
  </rdf:RDF>
 </metadata>
 <g transform="translate(-92.666 -46.378)">
  <g id="XMLID_593_" transform="matrix(.26458 0 0 .26458 -96.855 -23.287)">
   <g id="XMLID_603_">
    <path id="XMLID_816_" d="m877.7 273.8h-113.3c-2.9 0-5.2-2.3-5.2-5.2s2.3-5.2 5.2-5.2h113.2c2.9 0 5.2 2.3 5.2 5.2 0.1 2.9-2.3 5.2-5.1 5.2z" fill="#333"/>
   </g>
   <g id="XMLID_604_">
    <path id="XMLID_815_" d="m877.7 306.6h-137.5c-2.9 0-5.2-2.3-5.2-5.2s2.3-5.2 5.2-5.2h137.5c2.9 0 5.2 2.3 5.2 5.2 0 2.8-2.4 5.2-5.2 5.2z" fill="#333"/>
   </g>
   <g id="XMLID_605_">
    <path id="XMLID_814_" d="m877.7 339.3h-156.2c-2.9 0-5.2-2.3-5.2-5.2s2.3-5.2 5.2-5.2h156.2c2.9 0 5.2 2.3 5.2 5.2s-2.4 5.2-5.2 5.2z" fill="#333"/>
   </g>
   <g id="XMLID_606_">
    <path id="XMLID_813_" d="m877.7 372.1h-143c-2.9 0-5.2-2.3-5.2-5.2s2.3-5.2 5.2-5.2h143c2.9 0 5.2 2.3 5.2 5.2s-2.4 5.2-5.2 5.2z" fill="#333"/>
   </g>
   <g id="XMLID_607_">
    <path id="XMLID_812_" d="m877.7 404.8h-127.1c-2.9 0-5.2-2.3-5.2-5.2s2.3-5.2 5.2-5.2h127.1c2.9 0 5.2 2.3 5.2 5.2s-2.4 5.2-5.2 5.2z" fill="#333"/>
   </g>
   <g id="XMLID_608_">
    <path id="XMLID_811_" d="m854.9 437.6h-125.6c-2.9 0-5.2-2.3-5.2-5.2s2.3-5.2 5.2-5.2h125.6c2.9 0 5.2 2.3 5.2 5.2s-2.3 5.2-5.2 5.2z" fill="#333"/>
   </g>
   <g id="XMLID_594_">
    <g id="XMLID_601_">
     <path id="XMLID_839_" d="m946.3 346.8-83 83c-3.7 3.7-9.8 3.7-13.5 0l-62-62c-3.7-3.7-3.7-9.8 0-13.5l83-83c3.7-3.7 9.8-3.7 13.5 0l62 62c3.7 3.7 3.7 9.8 0 13.5z" fill="#71c4ee"/>
    </g>
    <g id="XMLID_599_">
     <path id="XMLID_808_" d="m856.6 437.8c-3.8 0-7.6-1.4-10.4-4.3l-62-62c-5.8-5.8-5.8-15.1 0-20.9l83-83c2.8-2.8 6.5-4.3 10.4-4.3 4 0 7.7 1.5 10.4 4.3l62 62c5.8 5.8 5.8 15.1 0 20.9l-83 83c-2.9 2.8-6.7 4.3-10.4 4.3zm20.9-164.1c-1.1 0-2.2 0.4-3.1 1.3l-83 83c-1.7 1.7-1.7 4.5 0 6.2l62 62c1.7 1.7 4.5 1.7 6.2 0l83-83c1.7-1.7 1.7-4.5 0-6.2l-62-62c-0.9-0.9-2-1.3-3.1-1.3z" fill="#333"/>
    </g>
    <g id="XMLID_598_">
     <polygon id="XMLID_807_" points="784.3 357.5 863.7 344.7 874 267.9 884.3 269.3 873 353.7 786 367.8" fill="#333"/>
    </g>
    <g id="XMLID_595_">
     <g id="XMLID_597_">
      <rect id="XMLID_806_" transform="matrix(.111 .9938 -.9938 .111 1146.2 -496.2)" x="810.4" y="387.4" width="80.1" height="10.4" fill="#333"/>
     </g>
     <g id="XMLID_596_">
      <rect id="XMLID_805_" transform="matrix(.9938 .111 -.111 .9938 42.431 -99.199)" x="871.7" y="326.1" width="80.1" height="10.4" fill="#333"/>
     </g>
    </g>
   </g>
  </g>
 </g>
</svg>
