<?xml version="1.0" encoding="UTF-8"?>
<svg width="116.91mm" height="61.045mm" version="1.1" viewBox="0 0 116.91 61.045" xmlns="http://www.w3.org/2000/svg" xmlns:cc="http://creativecommons.org/ns#" xmlns:dc="http://purl.org/dc/elements/1.1/" xmlns:rdf="http://www.w3.org/1999/02/22-rdf-syntax-ns#">
 <metadata>
  <rdf:RDF>
   <cc:Work rdf:about="">
    <dc:format>image/svg+xml</dc:format>
    <dc:type rdf:resource="http://purl.org/dc/dcmitype/StillImage"/>
    <dc:title/>
   </cc:Work>
  </rdf:RDF>
 </metadata>
 <g transform="translate(-435.35 -267.95)">
  <g id="XMLID_621_" transform="matrix(.26458 0 0 .26458 245.82 35.534)">
   <g transform="translate(-1313.9 -570.79)">
    <g clip-rule="evenodd" fill-rule="evenodd">
     <rect x="2030.3" y="1449.2" width="441.86" height="230.72" fill="#115f85"/>
     <rect x="2042.6" y="1461.5" width="417.46" height="206.08" fill="#1582b6"/>
     <path d="m2251.3 1648.5c46.143 0 83.828-37.695 83.828-84.078 0-46.143-37.686-83.828-83.828-83.828-46.384 0-84.069 37.686-84.069 83.828 0 46.382 37.685 84.078 84.069 84.078z" fill="#115f85"/>
     <rect x="2399.4" y="1470.7" width="51.219" height="102.67" fill="#0a6e9d"/>
     <rect x="2055.9" y="1548.5" width="51.461" height="102.92" fill="#0a6e9d"/>
     <g fill="#fff">
      <path d="m2251.3 1638.6c40.824 0 73.924-33.333 73.924-74.165 0-40.824-33.1-74.166-73.924-74.166-40.832 0-74.165 33.342-74.165 74.166 0 40.832 33.333 74.165 74.165 74.165z"/>
      <rect x="2057.8" y="1470.2" width="30.445" height="22.946"/>
      <rect x="2094" y="1470.2" width="21.024" height="22.946"/>
      <rect x="2119.9" y="1470.2" width="8.938" height="22.946"/>
      <rect x="2133.2" y="1470.2" width="46.866" height="22.946"/>
      <rect x="2068.2" y="1605.7" width="26.816" height="35.755"/>
      <rect x="2068.2" y="1574.3" width="26.816" height="24.644"/>
      <rect x="2068.2" y="1558.4" width="26.816" height="10.387"/>
      <rect x="2411.7" y="1480.6" width="26.816" height="35.755"/>
      <rect x="2411.7" y="1522.9" width="26.816" height="24.636"/>
      <rect x="2411.7" y="1553.1" width="26.816" height="10.387"/>
     </g>
    </g>
    <path d="m2247.2 1612.3c-3.138-0.25-6.517-0.491-10.387-0.974-3.621-0.483-7.009-1.448-10.146-2.655-3.138-0.966-5.801-2.414-7.731-4.104-2.173-1.689-3.138-3.87-3.138-6.283 0-0.966 0-1.931 0.482-2.896s0.966-2.181 1.931-2.905c0.966-0.965 1.932-1.689 3.38-2.172 1.456-0.724 2.904-0.966 4.835-0.966 1.689 0 3.138 0.242 4.586 0.725 1.698 0.241 3.146 0.724 4.836 1.448 1.689 0.482 3.379 0.965 5.077 1.448 1.931 0.482 4.103 0.974 6.275 0.974v-21.507c-3.621-0.965-7.249-2.413-11.111-3.62-3.861-1.207-7.249-2.904-10.146-5.077-2.896-1.931-5.318-4.586-7.249-7.731-1.932-3.138-2.896-7.008-2.896-11.836 0-8.214 2.896-14.739 8.456-19.325 5.551-4.836 13.283-7.249 22.946-7.732v-7.249c0-1.207 0.482-1.931 1.207-2.655 0.732-0.724 1.697-1.206 2.904-1.206s2.172 0.482 2.896 1.206c0.724 0.725 0.965 1.448 0.965 2.655v7.249c2.905 0 5.561 0.483 8.698 0.725 3.146 0.482 6.042 1.207 8.938 2.172 2.663 0.966 4.836 2.422 6.767 3.87 1.931 1.689 2.655 3.621 2.655 6.034 0 2.422-0.966 4.595-2.896 6.284-1.932 1.689-4.595 2.654-7.732 2.654-1.207 0-2.655-0.241-3.62-0.482-1.215-0.241-2.181-0.724-3.388-1.207-0.965-0.241-2.413-0.724-3.861-0.965-1.448-0.483-3.388-0.725-5.561-0.966v20.05c4.112 1.448 7.974 2.655 11.844 3.87 3.621 1.448 7 2.896 9.904 4.827 2.896 2.173 5.311 4.595 7.241 7.491 1.698 2.896 2.663 6.767 2.663 11.353 0 4.353-0.724 8.215-2.422 11.602-1.689 3.379-3.861 6.275-6.517 8.689-2.905 2.422-6.284 4.594-10.146 6.042-3.87 1.448-7.974 2.414-12.568 2.655v7.49c0 0.966-0.241 1.939-0.965 2.664-0.725 0.724-1.689 0.965-2.896 0.965s-2.172-0.241-2.904-0.965c-0.725-0.725-1.207-1.698-1.207-2.664v-7zm17.394-28.273c0-2.413-0.724-4.344-1.931-5.31-1.448-1.207-2.896-1.931-4.353-2.655l-3.139-1.215v18.602c3.139-0.482 5.318-1.689 7.009-3.138 1.691-1.689 2.414-3.62 2.414-6.284zm-17.394-31.402v-17.153c-2.655 0.241-4.827 1.207-6.517 2.414-1.939 0.965-2.905 2.904-2.905 5.56 0 2.414 0.725 4.345 2.173 5.318 1.456 1.207 2.904 1.931 4.353 2.655z" fill="#115f85"/>
    <g clip-rule="evenodd" fill="#0a6e9d" fill-rule="evenodd">
     <rect x="2325.7" y="1633.5" width="30.437" height="22.946"/>
     <rect x="2362" y="1633.5" width="21.016" height="22.946"/>
     <rect x="2387.8" y="1633.5" width="8.938" height="22.946"/>
     <rect x="2401.1" y="1633.5" width="46.866" height="22.946"/>
    </g>
   </g>
  </g>
 </g>
</svg>
