<?xml version="1.0" encoding="UTF-8"?>
<svg width="141.18mm" height="78.542mm" version="1.1" viewBox="0 0 141.18 78.542" xmlns="http://www.w3.org/2000/svg" xmlns:cc="http://creativecommons.org/ns#" xmlns:dc="http://purl.org/dc/elements/1.1/" xmlns:rdf="http://www.w3.org/1999/02/22-rdf-syntax-ns#">
 <metadata>
  <rdf:RDF>
   <cc:Work rdf:about="">
    <dc:format>image/svg+xml</dc:format>
    <dc:type rdf:resource="http://purl.org/dc/dcmitype/StillImage"/>
    <dc:title/>
   </cc:Work>
  </rdf:RDF>
 </metadata>
 <g transform="translate(-293.09 -165.29)">
  <g id="XMLID_621_" transform="matrix(.26458 0 0 .26458 245.82 35.534)">
   <g transform="translate(-149.21 233.93)">
    <g clip-rule="evenodd" fill-rule="evenodd">
     <path d="m336.26 256.48h441.86v143.74l-60.637 42.28-30.924-40.586-55.809-83.108c-2.655-4.345-7.245-7.004-12.56-7.004-5.077 0-9.663 2.172-12.563 6.763l-86.246 152.92-10.633 15.464h-1.448l-55.081-72.476c-2.9-3.866-7.008-5.801-11.598-6.042-4.831 0-8.938 1.689-12.076 5.318l-62.813 73.2h-29.476v-230.48zm441.86 180.47v50.013h-71.511zm-106.3 49.771-126.35 0.242 18.118-26.816 44.936-13.529 50.004 19.084zm-202.46 0.242h-63.778l33.824-39.38z" fill="#115f85"/>
     <path d="m348.58 268.56v206.32h27.541l52.426-61.119c3.138-3.629 7.245-5.318 12.076-5.318 4.59 0.241 8.697 2.176 11.598 6.042l45.901 60.395h19.084l81.415-120.31c2.9-4.349 7.49-6.521 12.805-6.521s9.663 2.659 12.563 7.003l66.92 106.06 74.89-52.426v-140.12zm67.645 206.32h43.725l-20.533-27.299zm137.46 0h109.92l-52.908-84.074zm170.56 0h41.552v-29.234z" fill="#1582b6"/>
     <path d="m557.07 287.89c46.383 0 84.073 37.445 84.073 83.828 0 3.142-0.245 6.525-0.729 9.663l-16.425-26.334c-2.9-4.344-7.249-7.003-12.563-7.003s-9.904 2.172-12.805 6.521l-65.955 97.361c-34.303-10.387-59.426-42.522-59.426-80.208 1e-3 -46.383 37.688-83.828 83.83-83.828zm70.545 129.49c-13.288 20.537-35.272 34.548-60.399 37.686l43.487-64.261 12.317 19.567z" fill="#115f85"/>
     <rect x="705.41" y="277.74" width="51.215" height="102.92" fill="#0a6e9d"/>
     <polygon points="390.14 458.45 413.33 431.63 413.33 355.53 361.87 355.53 361.87 458.45" fill="#0a6e9d"/>
     <g fill="#fff">
      <path d="m557.07 297.55c39.38 0 71.269 30.437 73.924 68.852l-7.004-11.357c-2.9-4.344-7.249-7.003-12.563-7.003s-9.904 2.172-12.805 6.521l-60.154 88.905c-31.889-8.456-55.322-37.204-55.322-71.752-1e-3 -40.829 33.096-74.166 73.924-74.166zm64.743 110.64c-10.146 17.636-26.816 30.682-47.107 35.514l35.997-52.909z"/>
      <rect x="363.56" y="277.5" width="30.682" height="22.95"/>
      <rect x="400.04" y="277.5" width="21.02" height="22.95"/>
      <rect x="425.89" y="277.5" width="8.938" height="22.95"/>
      <rect x="439.18" y="277.5" width="46.866" height="22.95"/>
      <polygon points="401.01 412.79 374.19 412.79 374.19 448.54 398.59 448.54 401.01 445.88"/>
      <rect x="374.19" y="381.62" width="26.816" height="24.403"/>
      <rect x="374.19" y="365.44" width="26.816" height="10.628"/>
      <rect x="717.49" y="287.65" width="26.816" height="35.755"/>
      <rect x="717.49" y="330.17" width="26.816" height="24.64"/>
      <rect x="717.49" y="360.37" width="26.816" height="10.387"/>
     </g>
    </g>
    <path d="m553.21 419.31c-3.142 0-6.763-0.241-10.387-0.965-3.625-0.483-7.009-1.207-10.15-2.414-3.138-1.207-5.797-2.659-7.969-4.349-1.936-1.694-3.143-3.625-3.143-6.039 0-0.965 0.242-1.935 0.725-2.9 0.482-1.207 0.966-2.176 1.935-3.142 0.725-0.724 1.932-1.448 3.384-2.172 1.448-0.483 2.896-0.724 4.827-0.724 1.693 0 3.142 0.241 4.595 0.482 1.447 0.483 3.138 0.965 4.831 1.448 1.448 0.483 3.383 1.207 5.072 1.689 1.932 0.483 4.107 0.724 6.28 0.966v-21.498c-3.625-1.207-7.245-2.418-11.111-3.625-3.866-1.448-7.249-2.9-10.149-5.073-2.896-2.172-5.314-4.59-7.245-7.732-1.936-3.138-2.9-7.004-2.9-11.835 0-8.215 2.9-14.74 8.456-19.571 5.555-4.59 13.287-7.245 22.95-7.728v-7.249c0-0.966 0.482-1.931 1.211-2.659 0.724-0.724 1.689-0.966 2.896-0.966 0.965 0 1.931 0.242 2.9 0.966 0.724 0.728 0.966 1.693 0.966 2.659v7.249c2.659 0.241 5.555 0.483 8.697 0.965 3.142 0.483 6.038 1.207 8.697 2.172 2.9 0.965 5.072 2.418 7.004 3.866 1.693 1.693 2.659 3.625 2.659 6.038 0 2.418-0.966 4.594-2.9 6.284-2.173 1.689-4.591 2.655-7.732 2.655-1.448 0-2.655-0.242-3.62-0.483-1.207-0.483-2.177-0.724-3.384-1.207-1.207-0.242-2.418-0.724-3.866-1.207-1.448-0.241-3.379-0.483-5.555-0.724v20.05c4.106 1.207 7.973 2.655 11.839 3.866 3.62 1.207 7.004 2.9 9.904 4.832 0.966 0.724 1.931 1.448 2.896 2.172l-32.613 48.078zm17.395-28.023c0-2.655-0.724-4.345-2.176-5.556-1.207-0.965-2.655-1.931-4.104-2.414l-3.142-1.211v18.602c3.142-0.483 5.313-1.689 7.003-3.379 1.695-1.448 2.419-3.383 2.419-6.042zm-17.395-31.403v-17.395c-2.659 0.483-4.832 1.207-6.763 2.414-1.693 1.207-2.659 3.142-2.659 5.801 0 2.414 0.725 4.344 2.177 5.31 1.448 1.211 2.896 1.935 4.345 2.659z" fill="#115f85"/>
    <g clip-rule="evenodd" fill="#0a6e9d" fill-rule="evenodd">
     <polygon points="656.85 463.76 631.48 463.76 631.48 440.82 642.35 440.82"/>
     <polygon points="678.11 440.82 688.98 440.82 688.98 457.96"/>
     <polygon points="702.75 452.89 693.81 459.18 693.81 440.82 702.75 440.82"/>
     <path d="m707.1 440.82h12.805l-12.805 8.939zm46.87 13.042v9.904h-14.016z"/>
    </g>
    <path d="m338.44 551.22c-2.177 2.414-6.042 2.896-8.456 0.724-2.418-2.172-2.9-6.038-0.725-8.456l106.3-123.69c2.176-2.659 5.797-2.9 8.456-0.728 0.241 0.241 0.482 0.487 0.965 0.97l63.537 83.587 97.603-143.74c1.932-2.901 5.556-3.625 8.456-1.694 0.725 0.483 1.207 0.965 1.689 1.694l71.993 114.27 151.96-106.3-20.778-4.107c-3.138-0.724-5.313-3.862-4.831-7.245 0.724-3.142 3.866-5.314 7.249-4.59l34.544 6.763c1.694 0.482 2.901 1.211 3.866 2.659 1.936 2.655 1.211 6.279-1.448 8.214l-169.11 118.14c-2.659 1.69-6.525 0.966-8.215-1.935l-70.545-111.61-96.879 143.02c-0.482 0.483-0.966 1.207-1.448 1.694-2.655 1.931-6.521 1.448-8.456-1.211l-64.261-84.311z" fill="#fcc326"/>
    <path d="m859.06 396.36c-0.241 3.379-2.9 6.039-6.279 5.797-3.383-0.241-5.801-3.142-5.56-6.521l2.177-31.411c0.241-3.379 3.142-5.797 6.279-5.555 3.383 0.241 5.801 3.142 5.801 6.521z" fill="#fcc326"/>
   </g>
  </g>
 </g>
</svg>
