<?xml version="1.0" encoding="UTF-8"?>
<svg width="130.72mm" height="95.816mm" version="1.1" viewBox="0 0 130.72 95.816" xmlns="http://www.w3.org/2000/svg" xmlns:cc="http://creativecommons.org/ns#" xmlns:dc="http://purl.org/dc/elements/1.1/" xmlns:rdf="http://www.w3.org/1999/02/22-rdf-syntax-ns#">
 <metadata>
  <rdf:RDF>
   <cc:Work rdf:about="">
    <dc:format>image/svg+xml</dc:format>
    <dc:type rdf:resource="http://purl.org/dc/dcmitype/StillImage"/>
    <dc:title/>
   </cc:Work>
  </rdf:RDF>
 </metadata>
 <g transform="translate(-323.44 -171.09)">
  <g id="XMLID_621_" transform="matrix(.26458 0 0 .26458 245.82 35.534)">
   <g transform="translate(-54.271 -291.34)">
    <path d="m817.99 1051.3v-37.444c0 14.498-40.345 26.334-90.111 26.334-49.768 0-90.112-11.836-90.112-26.334v37.444c0 14.499 40.345 26.334 90.112 26.334s90.111-11.835 90.111-26.334z" clip-rule="evenodd" fill="#fbb615" fill-rule="evenodd"/>
    <path d="m812.92 1051.3v-22.463c-5.073 3.379-11.84 6.283-19.813 8.456-16.671 5.068-39.858 7.974-65.227 7.974s-48.319-2.905-64.985-7.974c-8.215-2.173-14.981-5.077-19.813-8.456v22.463c0 4.836 8.698 9.663 22.468 13.774 15.947 4.586 37.928 7.491 62.331 7.491 24.398 0 46.624-2.905 62.33-7.491 14.012-4.111 22.709-8.938 22.709-13.774zm0-37.445h10.387v37.444c0 9.904-11.598 18.119-30.199 23.679-16.671 4.828-39.858 7.974-65.227 7.974s-48.319-3.146-64.985-7.974c-18.606-5.56-30.2-13.774-30.2-23.679v-37.444h10.387c0 4.595 8.698 9.663 22.468 13.774 15.947 4.586 37.928 7.49 62.331 7.49 24.398 0 46.624-2.904 62.33-7.49 14.011-4.11 22.708-9.179 22.708-13.774z" fill="#fbb615"/>
    <path d="m727.88 982.21c25.368 0 48.556 3.142 65.227 7.978 18.602 5.551 30.199 13.766 30.199 23.67s-11.598 18.119-30.199 23.438c-16.671 5.068-39.858 7.974-65.227 7.974s-48.319-2.905-64.985-7.974c-18.606-5.318-30.2-13.533-30.2-23.438s11.594-18.119 30.2-23.67c16.666-4.836 39.616-7.978 64.985-7.978zm62.33 17.882c-15.706-4.595-37.932-7.491-62.33-7.491-24.403 0-46.384 2.896-62.331 7.491-13.77 4.103-22.468 8.938-22.468 13.766 0 4.595 8.698 9.663 22.468 13.774 15.947 4.586 37.928 7.49 62.331 7.49 24.398 0 46.624-2.904 62.33-7.49 14.012-4.111 22.709-9.18 22.709-13.774 0-4.828-8.697-9.664-22.709-13.766z" fill="#fcc326"/>
    <g clip-rule="evenodd" fill-rule="evenodd">
     <path d="m790.21 1000.1c-15.706-4.595-37.932-7.491-62.33-7.491-24.403 0-46.384 2.896-62.331 7.491-13.77 4.103-22.468 8.938-22.468 13.766 0 4.595 8.698 9.663 22.468 13.774 15.947 4.586 37.928 7.49 62.331 7.49 24.398 0 46.624-2.904 62.33-7.49 14.012-4.111 22.709-9.18 22.709-13.774 0-4.828-8.697-9.664-22.709-13.766z" fill="#ffda63"/>
     <g fill="#fcc326">
      <path d="m772.81 1068.9c6.28-0.966 12.318-2.414 17.396-3.862l1.206-0.241v-20.773c-5.555 1.689-11.839 2.896-18.602 4.103z"/>
      <path d="m688.01 1048.9c-6.521-0.966-12.805-2.173-18.36-3.379v20.532c5.556 1.448 11.599 2.655 18.36 3.862z"/>
      <path d="m656.85 1041.6c-5.556-1.932-10.146-4.104-13.771-6.518v16.18c0 3.629 5.073 7.491 13.771 10.879z"/>
     </g>
     <path d="m727.88 999.85c24.398 0 46.624 2.655 62.33 7.482 10.628 2.905 18.119 6.525 21.015 10.154 1.207-1.215 1.694-2.422 1.694-3.629 0-4.827-8.697-9.663-22.709-13.766-15.706-4.595-37.932-7.491-62.33-7.491-24.403 0-46.384 2.896-62.331 7.491-13.77 4.103-22.468 8.938-22.468 13.766 0 1.207 0.483 2.414 1.453 3.629 3.138-3.629 10.628-7.249 21.015-10.154 15.947-4.827 37.928-7.482 62.331-7.482z" fill="#fbb615"/>
     <path d="m832.96 993.08v-37.686c0 14.735-40.346 26.329-90.112 26.329s-90.112-11.594-90.112-26.329v37.686c0 14.499 40.346 26.334 90.112 26.334s90.112-11.835 90.112-26.334z" fill="#fbb615"/>
    </g>
    <path d="m827.89 993.08v-22.709c-5.072 3.384-11.835 6.28-19.809 8.698-16.912 4.831-39.862 7.969-65.23 7.969-25.364 0-48.318-3.138-65.227-7.969-7.974-2.418-14.735-5.314-19.813-8.698v22.709c0 4.586 8.697 9.422 22.709 13.525 15.946 4.835 37.932 7.49 62.33 7.49s46.388-2.655 62.33-7.49c14.012-4.103 22.71-8.939 22.71-13.525zm0-37.685h10.146v37.686c0 9.663-11.352 18.119-29.954 23.438-16.912 5.069-39.862 7.965-65.23 7.965-25.364 0-48.318-2.896-65.227-7.965-18.605-5.318-30.199-13.774-30.199-23.438v-37.686h10.387c0 4.827 8.697 9.663 22.709 13.766 15.946 4.595 37.932 7.491 62.33 7.491s46.388-2.896 62.33-7.491c14.01-4.103 22.708-8.939 22.708-13.766z" fill="#fbb615"/>
    <path d="m742.85 923.98c25.368 0 48.318 2.901 65.23 7.974 18.603 5.318 29.954 13.771 29.954 23.438 0 9.904-11.352 18.119-29.954 23.675-16.912 4.831-39.862 7.969-65.23 7.969-25.364 0-48.318-3.138-65.227-7.969-18.605-5.556-30.199-13.771-30.199-23.675 0-9.667 11.594-18.119 30.199-23.438 16.908-5.072 39.862-7.974 65.227-7.974zm62.33 17.878c-15.942-4.831-37.932-7.486-62.33-7.486s-46.384 2.655-62.33 7.486c-14.012 4.107-22.709 8.938-22.709 13.533 0 4.827 8.697 9.663 22.709 13.766 15.946 4.595 37.932 7.491 62.33 7.491s46.388-2.896 62.33-7.491c14.012-4.103 22.709-8.938 22.709-13.766 0-4.594-8.698-9.425-22.709-13.533z" fill="#fcc326"/>
    <g clip-rule="evenodd" fill-rule="evenodd">
     <path d="m805.18 941.86c-15.942-4.831-37.932-7.486-62.33-7.486s-46.384 2.655-62.33 7.486c-14.012 4.107-22.709 8.938-22.709 13.533 0 4.827 8.697 9.663 22.709 13.766 15.946 4.595 37.932 7.491 62.33 7.491s46.388-2.896 62.33-7.491c14.012-4.103 22.709-8.938 22.709-13.766 0-4.594-8.698-9.425-22.709-13.533z" fill="#ffda63"/>
     <g fill="#fcc326">
      <path d="m787.79 1010.7c6.279-1.207 12.081-2.414 17.395-4.111l0.966-0.241v-20.533c-5.556 1.448-11.84 2.896-18.36 3.87v21.015z"/>
      <path d="m702.99 990.67c-6.763-0.966-12.801-2.181-18.602-3.629v20.774c5.56 1.456 11.839 2.663 18.602 3.628z"/>
      <path d="m671.59 983.42c-5.318-1.936-9.908-4.107-13.774-6.767v16.429c0 3.621 5.077 7.25 13.774 10.629z"/>
     </g>
     <path d="m742.85 941.38c24.398 0 46.388 2.9 62.33 7.49 10.388 3.142 17.878 6.525 21.02 10.146 0.966-1.207 1.689-2.413 1.689-3.62 0-4.595-8.697-9.426-22.709-13.533-15.942-4.831-37.932-7.486-62.33-7.486s-46.384 2.655-62.33 7.486c-14.012 4.107-22.709 8.938-22.709 13.533 0 1.207 0.482 2.413 1.693 3.62 3.142-3.62 10.629-7.004 21.016-10.146 15.946-4.59 37.931-7.49 62.33-7.49z" fill="#fbb615"/>
     <path d="m805.67 936.31v-37.444c0 14.494-40.346 26.333-90.112 26.333s-90.112-11.839-90.112-26.333v37.444c0 14.494 40.346 26.334 90.112 26.334s90.112-11.84 90.112-26.334z" fill="#fbb615"/>
    </g>
    <path d="m800.35 936.31v-22.468c-5.073 3.143-11.598 6.043-19.809 8.456-16.671 4.832-39.862 7.974-64.989 7.974-25.364 0-48.561-3.142-65.227-7.974-7.974-2.413-14.736-5.313-19.813-8.456v22.468c0 4.59 8.697 9.663 22.709 13.771 15.705 4.59 37.689 7.49 62.33 7.49 24.398 0 46.388-2.9 62.089-7.49 14.012-4.108 22.71-9.182 22.71-13.771zm0-37.445h10.387v37.444c0 9.904-11.594 18.119-30.195 23.434-16.671 5.077-39.862 7.973-64.989 7.973-25.364 0-48.561-2.896-65.227-7.973-18.606-5.314-30.2-13.529-30.2-23.434v-37.444h10.388c0 4.59 8.697 9.421 22.709 13.528 15.705 4.591 37.689 7.491 62.33 7.491 24.398 0 46.388-2.9 62.089-7.491 14.01-4.107 22.708-8.938 22.708-13.528z" fill="#fbb615"/>
    <path d="m715.55 867.21c25.127 0 48.318 3.143 64.989 7.974 18.602 5.314 30.195 13.771 30.195 23.675 0 9.663-11.594 18.119-30.195 23.433-16.671 4.832-39.862 7.974-64.989 7.974-25.364 0-48.561-3.142-65.227-7.974-18.606-5.313-30.2-13.77-30.2-23.433 0-9.904 11.594-18.36 30.2-23.675 16.666-4.832 39.862-7.974 65.227-7.974zm62.089 17.878c-15.701-4.59-37.69-7.49-62.089-7.49-24.641 0-46.625 2.9-62.33 7.49-14.012 4.107-22.709 8.938-22.709 13.771 0 4.59 8.697 9.421 22.709 13.528 15.705 4.591 37.689 7.491 62.33 7.491 24.398 0 46.388-2.9 62.089-7.491 14.012-4.107 22.709-8.938 22.709-13.528 0-4.833-8.698-9.664-22.709-13.771z" fill="#fcc326"/>
    <g clip-rule="evenodd" fill-rule="evenodd">
     <path d="m777.64 885.09c-15.701-4.59-37.69-7.49-62.089-7.49-24.641 0-46.625 2.9-62.33 7.49-14.012 4.107-22.709 8.938-22.709 13.771 0 4.59 8.697 9.421 22.709 13.528 15.705 4.591 37.689 7.491 62.33 7.491 24.398 0 46.388-2.9 62.089-7.491 14.012-4.107 22.709-8.938 22.709-13.528 0-4.833-8.698-9.664-22.709-13.771z" fill="#ffda63"/>
     <g fill="#fcc326">
      <path d="m760.25 953.94c6.521-1.207 12.322-2.418 17.396-3.866l1.207-0.482v-20.533c-5.556 1.448-11.84 2.896-18.603 4.104z"/>
      <path d="m675.69 933.89c-6.762-0.97-13.042-2.177-18.602-3.625v20.774c5.56 1.452 11.84 2.659 18.602 3.624z"/>
      <path d="m644.28 926.64c-5.313-1.931-10.146-4.107-13.77-6.521v16.184c0 3.625 5.076 7.249 13.77 10.633z"/>
     </g>
     <path d="m715.55 884.61c24.398 0 46.388 2.896 62.089 7.486 10.628 3.142 18.119 6.767 21.261 10.149 0.966-1.211 1.448-2.418 1.448-3.383 0-4.832-8.697-9.663-22.709-13.771-15.701-4.59-37.69-7.49-62.089-7.49-24.641 0-46.625 2.9-62.33 7.49-14.012 4.107-22.709 8.938-22.709 13.771 0 0.965 0.482 2.172 1.447 3.383 3.143-3.383 10.633-7.008 21.262-10.149 15.705-4.589 37.689-7.486 62.33-7.486z" fill="#fbb615"/>
     <path d="m836.35 872.53v-37.445c0 14.495-40.345 26.333-90.111 26.333-49.768 0-90.112-11.839-90.112-26.333v37.445c0 14.735 40.345 26.575 90.112 26.575 49.766 1e-3 90.111-11.839 90.111-26.575z" fill="#fbb615"/>
    </g>
    <path d="m831.28 872.53v-22.468c-5.073 3.383-11.84 6.284-19.813 8.697-16.667 4.832-39.858 7.974-65.227 7.974-25.127 0-48.319-3.142-64.985-7.974-8.215-2.414-14.74-5.314-19.813-8.697v22.468c0 4.831 8.698 9.663 22.71 13.771 15.705 4.59 37.686 7.49 62.089 7.49 24.644 0 46.624-2.9 62.33-7.49 14.012-4.108 22.709-8.94 22.709-13.771zm0-37.445h10.387v37.445c0 9.904-11.598 18.36-30.199 23.675-16.667 4.831-39.858 7.973-65.227 7.973-25.127 0-48.319-3.142-64.985-7.973-18.603-5.314-30.2-13.771-30.2-23.675v-37.445h10.387c0 4.832 8.698 9.663 22.71 13.771 15.705 4.59 37.686 7.49 62.089 7.49 24.644 0 46.624-2.9 62.33-7.49 14.011-4.107 22.708-8.939 22.708-13.771z" fill="#fbb615"/>
    <path d="m746.24 803.68c25.368 0 48.56 2.896 65.227 7.973 18.602 5.314 30.199 13.525 30.199 23.433 0 9.904-11.598 18.119-30.199 23.674-16.667 4.832-39.858 7.974-65.227 7.974-25.127 0-48.319-3.142-64.985-7.974-18.603-5.555-30.2-13.77-30.2-23.674 0-9.908 11.598-18.119 30.2-23.433 16.666-5.076 39.858-7.973 64.985-7.973zm62.33 17.636c-15.706-4.59-37.687-7.491-62.33-7.491-24.403 0-46.384 2.9-62.089 7.491-14.012 4.107-22.71 9.18-22.71 13.77 0 4.832 8.698 9.663 22.71 13.771 15.705 4.59 37.686 7.49 62.089 7.49 24.644 0 46.624-2.9 62.33-7.49 14.012-4.107 22.709-8.939 22.709-13.771 0-4.589-8.697-9.662-22.709-13.77z" fill="#fcc326"/>
    <g clip-rule="evenodd" fill-rule="evenodd">
     <path d="m808.57 821.31c-15.706-4.59-37.687-7.491-62.33-7.491-24.403 0-46.384 2.9-62.089 7.491-14.012 4.107-22.71 9.18-22.71 13.77 0 4.832 8.698 9.663 22.71 13.771 15.705 4.59 37.686 7.49 62.089 7.49 24.644 0 46.624-2.9 62.33-7.49 14.012-4.107 22.709-8.939 22.709-13.771 0-4.589-8.697-9.662-22.709-13.77z" fill="#ffda63"/>
     <g fill="#fcc326">
      <path d="m791.17 890.16c6.521-0.966 12.318-2.418 17.396-3.866l1.206-0.241v-20.533c-5.555 1.448-11.835 2.896-18.602 3.862z"/>
      <path d="m706.37 870.11c-6.521-0.965-12.805-1.931-18.36-3.379v20.774c5.556 1.452 11.84 2.659 18.36 3.624z"/>
      <path d="m675.21 862.86c-5.556-1.935-10.146-4.107-13.771-6.521v16.184c0 3.625 5.073 7.49 13.771 10.874z"/>
     </g>
     <path d="m746.24 821.07c24.644 0 46.624 2.896 62.33 7.487 10.628 3.142 18.119 6.525 21.257 10.149 0.969-1.211 1.452-2.417 1.452-3.625 0-4.59-8.697-9.663-22.709-13.77-15.706-4.59-37.687-7.491-62.33-7.491-24.403 0-46.384 2.9-62.089 7.491-14.012 4.107-22.71 9.18-22.71 13.77 0 1.207 0.483 2.414 1.453 3.625 3.138-3.625 10.628-7.008 21.257-10.149 15.706-4.591 37.686-7.487 62.089-7.487z" fill="#fbb615"/>
     <path d="m677.63 1091.9v-37.686c0 14.731-40.346 26.334-90.112 26.334s-90.112-11.603-90.112-26.334v37.686c0 14.49 40.346 26.334 90.112 26.334s90.112-11.844 90.112-26.334z" fill="#fbb615"/>
    </g>
    <path d="m672.31 1091.9v-22.713c-4.835 3.388-11.598 6.284-19.813 8.697-16.667 4.836-39.621 7.974-64.985 7.974-25.368 0-48.56-3.138-65.23-7.974-7.974-2.413-14.735-5.31-19.809-8.697v22.713c0 4.586 8.697 9.422 22.709 13.525 15.701 4.835 37.928 7.49 62.33 7.49 24.398 0 46.384-2.655 62.326-7.49 14.015-4.103 22.472-8.939 22.472-13.525zm0-37.686h10.388v37.686c0 9.663-11.599 18.119-30.2 23.43-16.667 5.077-39.621 7.973-64.985 7.973-25.368 0-48.56-2.896-65.23-7.973-18.602-5.311-30.195-13.767-30.195-23.43v-37.686h10.387c0 4.827 8.697 9.663 22.709 13.766 15.701 4.595 37.928 7.491 62.33 7.491 24.398 0 46.384-2.896 62.326-7.491 14.013-4.103 22.47-8.939 22.47-13.766z" fill="#fbb615"/>
    <path d="m587.51 1022.8c25.364 0 48.318 2.896 64.985 7.974 18.602 5.318 30.2 13.774 30.2 23.438 0 9.904-11.599 18.119-30.2 23.67-16.667 4.836-39.621 7.974-64.985 7.974-25.368 0-48.56-3.138-65.23-7.974-18.602-5.551-30.195-13.766-30.195-23.67 0-9.663 11.594-18.119 30.195-23.438 16.67-5.078 39.862-7.974 65.23-7.974zm62.326 17.878c-15.942-4.827-37.928-7.49-62.326-7.49-24.402 0-46.629 2.663-62.33 7.49-14.012 4.111-22.709 8.938-22.709 13.533 0 4.827 8.697 9.663 22.709 13.766 15.701 4.595 37.928 7.491 62.33 7.491 24.398 0 46.384-2.896 62.326-7.491 14.016-4.103 22.472-8.938 22.472-13.766 0-4.595-8.457-9.422-22.472-13.533z" fill="#fcc326"/>
    <g clip-rule="evenodd" fill-rule="evenodd">
     <path d="m649.84 1040.7c-15.942-4.827-37.928-7.49-62.326-7.49-24.402 0-46.629 2.663-62.33 7.49-14.012 4.111-22.709 8.938-22.709 13.533 0 4.827 8.697 9.663 22.709 13.766 15.701 4.595 37.928 7.491 62.33 7.491 24.398 0 46.384-2.896 62.326-7.491 14.016-4.103 22.472-8.938 22.472-13.766 0-4.595-8.457-9.422-22.472-13.533z" fill="#ffda63"/>
     <g fill="#fcc326">
      <path d="m632.21 1109.5c6.521-1.207 12.322-2.422 17.632-4.111l0.97-0.241v-20.533c-5.556 1.448-11.839 2.896-18.602 3.87z"/>
      <path d="m547.65 1089.5c-6.767-0.966-12.805-2.181-18.602-3.629v20.774c5.556 1.456 11.835 2.663 18.602 3.628z"/>
      <path d="m516.24 1082.2c-5.314-1.932-10.146-4.112-13.771-6.767v16.429c0 3.621 5.073 7.25 13.771 10.629z"/>
     </g>
     <path d="m587.51 1040.2c24.398 0 46.384 2.896 62.326 7.49 10.392 3.138 17.878 6.525 21.02 10.146 0.97-1.207 1.452-2.413 1.452-3.62 0-4.595-8.456-9.422-22.472-13.533-15.942-4.827-37.928-7.49-62.326-7.49-24.402 0-46.629 2.663-62.33 7.49-14.012 4.111-22.709 8.938-22.709 13.533 0 1.207 0.482 2.413 1.689 3.62 2.9-3.62 10.387-7.008 21.02-10.146 15.701-4.593 37.927-7.49 62.33-7.49z" fill="#fbb615"/>
     <path d="m692.36 1033.4v-37.445c0 14.499-40.345 26.334-90.111 26.334-49.768 0-90.112-11.835-90.112-26.334v37.445c0 14.498 40.345 26.333 90.112 26.333s90.111-11.835 90.111-26.333z" fill="#fbb615"/>
    </g>
    <path d="m687.29 1033.4v-22.464c-5.073 3.379-11.84 6.284-19.813 8.456-16.667 5.068-39.858 7.974-65.227 7.974s-48.319-2.905-64.985-7.974c-8.215-2.172-14.981-5.077-19.813-8.456v22.464c0 4.835 8.456 9.663 22.467 13.774 15.947 4.586 37.928 7.49 62.331 7.49 24.402 0 46.624-2.904 62.33-7.49 14.013-4.111 22.71-8.939 22.71-13.774zm0-37.445h10.387v37.445c0 9.912-11.598 18.119-30.199 23.679-16.667 4.827-39.858 7.973-65.227 7.973s-48.319-3.146-64.985-7.973c-18.602-5.56-30.2-13.767-30.2-23.679v-37.445h10.388c0 4.595 8.456 9.422 22.467 13.533 15.947 4.827 37.928 7.491 62.331 7.491 24.402 0 46.624-2.664 62.33-7.491 14.011-4.112 22.708-8.939 22.708-13.533z" fill="#fbb615"/>
    <path d="m602.25 964.33c25.368 0 48.56 3.138 65.227 7.97 18.602 5.556 30.199 13.77 30.199 23.674 0 9.663-11.598 18.119-30.199 23.438-16.667 5.068-39.858 7.974-65.227 7.974s-48.319-2.905-64.985-7.974c-18.602-5.318-30.2-13.774-30.2-23.438 0-9.904 11.599-18.118 30.2-23.674 16.666-4.832 39.617-7.97 64.985-7.97zm62.33 17.874c-15.706-4.591-37.928-7.487-62.33-7.487-24.403 0-46.384 2.896-62.331 7.487-14.011 4.107-22.467 8.942-22.467 13.77 0 4.595 8.456 9.422 22.467 13.533 15.947 4.827 37.928 7.491 62.331 7.491 24.402 0 46.624-2.664 62.33-7.491 14.012-4.111 22.709-8.938 22.709-13.533 0-4.828-8.697-9.663-22.709-13.77z" fill="#fcc326"/>
    <g clip-rule="evenodd" fill-rule="evenodd">
     <path d="m664.58 982.21c-15.706-4.591-37.928-7.487-62.33-7.487-24.403 0-46.384 2.896-62.331 7.487-14.011 4.107-22.467 8.942-22.467 13.77 0 4.595 8.456 9.422 22.467 13.533 15.947 4.827 37.928 7.491 62.331 7.491 24.402 0 46.624-2.664 62.33-7.491 14.012-4.111 22.709-8.938 22.709-13.533 0-4.828-8.697-9.663-22.709-13.77z" fill="#ffda63"/>
     <g fill="#fcc326">
      <path d="m647.18 1051.1c6.284-0.965 12.322-2.413 17.396-3.861l1.207-0.241v-20.774c-5.556 1.689-11.836 2.896-18.603 4.104z"/>
      <path d="m562.39 1031c-6.521-0.965-12.805-2.172-18.36-3.379v20.532c5.556 1.448 11.599 2.655 18.36 3.621z"/>
      <path d="m531.22 1023.8c-5.556-1.931-10.146-4.104-13.77-6.517v16.18c0 3.629 5.072 7.249 13.77 10.637z"/>
     </g>
     <path d="m602.25 981.72c24.402 0 46.624 2.9 62.33 7.495 10.628 3.138 18.119 6.758 21.015 10.146 1.212-0.974 1.694-2.181 1.694-3.388 0-4.827-8.697-9.662-22.709-13.77-15.706-4.591-37.928-7.487-62.33-7.487-24.403 0-46.384 2.896-62.331 7.487-14.011 4.107-22.467 8.942-22.467 13.77 0 1.207 0.482 2.414 1.452 3.388 3.138-3.388 10.628-7.008 21.015-10.146 15.947-4.595 37.928-7.495 62.331-7.495z" fill="#fbb615"/>
     <path d="m665.06 976.65v-37.445c0 14.495-40.346 26.334-90.112 26.334s-90.112-11.839-90.112-26.334v37.445c0 14.739 40.346 26.333 90.112 26.333s90.112-11.593 90.112-26.333z" fill="#fbb615"/>
    </g>
    <path d="m659.99 976.65v-22.468c-5.073 3.383-11.84 6.279-19.813 8.697-16.907 4.831-39.858 7.732-65.227 7.732s-48.318-2.901-65.227-7.732c-7.973-2.418-14.739-5.314-19.813-8.697v22.468c0 4.831 8.697 9.663 22.709 13.774 15.947 4.586 37.928 7.482 62.33 7.482 24.403 0 46.384-2.896 62.33-7.482 14.013-4.111 22.711-8.943 22.711-13.774zm0-37.445h10.146v37.445c0 9.904-11.357 18.119-29.959 23.679-16.907 4.827-39.858 7.973-65.227 7.973s-48.318-3.146-65.227-7.973c-18.602-5.56-29.958-13.774-29.958-23.679v-37.445h10.146c0 4.591 8.697 9.663 22.709 13.771 15.947 4.59 37.928 7.486 62.33 7.486 24.403 0 46.384-2.896 62.33-7.486 14.012-4.108 22.71-9.18 22.71-13.771z" fill="#fbb615"/>
    <path d="m574.95 907.8c25.368 0 48.319 2.9 65.227 7.732 18.602 5.555 29.959 13.77 29.959 23.674s-11.357 18.119-29.959 23.675c-16.907 4.831-39.858 7.732-65.227 7.732s-48.318-2.901-65.227-7.732c-18.602-5.556-29.958-13.771-29.958-23.675s11.356-18.119 29.958-23.674c16.909-4.832 39.859-7.732 65.227-7.732zm62.33 17.637c-15.946-4.591-37.927-7.491-62.33-7.491-24.402 0-46.383 2.9-62.33 7.491-14.012 4.107-22.709 8.938-22.709 13.77 0 4.591 8.697 9.663 22.709 13.771 15.947 4.59 37.928 7.486 62.33 7.486 24.403 0 46.384-2.896 62.33-7.486 14.012-4.107 22.71-9.18 22.71-13.771 0-4.832-8.698-9.663-22.71-13.77z" fill="#fcc326"/>
    <g clip-rule="evenodd" fill-rule="evenodd">
     <path d="m637.28 925.44c-15.946-4.591-37.927-7.491-62.33-7.491-24.402 0-46.383 2.9-62.33 7.491-14.012 4.107-22.709 8.938-22.709 13.77 0 4.591 8.697 9.663 22.709 13.771 15.947 4.59 37.928 7.486 62.33 7.486 24.403 0 46.384-2.896 62.33-7.486 14.012-4.107 22.71-9.18 22.71-13.771 0-4.832-8.698-9.663-22.71-13.77z" fill="#ffda63"/>
     <g fill="#fcc326">
      <path d="m619.89 994.29c6.279-0.965 12.076-2.413 17.395-3.861l0.966-0.241v-20.537c-5.556 1.448-11.594 2.655-18.36 3.866v20.773z"/>
      <path d="m535.09 974.24c-6.521-0.97-12.805-2.177-18.602-3.383v20.536c5.556 1.448 11.839 2.896 18.602 3.862z"/>
      <path d="m503.68 966.99c-5.314-1.931-9.904-4.107-13.771-6.525v16.188c0 3.624 5.073 7.49 13.771 10.869z"/>
     </g>
     <path d="m574.95 925.2c24.403 0 46.384 2.896 62.33 7.487 10.388 2.9 17.878 6.524 21.016 10.149 0.97-1.211 1.694-2.418 1.694-3.625 0-4.831-8.698-9.662-22.71-13.77-15.946-4.591-37.927-7.491-62.33-7.491-24.402 0-46.383 2.9-62.33 7.491-14.012 4.107-22.709 8.938-22.709 13.77 0 1.207 0.725 2.414 1.693 3.625 3.138-3.625 10.629-7.249 21.016-10.149 15.947-4.59 37.928-7.487 62.33-7.487z" fill="#fbb615"/>
     <path d="m532.92 1134.2v-37.453c0 14.498-40.346 26.333-90.112 26.333s-90.112-11.835-90.112-26.333v37.453c0 14.731 40.346 26.325 90.112 26.325s90.112-11.594 90.112-26.325z" fill="#fbb615"/>
    </g>
    <path d="m527.84 1134.2v-22.473c-5.077 3.38-11.839 6.284-19.813 8.456-16.667 5.077-39.862 7.974-65.227 7.974-25.368 0-48.318-2.896-64.989-7.974-8.215-2.172-14.736-5.076-19.809-8.456v22.473c0 4.827 8.697 9.662 22.468 13.766 15.942 4.594 37.927 7.49 62.33 7.49 24.398 0 46.625-2.896 62.326-7.49 14.017-4.104 22.714-8.939 22.714-13.766zm0-37.453h10.387v37.453c0 9.903-11.598 18.11-30.199 23.67-16.667 4.836-39.862 7.974-65.227 7.974-25.368 0-48.318-3.138-64.989-7.974-18.602-5.56-30.196-13.767-30.196-23.67v-37.453h10.388c0 4.594 8.697 9.662 22.468 13.774 15.942 4.586 37.927 7.49 62.33 7.49 24.398 0 46.625-2.904 62.326-7.49 14.015-4.112 22.712-9.18 22.712-13.774z" fill="#fbb615"/>
    <path d="m442.8 1065.1c25.364 0 48.56 3.138 65.227 7.974 18.602 5.552 30.199 13.767 30.199 23.671s-11.598 18.118-30.199 23.437c-16.667 5.077-39.862 7.974-65.227 7.974-25.368 0-48.318-2.896-64.989-7.974-18.602-5.318-30.196-13.532-30.196-23.437s11.595-18.119 30.196-23.671c16.67-4.836 39.621-7.974 64.989-7.974zm62.326 17.878c-15.701-4.594-37.928-7.49-62.326-7.49-24.403 0-46.388 2.896-62.33 7.49-13.771 4.104-22.468 8.938-22.468 13.767 0 4.594 8.697 9.662 22.468 13.774 15.942 4.586 37.927 7.49 62.33 7.49 24.398 0 46.625-2.904 62.326-7.49 14.016-4.112 22.713-9.181 22.713-13.774 0-4.828-8.697-9.663-22.713-13.767z" fill="#fcc326"/>
    <g clip-rule="evenodd" fill-rule="evenodd">
     <path d="m505.13 1083c-15.701-4.594-37.928-7.49-62.326-7.49-24.403 0-46.388 2.896-62.33 7.49-13.771 4.104-22.468 8.938-22.468 13.767 0 4.594 8.697 9.662 22.468 13.774 15.942 4.586 37.927 7.49 62.33 7.49 24.398 0 46.625-2.904 62.326-7.49 14.016-4.112 22.713-9.181 22.713-13.774 0-4.828-8.697-9.663-22.713-13.767z" fill="#ffda63"/>
     <g fill="#fcc326">
      <path d="m487.74 1151.8c6.279-0.965 12.321-2.413 17.391-3.861l1.211-0.241v-20.774c-5.556 1.689-11.84 2.896-18.602 4.104z"/>
      <path d="m402.94 1131.7c-6.525-0.965-12.806-2.172-18.36-3.379v20.533c5.555 1.448 11.594 2.896 18.36 3.87z"/>
      <path d="m371.78 1124.5c-5.555-1.931-10.146-4.103-13.77-6.517v16.188c0 3.62 5.072 7.481 13.77 10.869z"/>
     </g>
     <path d="m442.8 1082.7c24.398 0 46.625 2.896 62.326 7.49 10.632 2.896 18.119 6.518 21.02 10.146 1.211-1.206 1.693-2.413 1.693-3.628 0-4.828-8.697-9.663-22.713-13.767-15.701-4.594-37.928-7.49-62.326-7.49-24.403 0-46.388 2.896-62.33 7.49-13.771 4.104-22.468 8.938-22.468 13.767 0 1.215 0.482 2.422 1.448 3.628 3.142-3.628 10.628-7.249 21.02-10.146 15.942-4.594 37.926-7.49 62.33-7.49z" fill="#fbb615"/>
     <path d="m397.38 1046s25.852-153.9 127.8-209.7l-25.609-0.724s44.211-25.368 105.09-24.64c-3.62 13.766-8.938 35.269-7.486 52.905-10.874-7.245-23.191-13.288-32.372-15.46-0.482-0.241-0.724-0.483-1.207-0.483 0 0-0.728 0.242-1.935 0.724-15.943 6.039-113.55 48.074-164.28 197.38z" fill="#0a6e9d"/>
    </g>
   </g>
  </g>
 </g>
</svg>
