<?xml version="1.0" encoding="UTF-8"?>
<svg width="63.216mm" height="114.74mm" version="1.1" viewBox="0 0 63.216 114.74" xmlns="http://www.w3.org/2000/svg" xmlns:cc="http://creativecommons.org/ns#" xmlns:dc="http://purl.org/dc/elements/1.1/" xmlns:rdf="http://www.w3.org/1999/02/22-rdf-syntax-ns#">
 <metadata>
  <rdf:RDF>
   <cc:Work rdf:about="">
    <dc:format>image/svg+xml</dc:format>
    <dc:type rdf:resource="http://purl.org/dc/dcmitype/StillImage"/>
    <dc:title/>
   </cc:Work>
  </rdf:RDF>
 </metadata>
 <g transform="translate(-431.53 -211.03)">
  <g id="XMLID_621_" transform="matrix(.26458 0 0 .26458 245.82 35.534)">
   <g transform="translate(-601.7 -684.44)">
    <g clip-rule="evenodd" fill-rule="evenodd">
     <path d="m1490.8 1493.4v207.28c0 3.146-2.654 5.801-5.551 5.801h-124.66c-2.896 0-5.556-2.654-5.556-5.801v-207.28h-41.552c-2.177 0-4.107-1.206-5.077-3.138-0.965-2.172-0.724-4.353 0.729-6.042l109.44-134.56c1.198-1.207 2.654-1.932 4.345-1.932 1.689 0 3.138 0.725 4.344 1.932l109.45 134.56c1.448 1.689 1.689 3.87 0.725 6.042-0.974 1.932-2.664 3.138-5.077 3.138z" fill="#1582b6"/>
     <path d="m1490.8 1493.4h41.557c2.413 0 4.104-1.206 5.077-3.138 0.965-2.172 0.724-4.353-0.725-6.042l-109.45-134.56c-1.206-1.207-2.654-1.932-4.344-1.932s-3.146 0.725-4.345 1.932l-1.457 1.938 101.23 124.41c1.448 1.698 1.689 3.87 0.725 6.042-0.974 1.932-2.905 3.139-5.077 3.139h-41.557v207.28c0 3.146-2.654 5.802-5.792 5.802h-111.62v2.413c0 3.146 2.659 5.801 5.556 5.801h124.66c2.896 0 5.551-2.654 5.551-5.801z" fill="#0a6e9d"/>
     <path d="m1422.9 1542.5c58.46 0 107.26 42.031 117.41 97.604h2.172v21.739c0 65.95-53.633 119.58-119.58 119.58-65.955 0-119.34-53.633-119.34-119.58v-21.739h1.931c10.146-55.573 58.947-97.604 117.41-97.604z" fill="#e4a525"/>
     <path d="m1422.9 1759.4c65.709 0 119.58-53.633 119.58-119.34 0-65.959-53.874-119.59-119.58-119.59-65.714 0-119.34 53.633-119.34 119.59 0 65.71 53.629 119.34 119.34 119.34z" fill="#ffda63"/>
     <path d="m1422.9 1744.7c57.735 0 104.6-47.107 104.6-104.6 0-57.745-46.866-104.61-104.6-104.61-57.74 0-104.61 46.866-104.61 104.61-1e-3 57.495 46.866 104.6 104.61 104.6z" fill="#fcc326"/>
     <path d="m1422.9 1547c55.805 0 101.46 43.729 104.6 98.81v-5.792c0-24.645-8.447-47.116-22.463-64.994-19.326-24.153-48.798-39.617-82.139-39.617-33.342 0-62.813 15.464-81.897 39.617-14.258 17.878-22.709 40.35-22.709 64.994 0 1.931 0 3.861 0.241 5.792 2.9-55.081 48.559-98.81 104.36-98.81z" fill="#fbb615"/>
    </g>
    <path d="m1417.8 1704.8c-4.345-0.241-8.939-0.482-14.008-1.206-4.836-0.725-9.18-1.939-13.287-3.388s-7.732-3.379-10.392-5.552c-2.896-2.181-4.104-5.077-4.104-8.215 0-1.206 0.242-2.422 0.725-3.87s1.448-2.654 2.413-3.861c1.207-1.207 2.659-2.173 4.591-3.146 1.693-0.724 3.865-0.965 6.279-0.965 2.177 0 4.353 0.241 6.284 0.732 1.931 0.724 4.107 1.206 6.283 1.931 2.173 0.724 4.345 1.448 6.759 2.172 2.422 0.725 5.318 0.966 8.456 1.207v-28.265c-5.069-1.689-9.904-3.138-14.974-4.836-4.835-1.689-9.421-4.103-13.291-6.758-3.862-2.663-7.245-6.042-9.663-10.146-2.414-4.111-3.862-9.422-3.862-15.705 0-10.87 3.862-19.567 11.353-25.61 7.25-6.283 17.396-9.662 30.438-10.387v-9.421c0-1.448 0.482-2.664 1.448-3.629 0.965-0.966 2.181-1.448 3.629-1.448 1.689 0 2.896 0.482 3.861 1.448 0.966 0.965 1.448 2.181 1.448 3.629v9.421c3.629 0.241 7.49 0.725 11.603 1.207 4.103 0.724 7.973 1.448 11.594 2.896 3.387 1.207 6.524 3.146 8.938 5.077 2.414 2.172 3.62 4.827 3.62 7.973 0 3.138-1.206 6.034-3.861 8.215-2.655 2.414-6.043 3.621-10.146 3.621-1.932 0-3.621-0.242-4.836-0.725-1.448-0.482-2.896-0.966-4.345-1.448-1.689-0.482-3.379-0.965-5.318-1.448-1.931-0.482-4.345-0.965-7.249-1.215v26.575c5.318 1.697 10.396 3.387 15.464 5.077 5.077 1.689 9.422 3.861 13.292 6.524 3.861 2.414 6.999 5.793 9.421 9.663 2.414 3.862 3.38 8.938 3.38 14.973 0 5.802-0.966 10.879-3.138 15.464-1.932 4.354-4.836 8.215-8.698 11.595-3.62 3.146-7.973 5.801-13.05 7.731-5.068 1.939-10.629 3.146-16.671 3.629v9.663c0 1.448-0.482 2.655-1.448 3.62-0.966 0.966-2.172 1.448-3.861 1.448-1.448 0-2.664-0.482-3.629-1.448-0.966-0.965-1.448-2.172-1.448-3.62zm22.954-37.203c0-3.388-0.965-5.801-2.896-7.249-1.697-1.448-3.629-2.414-5.56-3.379l-4.111-1.457v24.645c4.111-0.966 7.008-2.173 9.188-4.345 2.172-2.181 3.379-4.836 3.379-8.215zm-22.954-41.557v-22.704c-3.621 0.482-6.525 1.448-8.939 3.138-2.413 1.448-3.62 4.103-3.62 7.49 0 3.138 0.724 5.552 2.655 7 1.931 1.456 3.87 2.663 5.801 3.387z" fill="#e4a525"/>
    <path d="m1417.8 1699c-4.345-0.241-8.939-0.482-14.008-1.207-4.836-0.724-9.18-1.931-13.287-3.379-4.107-1.456-7.732-3.388-10.392-5.56-2.896-2.173-4.104-4.836-4.104-8.215 0-1.207 0.242-2.414 0.725-3.861 0.482-1.448 1.448-2.664 2.413-3.871 1.207-1.206 2.659-2.172 4.591-2.896 1.693-0.966 3.865-1.207 6.279-1.207 2.177 0 4.353 0.241 6.284 0.724 1.931 0.725 4.107 1.207 6.283 1.932 2.173 0.724 4.345 1.447 6.759 2.172 2.422 0.724 5.318 1.207 8.456 1.207v-28.265c-5.069-1.448-9.904-3.138-14.974-4.827-4.835-1.689-9.421-4.112-13.291-6.767-3.862-2.655-7.245-6.043-9.663-10.146-2.414-4.112-3.862-9.422-3.862-15.706 0-10.869 3.862-19.566 11.353-25.609 7.25-6.275 17.396-9.663 30.438-10.387v-9.422c0-1.448 0.482-2.654 1.448-3.62 0.965-0.966 2.181-1.448 3.629-1.448 1.689 0 2.896 0.482 3.861 1.448s1.448 2.172 1.448 3.62v9.422c3.629 0.241 7.49 0.724 11.603 1.207 4.103 0.724 7.973 1.697 11.594 2.904 3.387 1.448 6.524 3.138 8.938 5.068 2.414 2.173 3.62 4.836 3.62 7.974 0 3.379-1.206 6.043-3.861 8.456-2.655 2.173-6.043 3.379-10.146 3.379-1.932 0-3.621-0.241-4.836-0.724-1.448-0.482-2.896-0.966-4.345-1.448-1.689-0.482-3.379-0.966-5.318-1.448-1.931-0.482-4.345-0.966-7.249-1.207v26.575c5.318 1.689 10.396 3.379 15.464 5.068 5.077 1.698 9.422 3.87 13.292 6.525 3.861 2.655 6.999 5.801 9.421 9.663 2.414 4.111 3.38 8.938 3.38 14.981 0 5.792-0.966 10.869-3.138 15.455-1.932 4.354-4.836 8.215-8.698 11.603-3.62 3.138-7.973 5.793-13.05 7.731-5.068 1.932-10.629 3.138-16.671 3.621v9.904c0 1.206-0.482 2.413-1.448 3.387-0.966 0.966-2.172 1.448-3.861 1.448-1.448 0-2.664-0.482-3.629-1.448-0.966-0.974-1.448-2.181-1.448-3.387zm22.954-36.962c0-3.62-0.965-6.043-2.896-7.49-1.697-1.448-3.629-2.414-5.56-3.139l-4.111-1.689v24.636c4.111-0.724 7.008-2.172 9.188-4.344 2.172-2.173 3.379-4.836 3.379-7.974zm-22.954-41.798v-22.705c-3.621 0.483-6.525 1.448-8.939 3.138-2.413 1.448-3.62 4.112-3.62 7.491s0.724 5.56 2.655 7.008 3.87 2.655 5.801 3.379z" fill="#ffda63"/>
   </g>
  </g>
 </g>
</svg>
