<?xml version="1.0" encoding="UTF-8"?>
<svg width="115.51mm" height="102.73mm" version="1.1" viewBox="0 0 115.51 102.73" xmlns="http://www.w3.org/2000/svg" xmlns:cc="http://creativecommons.org/ns#" xmlns:dc="http://purl.org/dc/elements/1.1/" xmlns:rdf="http://www.w3.org/1999/02/22-rdf-syntax-ns#">
 <metadata>
  <rdf:RDF>
   <cc:Work rdf:about="">
    <dc:format>image/svg+xml</dc:format>
    <dc:type rdf:resource="http://purl.org/dc/dcmitype/StillImage"/>
    <dc:title/>
   </cc:Work>
  </rdf:RDF>
 </metadata>
 <g transform="translate(-321.51 -155.5)">
  <g id="XMLID_621_" transform="matrix(.26458 0 0 .26458 245.82 35.534)">
   <g transform="translate(-918.5 242.65)">
    <g clip-rule="evenodd" fill-rule="evenodd">
     <path d="m1552.9 425.11s-18.36-29.23-19.325-33.1c-1.207-4.104 7.249-4.104 17.636-1.448 10.387 2.9 10.87-10.387 18.602-8.698 7.732 1.694 8.215 9.18 18.602 8.215 10.146-0.965 19.817-0.724 18.603 5.801-1.207 6.521-20.292 23.674-19.326 30.678 0.966 6.767 34.79 18.119 47.357 68.614 12.56 50.487 5.31 70.299-17.162 75.614-22.463 5.318-95.181 6.042-108.46-10.628-13.051-16.912-14.257-40.104 1.207-75.376 15.694-35.274 42.27-59.672 42.27-59.672z" fill="#fcc326"/>
     <path d="m1572.2 382.83c5.56 2.417 7.008 8.214 16.188 7.249 10.146-0.965 19.817-0.724 18.603 5.801-1.207 6.521-20.292 23.674-19.326 30.678 0.966 6.767 34.79 18.119 47.357 68.614 12.56 50.487 5.31 70.299-17.162 75.614-8.206 1.931-22.946 3.142-39.134 3.383 16.671-5.073 26.574-8.698 36.962-28.51 10.628-20.05-3.379-75.614-22.946-93.008-19.326-17.395-18.36-35.272-16.912-49.284 1.206-13.771-3.63-20.537-3.63-20.537z" fill="#e4a525"/>
     <path d="m1536.7 388.87c3.379-0.483 8.689 0.241 14.49 1.689 0.966 0.482 1.931 0.482 2.905 0.482 12.559 44.694 14.731 27.541 11.11 37.932-3.629 11.111-17.877 23.675-17.877 20.533s11.353-13.77 10.628-23.674c-0.723-9.904-21.256-36.962-21.256-36.962z" fill="#e4a525"/>
    </g>
    <g fill="#5e461b">
     <path d="m1547.8 431.88c-2.172-0.246-3.87-1.935-3.87-4.112 0-2.172 1.698-4.103 3.87-4.103 0.241 0 34.549 0.483 42.039-0.241 2.172 0 4.104 1.448 4.345 3.62 0.241 2.418-1.448 4.349-3.629 4.349-7.724 0.97-42.514 0.487-42.755 0.487z"/>
     <path d="m1586.7 417.38c2.173-0.483 4.354 0.965 4.595 3.142 0.482 2.177-0.966 4.107-3.146 4.59 0 0-25.851 5.314-38.651 5.314-2.172 0-3.861-1.689-3.861-3.866-0.25-2.172 1.689-4.107 3.861-4.107 12.075-0.242 37.202-5.073 37.202-5.073z"/>
     <path d="m1573.2 429.94c-0.974-1.935-0.241-4.59 1.689-5.556 1.931-1.207 4.345-0.483 5.311 1.448 0.241 0 4.835 7.732-2.655 23.433-0.966 2.176-3.379 2.9-5.318 1.935-2.173-0.724-2.896-3.142-1.931-5.318 5.56-11.835 2.904-15.942 2.904-15.942z"/>
     <path d="m1579 432.36c-1.689-1.211-2.173-3.866-0.725-5.56 1.448-1.689 3.87-2.172 5.802-0.724 0 0 15.946 12.563 16.912 30.683 0.241 2.176-1.457 4.107-3.87 4.349-2.173 0-4.104-1.689-4.104-3.866-0.965-14.495-14.015-24.882-14.015-24.882z"/>
    </g>
    <path d="m1567.6 536c-2.172-0.241-4.353-0.241-6.767-0.724-2.414-0.242-4.586-0.724-6.758-1.69-1.939-0.724-3.629-1.689-5.077-2.655-1.448-1.211-1.931-2.418-1.931-4.112 0-0.482 0-1.207 0.241-1.931s0.724-1.207 1.206-1.931c0.725-0.482 1.448-0.965 2.414-1.452 0.725-0.241 1.931-0.483 3.146-0.483 0.965 0 1.931 0 2.896 0.483 0.966 0.241 2.173 0.487 3.139 0.729 0.965 0.482 2.172 0.724 3.387 1.207 1.207 0.241 2.655 0.483 4.104 0.483v-14.012c-2.414-0.729-4.836-1.452-7.249-2.418-2.414-0.724-4.827-1.931-6.759-3.138-1.938-1.452-3.387-3.142-4.594-5.077-1.207-2.172-1.931-4.832-1.931-7.974 0-5.31 1.931-9.421 5.551-12.559 3.629-3.142 8.697-4.832 14.981-5.073v-4.832c0-0.724 0.241-1.211 0.724-1.694 0.483-0.482 1.207-0.724 1.932-0.724 0.724 0 1.448 0.242 1.931 0.724 0.482 0.483 0.732 0.97 0.732 1.694v4.832c1.689 0 3.62 0.241 5.552 0.482 2.172 0.242 4.111 0.724 5.801 1.448s3.379 1.453 4.586 2.659c1.207 0.965 1.689 2.172 1.689 3.862 0 1.694-0.716 2.9-1.931 4.112-1.207 1.207-2.896 1.689-5.069 1.689-0.724 0-1.689 0-2.422-0.242-0.724-0.241-1.448-0.482-2.172-0.724-0.725-0.242-1.448-0.483-2.414-0.724-0.965-0.242-2.172-0.487-3.62-0.729v13.288c2.655 0.724 5.068 1.689 7.724 2.418 2.422 0.965 4.594 1.931 6.525 3.142 1.931 1.448 3.379 2.896 4.594 4.827 1.207 2.177 1.689 4.594 1.689 7.491 0 2.901-0.482 5.318-1.448 7.732-1.206 2.172-2.663 4.107-4.353 5.556-1.931 1.694-4.104 2.9-6.525 3.866-2.654 0.965-5.31 1.689-8.206 1.931v4.835c0 0.724-0.25 1.207-0.732 1.69-0.482 0.482-1.207 0.724-1.931 0.724-0.725 0-1.448-0.242-1.932-0.724-0.482-0.483-0.724-0.966-0.724-1.69v-4.592zm11.352-18.36c0-1.69-0.482-2.896-1.207-3.621-0.966-0.724-1.931-1.453-2.896-1.694l-1.931-0.724v12.081c1.931-0.241 3.379-0.965 4.586-2.176 0.966-0.966 1.448-2.173 1.448-3.866zm-11.352-20.775v-11.115c-1.689 0.246-3.138 0.729-4.353 1.453-1.207 0.724-1.932 1.931-1.932 3.621 0 1.693 0.483 2.9 1.448 3.625 0.966 0.728 1.939 1.211 2.905 1.693z" fill="#fff"/>
    <g clip-rule="evenodd" fill-rule="evenodd">
     <path d="m1551.2 361.09v207.52c0 2.896-2.655 5.556-5.801 5.556h-124.41c-3.146 0-5.56-2.659-5.56-5.556v-207.52h-41.793c-2.177 0-4.107-1.207-5.073-3.142-0.724-1.935-0.482-4.349 0.725-6.039l109.68-134.32c0.966-1.448 2.663-2.172 4.353-2.172s3.138 0.724 4.345 2.172l109.44 134.32c1.448 1.689 1.697 4.104 0.724 6.039-0.966 1.935-2.896 3.142-5.068 3.142z" fill="#1582b6"/>
     <path d="m1551.2 361.09h41.557c2.172 0 4.103-1.207 5.068-3.142 0.974-1.935 0.725-4.349-0.724-6.039l-109.44-134.32c-1.207-1.448-2.654-2.172-4.345-2.172-1.689 0-3.387 0.724-4.353 2.172l-1.448 1.689 101.22 124.42c1.448 1.689 1.689 4.107 0.724 6.038-0.965 1.935-2.896 3.142-5.068 3.142h-41.798v207.52c0 2.896-2.414 5.556-5.56 5.556h-111.61v2.659c0 2.896 2.414 5.556 5.56 5.556h124.41c3.146 0 5.801-2.659 5.801-5.556v-207.52z" fill="#0a6e9d"/>
     <path d="m1312.8 298.28s-36.967-58.947-39.139-67.162c-2.177-7.973 14.977-8.215 35.996-2.659 21.02 5.801 21.744-20.774 37.204-17.395 15.701 3.142 16.912 18.36 37.689 16.43 20.774-1.931 39.858-1.448 37.445 11.598-2.414 13.046-40.587 47.832-38.656 61.843 1.936 13.774 70.3 36.721 95.668 138.67 25.368 101.95 10.628 142.05-35.031 152.68-45.418 10.387-191.82 12.322-218.63-21.502-26.816-34.062-29.23-80.932 2.417-152.2 31.649-71.265 85.041-120.31 85.041-120.31z" fill="#fcc326"/>
     <path d="m1352.1 212.76c10.87 5.073 14.012 16.425 32.376 14.736 20.774-1.931 39.858-1.448 37.445 11.598-2.414 13.046-40.587 47.832-38.656 61.843 1.936 13.774 70.3 36.721 95.668 138.67 25.368 101.95 10.628 142.05-35.031 152.68-16.421 3.866-46.142 6.521-78.755 6.763 33.578-10.387 53.628-17.636 74.652-57.736 21.256-40.104-7.009-152.68-46.384-187.72-39.139-34.79-36.967-71.269-34.308-99.292 2.656-27.783-7.007-41.553-7.007-41.553z" fill="#e4a525"/>
     <path d="m1280.4 224.84c6.524-0.969 17.153 0.483 29.233 3.621 1.932 0.724 3.866 0.965 5.556 0.965 25.368 90.354 29.713 55.81 22.709 76.587-7.245 22.464-35.996 47.59-35.996 41.552 0-6.284 22.95-27.786 21.261-47.836-1.449-20.049-42.763-74.647-42.763-74.889z" fill="#e4a525"/>
    </g>
    <g fill="#5e461b">
     <path d="m1302.9 311.56c-4.59 0-8.21-3.625-8.21-8.215 0-4.349 3.861-7.973 8.21-7.973 0.242 0 69.821 0.97 84.557-0.483 4.591-0.482 8.456 2.901 8.939 7.25 0.482 4.59-2.896 8.452-7.25 8.935-15.943 1.452-86.246 0.486-86.246 0.486z"/>
     <path d="m1381.1 282.33c4.349-0.724 8.693 1.936 9.422 6.525 0.965 4.349-1.936 8.456-6.284 9.421 0 0-52.422 10.387-78.031 10.628-4.59 0-8.215-3.625-8.215-7.973 0-4.586 3.625-8.215 7.974-8.215 24.156-0.24 74.889-10.386 75.134-10.386z"/>
     <path d="m1354.1 307.7c-2.177-3.866-0.729-8.939 3.138-11.111 3.866-2.176 8.938-0.728 11.115 3.138 0 0 9.18 15.464-5.801 47.349-1.932 4.111-6.763 5.801-10.629 3.87-4.107-1.935-5.797-6.767-4.107-10.632 11.357-24.158 6.284-32.614 6.284-32.614z"/>
     <path d="m1365.4 312.77c-3.384-2.659-4.107-7.732-1.207-11.357 2.659-3.379 7.728-4.103 11.356-1.207 0 0 32.368 25.368 34.549 61.848 0.232 4.59-3.388 8.456-7.736 8.697-4.59 0.241-8.452-3.383-8.693-7.732-1.453-29.229-28.028-50.007-28.269-50.249z"/>
    </g>
    <path d="m1342.7 521.99c-4.349-0.246-8.939-0.728-13.771-1.211-4.831-0.724-9.422-1.931-13.529-3.383-4.107-1.689-7.49-3.379-10.387-5.556-2.659-2.417-4.107-5.073-4.107-8.214 0-1.207 0.241-2.655 0.966-3.866 0.482-1.448 1.207-2.896 2.418-4.103 1.206-0.97 2.654-2.176 4.586-2.9 1.693-0.724 3.87-0.966 6.283-0.966 2.173 0 4.107 0.242 6.284 0.724 1.931 0.483 3.861 1.207 6.038 1.931 2.172 0.728 4.59 1.452 7.004 2.176 2.418 0.724 5.077 0.965 8.215 1.207v-28.506c-4.832-1.448-9.663-2.9-14.736-4.835-5.072-1.689-9.421-3.862-13.528-6.521-3.866-2.659-7.008-6.28-9.422-10.387-2.659-4.107-3.866-9.18-3.866-15.46 0-11.115 3.625-19.571 11.115-25.851 7.486-6.042 17.633-9.663 30.438-10.146v-9.667c0-1.207 0.482-2.414 1.689-3.383 0.97-0.965 2.176-1.448 3.624-1.448 1.453 0 2.659 0.483 3.866 1.448 0.966 0.97 1.448 2.176 1.448 3.383v9.667c3.384 0.241 7.249 0.724 11.356 1.207 4.107 0.482 7.974 1.448 11.599 2.896 3.62 1.211 6.762 2.901 9.18 5.077 2.414 2.172 3.62 4.827 3.62 7.969s-1.448 6.038-4.103 8.215c-2.659 2.417-5.802 3.383-9.908 3.383-1.932 0-3.625-0.241-5.073-0.482-1.448-0.483-2.896-0.965-4.349-1.448-1.448-0.487-3.142-0.97-5.073-1.694-1.931-0.482-4.349-0.724-7.249-0.965v26.575c5.318 1.689 10.392 3.383 15.464 5.073 4.832 1.689 9.422 3.866 13.288 6.279 3.865 2.659 7.003 6.039 9.18 9.909 2.418 3.862 3.625 8.939 3.625 14.977 0 5.797-0.966 10.87-3.143 15.218-2.176 4.59-5.072 8.456-8.697 11.598-3.624 3.383-8.215 6.038-13.287 7.969-5.073 1.935-10.387 3.142-16.43 3.625v9.667c0 1.448-0.482 2.655-1.448 3.621-1.207 0.965-2.413 1.448-3.866 1.448-1.448 0-2.654-0.483-3.624-1.448-1.207-0.965-1.689-2.172-1.689-3.621v-9.181zm22.95-37.207c0-3.383-0.966-5.797-2.659-7.245-1.931-1.452-3.62-2.659-5.552-3.383l-4.111-1.452v24.403c3.866-0.724 7.008-2.172 9.181-4.107 2.175-2.178 3.141-4.833 3.141-8.216zm-22.95-41.552v-22.709c-3.38 0.483-6.521 1.448-8.939 3.142-2.413 1.448-3.624 3.862-3.624 7.486 0 3.142 0.97 5.556 2.9 7.008 1.931 1.448 3.866 2.659 5.556 3.383z" fill="#fff"/>
   </g>
  </g>
 </g>
</svg>
