<?xml version="1.0" encoding="UTF-8"?>
<svg width="97.278mm" height="97.284mm" version="1.1" viewBox="0 0 97.278 97.284" xmlns="http://www.w3.org/2000/svg" xmlns:cc="http://creativecommons.org/ns#" xmlns:dc="http://purl.org/dc/elements/1.1/" xmlns:rdf="http://www.w3.org/1999/02/22-rdf-syntax-ns#">
 <metadata>
  <rdf:RDF>
   <cc:Work rdf:about="">
    <dc:format>image/svg+xml</dc:format>
    <dc:type rdf:resource="http://purl.org/dc/dcmitype/StillImage"/>
    <dc:title/>
   </cc:Work>
  </rdf:RDF>
 </metadata>
 <g transform="translate(-328.08 -158.49)">
  <g id="XMLID_621_" transform="matrix(.26458 0 0 .26458 245.82 35.534)">
   <g transform="translate(-1756.5 243.71)">
    <path d="m2251.1 556.09c83.146 0 150.7-67.844 150.7-150.98 0-83.146-67.551-150.98-150.7-150.98-83.146 0-150.98 67.839-150.98 150.98-1e-3 83.141 67.838 150.98 150.98 150.98z" clip-rule="evenodd" fill="#ffda63" fill-rule="evenodd"/>
    <path d="m2251.1 531.83c69.569 0 126.45-56.875 126.45-126.73 0-69.869-56.879-126.74-126.45-126.74-69.868 0-126.74 56.869-126.74 126.74 0 69.858 56.869 126.73 126.74 126.73z" clip-rule="evenodd" fill="#fcc326" fill-rule="evenodd"/>
    <path d="m2244.7 482.47c-5.191 0-10.681-0.577-16.45-1.441-5.778-0.865-11.269-2.313-16.171-4.043-4.903-1.736-8.952-4.043-12.413-6.639-3.172-2.601-4.902-5.778-4.902-9.528 0-1.73 0.277-3.177 1.152-4.908 0.578-1.736 1.443-3.177 2.885-4.62 1.443-1.442 3.174-2.596 5.48-3.461 2.028-0.87 4.625-1.447 7.508-1.447 2.597 0 5.192 0.289 7.51 0.865 2.307 0.871 4.614 1.447 7.211 2.312 2.605 0.866 5.489 1.731 8.374 2.596s6.067 1.442 9.816 1.442v-33.775c-5.769-1.731-11.547-3.75-17.614-5.774-6.057-2.019-11.258-4.62-15.873-8.081-4.903-3.177-8.662-7.22-11.547-12.124-3.172-4.913-4.625-11.263-4.625-18.767 0-12.989 4.337-23.382 13.287-30.603 8.952-7.503 21.076-11.546 36.372-12.412v-11.258c0-1.73 0.577-3.177 2.019-4.332 1.154-1.154 2.606-1.73 4.337-1.73s3.173 0.577 4.614 1.73c1.154 1.154 1.73 2.601 1.73 4.332v11.258c4.336 0.289 8.664 0.866 13.576 1.442 5.192 0.865 9.518 2.02 13.854 3.467 4.326 1.73 8.086 3.754 10.97 6.062 2.885 2.596 4.327 5.773 4.327 9.528 0 4.038-1.731 7.216-4.904 10.104-3.173 2.596-6.932 4.039-11.835 4.039-2.317 0-4.336-0.289-6.067-0.865-1.73-0.577-3.461-1.154-5.191-1.731-1.74-0.577-3.759-1.153-6.065-1.73-2.309-0.577-5.192-1.159-8.664-1.447v31.757c6.355 2.023 12.413 4.042 18.479 6.062 6.067 2.023 11.26 4.619 15.875 7.797 4.624 3.173 8.374 6.927 10.979 11.547 2.884 4.908 4.326 10.682 4.326 18.186 0 6.639-1.154 12.706-3.75 18.186-2.605 5.201-6.066 9.816-10.393 13.859-4.337 3.755-9.816 6.927-15.884 9.239-6.057 2.308-12.412 3.755-19.633 4.332v11.835c0 1.442-0.576 2.885-1.73 4.043-1.441 1.154-2.884 1.731-4.614 1.731s-3.183-0.577-4.337-1.731c-1.441-1.158-2.019-2.601-2.019-4.043zm27.43-44.169c0-4.331-1.153-7.22-3.183-8.951-2.307-1.73-4.326-2.884-6.634-3.754l-4.913-2.02v29.444c4.625-0.865 8.374-2.596 10.971-5.192 2.606-2.599 3.759-5.777 3.759-9.527zm-27.43-49.946v-27.137c-4.038 0.582-7.798 1.736-10.681 3.754-2.885 1.731-4.328 4.909-4.328 8.951 0 4.038 1.154 6.639 3.462 8.369 2.307 2.024 4.615 3.178 6.644 4.043z" fill="#e4a525"/>
    <path d="m2244.7 475.54c-5.191 0-10.681-0.577-16.45-1.442-5.778-0.865-11.269-2.019-16.171-4.038-4.903-1.736-8.952-4.043-12.413-6.644-3.172-2.596-4.902-5.773-4.902-9.528 0-1.73 0.277-3.173 1.152-4.903 0.578-1.736 1.443-3.178 2.885-4.62 1.443-1.447 3.174-2.601 5.48-3.466 2.028-0.865 4.625-1.442 7.508-1.442 2.597 0 5.192 0.288 7.51 1.153 2.307 0.577 4.614 1.442 7.211 2.02 2.605 0.865 5.489 1.735 8.374 2.601s6.067 1.442 9.816 1.442v-33.775c-5.769-1.736-11.547-3.755-17.614-5.773-6.057-2.019-11.258-4.62-15.873-8.086-4.903-3.172-8.662-7.215-11.547-12.124-3.172-4.908-4.625-11.259-4.625-18.768 0-12.989 4.337-23.093 13.287-30.598 8.952-7.503 21.076-11.546 36.372-12.417v-11.258c0-1.73 0.577-3.172 2.019-4.327 1.154-0.865 2.606-1.441 4.337-1.441s3.173 0.576 4.614 1.441c1.154 1.154 1.73 2.596 1.73 4.327v11.258c4.336 0.293 8.664 0.871 13.576 1.447 5.192 0.865 9.518 2.019 13.854 3.466 4.326 1.73 8.086 3.75 10.97 6.062 2.885 2.596 4.327 5.774 4.327 9.523 0 4.043-1.731 7.221-4.904 10.105-3.173 2.601-6.932 4.043-11.835 4.043-2.317 0-4.336-0.289-6.067-0.865-1.73-0.577-3.461-1.154-5.191-1.736-1.74-0.577-3.759-1.154-6.065-1.73-2.309-0.577-5.192-1.154-8.664-1.442v31.756c6.355 2.019 12.413 4.038 18.479 6.062 6.067 2.023 11.26 4.619 15.875 7.792 4.624 3.178 8.374 6.932 10.979 11.835 2.884 4.625 4.326 10.393 4.326 17.902 0 6.639-1.154 12.701-3.75 18.186-2.605 5.485-6.066 10.105-10.393 13.859-4.337 3.75-9.816 6.927-15.884 9.24-6.057 2.308-12.412 3.749-19.633 4.615v11.547c0 1.447-0.576 2.889-1.73 4.048-1.441 1.154-2.884 1.73-4.614 1.73s-3.183-0.577-4.337-1.73c-1.441-1.159-2.019-2.601-2.019-4.048zm27.43-44.169c0-4.038-1.153-7.215-3.183-8.946-2.307-1.735-4.326-2.89-6.634-3.755l-4.913-2.019v29.444c4.625-0.865 8.374-2.601 10.971-5.196 2.606-2.307 3.759-5.773 3.759-9.528zm-27.43-49.942v-27.136c-4.038 0.577-7.798 1.73-10.681 3.755-2.885 2.019-4.328 4.908-4.328 8.946 0 4.043 1.154 6.932 3.462 8.663 2.307 1.73 4.615 2.884 6.644 3.754z" fill="#ffda63"/>
    <path d="m2251.1 285.58c66.108 0 119.52 53.408 119.52 119.52 0 66.108-53.408 119.52-119.52 119.52s-119.81-53.408-119.81-119.52c0-66.114 53.697-119.52 119.81-119.52zm126.45 119.52c0-69.869-56.59-126.74-126.45-126.74-70.157 0-126.74 56.869-126.74 126.74 0 69.858 56.58 126.73 126.74 126.73 69.858 0 126.45-56.874 126.45-126.73z" clip-rule="evenodd" fill="#fbb615" fill-rule="evenodd"/>
    <g fill="#0a6e9d">
     <path d="m2187.5 245.74c-3.182 1.442-6.932-0.289-8.085-3.466-1.443-3.172 0.287-6.927 3.461-8.081 32.333-12.989 67.85-16.455 101.62-10.105 33.197 6.062 64.954 21.363 91.221 45.611 2.596 2.313 2.596 6.355 0.289 8.663-2.309 2.596-6.346 2.884-8.952 0.577-24.247-22.805-53.984-36.953-84.578-42.438-31.755-5.774-64.667-2.885-94.981 9.239z"/>
     <path d="m2358.7 285c-3.184 1.159-6.933-0.577-8.086-3.755-0.866-3.46 0.864-6.927 4.038-8.081l11.259-3.755 2.316-14.719c0.577-3.466 3.749-5.778 7.21-5.201 3.473 0.582 5.779 3.754 5.203 7.221l-2.896 18.185c-0.278 2.313-2.019 4.62-4.326 5.197z"/>
     <path d="m2414.2 351.69c-1.152-3.466 0.578-6.932 4.039-8.086 3.183-1.154 6.644 0.865 7.797 4.043 10.97 33.199 11.835 68.709 3.461 102.2-8.075 32.622-25.401 63.225-51.379 88.049-2.317 2.307-6.355 2.307-8.663-0.289-2.595-2.596-2.317-6.35 0-8.951 24.248-23.094 40.131-51.384 47.918-81.987 7.798-31.174 6.932-64.089-3.173-94.975z"/>
     <path d="m2363.9 519.71c-0.864-3.178 1.154-6.638 4.337-7.509 3.461-0.866 6.922 1.159 7.788 4.331l2.895 11.259 14.43 3.466c3.462 0.577 5.769 4.043 4.904 7.504-0.866 3.466-4.039 5.484-7.499 4.619l-18.19-4.043c-2.309-0.288-4.327-2.019-4.914-4.615z"/>
     <path d="m2293.8 570.81c3.462-0.866 6.923 1.153 7.787 4.331 0.866 3.466-1.152 6.927-4.613 7.792-33.775 8.662-69.291 7.509-102.19-3.173-32.045-10.104-61.494-29.449-84.299-56.874-2.309-2.596-2.029-6.639 0.576-8.947 2.596-2.023 6.633-1.735 8.95 0.866 21.364 25.689 49.072 43.592 78.81 53.12 30.603 9.816 63.513 10.97 94.98 2.885z"/>
     <path d="m2129.2 509.9c3.472-0.865 6.644 1.441 7.51 4.908 0.576 3.461-1.73 6.639-5.191 7.504l-11.26 2.024-4.335 14.432c-0.866 3.177-4.327 5.196-7.788 4.042-3.471-0.865-5.201-4.331-4.337-7.792l5.192-17.614c0.587-2.307 2.605-4.326 4.912-4.615z"/>
     <path d="m2088.5 457.93c0.864 3.466-0.866 6.927-4.048 8.086-3.462 1.154-6.923-0.577-8.086-4.043-10.682-33.199-11.836-68.709-3.462-102.2 8.374-32.622 25.401-63.225 51.39-88.049 2.596-2.313 6.644-2.313 8.951 0.289 2.307 2.596 2.307 6.639-0.289 8.946-23.969 23.099-40.131 51.678-47.64 81.992-8.074 31.179-6.92 64.089 3.184 94.975z"/>
     <path d="m2138.7 289.91c0.865 3.178-1.153 6.639-4.615 7.509-3.46 0.865-6.644-1.159-7.508-4.331l-3.173-11.264-14.441-3.461c-3.461-0.577-5.48-4.043-4.614-7.509 0.576-3.461 4.038-5.48 7.508-4.615l18.19 4.038c2.309 0.577 4.038 2.024 4.615 4.62z"/>
    </g>
   </g>
  </g>
 </g>
</svg>
