<?xml version="1.0" encoding="UTF-8"?>
<svg width="144.59mm" height="97.805mm" version="1.1" viewBox="0 0 144.59 97.805" xmlns="http://www.w3.org/2000/svg" xmlns:cc="http://creativecommons.org/ns#" xmlns:dc="http://purl.org/dc/elements/1.1/" xmlns:rdf="http://www.w3.org/1999/02/22-rdf-syntax-ns#">
 <metadata>
  <rdf:RDF>
   <cc:Work rdf:about="">
    <dc:format>image/svg+xml</dc:format>
    <dc:type rdf:resource="http://purl.org/dc/dcmitype/StillImage"/>
    <dc:title/>
   </cc:Work>
  </rdf:RDF>
 </metadata>
 <g transform="translate(-319.93 -166.93)">
  <g id="XMLID_621_" transform="matrix(.26458 0 0 .26458 245.82 35.534)">
   <path d="m822.24 839.22v-32.127c0 12.318-34.79 22.464-77.312 22.464-42.763 0-77.303-10.146-77.303-22.464v32.127c0 12.567 34.54 22.713 77.303 22.713 42.522 0 77.312-10.145 77.312-22.713z" clip-rule="evenodd" fill="#fbb615" fill-rule="evenodd"/>
   <path d="m817.64 839.22v-19.326c-4.103 2.905-9.904 5.318-16.912 7.25-14.248 4.353-34.057 7.008-55.805 7.008-21.739 0-41.548-2.655-56.047-7.008-6.766-1.932-12.559-4.345-16.912-7.25v19.326c0 4.111 7.491 8.215 19.326 11.844 13.774 3.861 32.617 6.275 53.633 6.275 20.774 0 39.867-2.414 53.392-6.275 12.076-3.629 19.325-7.732 19.325-11.844zm0-32.127h8.939v32.127c0 8.456-9.904 15.464-25.852 20.3-14.248 4.103-34.057 6.758-55.805 6.758-21.739 0-41.548-2.655-56.047-6.758-15.946-4.836-25.851-11.844-25.851-20.3v-32.127h8.938c0 3.862 7.491 8.215 19.326 11.594 13.774 4.112 32.617 6.525 53.633 6.525 20.774 0 39.867-2.413 53.392-6.525 12.078-3.379 19.327-7.731 19.327-11.594z" fill="#fbb615"/>
   <path d="m744.93 780.04c21.748 0 41.557 2.655 55.805 6.767 15.947 4.586 25.852 11.835 25.852 20.291s-9.904 15.465-25.852 20.051c-14.248 4.353-34.057 7.008-55.805 7.008-21.739 0-41.548-2.655-56.047-7.008-15.946-4.586-25.851-11.595-25.851-20.051s9.904-15.705 25.851-20.291c14.499-4.112 34.308-6.767 56.047-6.767zm53.392 15.222c-13.524-3.87-32.617-6.525-53.392-6.525-21.016 0-39.858 2.655-53.633 6.525-11.835 3.621-19.326 7.724-19.326 11.835 0 3.862 7.491 8.215 19.326 11.594 13.774 4.112 32.617 6.525 53.633 6.525 20.774 0 39.867-2.413 53.392-6.525 12.076-3.379 19.325-7.731 19.325-11.594 0-4.111-7.249-8.214-19.325-11.835z" fill="#fcc326"/>
   <g clip-rule="evenodd" fill-rule="evenodd">
    <path d="m798.32 795.26c-13.524-3.87-32.617-6.525-53.392-6.525-21.016 0-39.858 2.655-53.633 6.525-11.835 3.621-19.326 7.724-19.326 11.835 0 3.862 7.491 8.215 19.326 11.594 13.774 4.112 32.617 6.525 53.633 6.525 20.774 0 39.867-2.413 53.392-6.525 12.076-3.379 19.325-7.731 19.325-11.594 0-4.111-7.249-8.214-19.325-11.835z" fill="#ffda63"/>
    <g fill="#fcc326">
     <path d="m783.35 854.44c5.551-0.966 10.387-2.173 14.973-3.379l0.965-0.242v-17.877c-4.827 1.448-10.146 2.655-15.938 3.62z"/>
     <path d="m710.62 837.05c-5.793-0.724-11.111-1.689-15.938-2.896v17.877c4.827 1.207 10.146 2.173 15.938 3.138z"/>
     <path d="m683.8 831.01c-4.586-1.698-8.689-3.629-11.836-5.802v14.008c0 3.146 4.354 6.283 11.836 9.18z"/>
    </g>
    <path d="m744.93 795.01c20.774 0 39.867 2.422 53.392 6.283 8.938 2.655 15.464 5.801 18.119 8.697 0.965-0.965 1.206-1.931 1.206-2.896 0-4.111-7.249-8.214-19.325-11.835-13.524-3.87-32.617-6.525-53.392-6.525-21.016 0-39.858 2.655-53.633 6.525-11.835 3.621-19.326 7.724-19.326 11.835 0 0.966 0.483 1.932 1.207 2.896 2.655-2.896 9.181-6.042 18.119-8.697 13.775-3.861 32.617-6.283 53.633-6.283z" fill="#fbb615"/>
    <path d="m822.24 798.15v-32.135c0 12.326-34.79 22.472-77.312 22.472-42.763 0-77.303-10.146-77.303-22.472v32.135c0 12.56 34.54 22.705 77.303 22.705 42.522 0 77.312-10.146 77.312-22.705z" fill="#fbb615"/>
   </g>
   <path d="m817.64 798.15v-19.326c-4.103 2.896-9.904 5.311-16.912 7.491-14.248 4.104-34.057 6.758-55.805 6.758-21.739 0-41.548-2.654-56.047-6.758-6.766-2.181-12.559-4.595-16.912-7.491v19.326c0 4.104 7.491 8.215 19.326 11.835 13.774 3.87 32.617 6.284 53.633 6.284 20.774 0 39.867-2.414 53.392-6.284 12.076-3.62 19.325-7.732 19.325-11.835zm0-32.135h8.939v32.135c0 8.456-9.904 15.705-25.852 20.291-14.248 4.112-34.057 6.767-55.805 6.767-21.739 0-41.548-2.654-56.047-6.767-15.946-4.586-25.851-11.835-25.851-20.291v-32.135h8.938c0 4.111 7.491 8.215 19.326 11.603 13.774 4.103 32.617 6.517 53.633 6.517 20.774 0 39.867-2.414 53.392-6.517 12.078-3.388 19.327-7.492 19.327-11.603z" fill="#fbb615"/>
   <path d="m744.93 738.96c21.748 0 41.557 2.663 55.805 6.767 15.947 4.594 25.852 11.835 25.852 20.291s-9.904 15.464-25.852 20.3c-14.248 4.104-34.057 6.758-55.805 6.758-21.739 0-41.548-2.654-56.047-6.758-15.946-4.836-25.851-11.844-25.851-20.3s9.904-15.697 25.851-20.291c14.499-4.104 34.308-6.767 56.047-6.767zm53.392 15.223c-13.524-3.862-32.617-6.284-53.392-6.284-21.016 0-39.858 2.422-53.633 6.284-11.835 3.62-19.326 7.731-19.326 11.835 0 4.111 7.491 8.215 19.326 11.603 13.774 4.103 32.617 6.517 53.633 6.517 20.774 0 39.867-2.414 53.392-6.517 12.076-3.388 19.325-7.491 19.325-11.603 0-4.104-7.249-8.215-19.325-11.835z" fill="#fcc326"/>
   <g clip-rule="evenodd" fill-rule="evenodd">
    <path d="m798.32 754.18c-13.524-3.862-32.617-6.284-53.392-6.284-21.016 0-39.858 2.422-53.633 6.284-11.835 3.62-19.326 7.731-19.326 11.835 0 4.111 7.491 8.215 19.326 11.603 13.774 4.103 32.617 6.517 53.633 6.517 20.774 0 39.867-2.414 53.392-6.517 12.076-3.388 19.325-7.491 19.325-11.603 0-4.104-7.249-8.215-19.325-11.835z" fill="#ffda63"/>
    <g fill="#fcc326">
     <path d="m783.35 813.38c5.551-0.974 10.387-2.181 14.973-3.388l0.965-0.241v-17.636c-4.827 1.206-10.146 2.413-15.938 3.387z"/>
     <path d="m710.62 795.98c-5.793-0.725-11.111-1.698-15.938-2.905v17.878c4.827 1.207 10.146 2.181 15.938 3.146z"/>
     <path d="m683.8 789.94c-4.586-1.689-8.689-3.62-11.836-5.801v14.016c0 3.138 4.354 6.284 11.836 9.181z"/>
    </g>
    <path d="m744.93 753.94c20.774 0 39.867 2.413 53.392 6.283 8.938 2.655 15.464 5.793 18.119 8.698 0.965-0.966 1.206-1.939 1.206-2.905 0-4.104-7.249-8.215-19.325-11.835-13.524-3.862-32.617-6.284-53.392-6.284-21.016 0-39.858 2.422-53.633 6.284-11.835 3.62-19.326 7.731-19.326 11.835 0 0.966 0.483 1.939 1.207 2.905 2.655-2.905 9.181-6.043 18.119-8.698 13.775-3.87 32.617-6.283 53.633-6.283z" fill="#fbb615"/>
    <path d="m822.24 757.08v-32.127c0 12.56-34.79 22.705-77.312 22.705-42.763 0-77.303-10.146-77.303-22.705v32.127c0 12.567 34.54 22.713 77.303 22.713 42.522-1e-3 77.312-10.146 77.312-22.713z" fill="#fbb615"/>
   </g>
   <path d="m817.64 757.08v-19.326c-4.103 2.905-9.904 5.318-16.912 7.491-14.248 4.103-34.057 6.766-55.805 6.766-21.739 0-41.548-2.663-56.047-6.766-6.766-2.173-12.559-4.586-16.912-7.491v19.326c0 4.111 7.491 8.215 19.326 11.844 13.774 3.861 32.617 6.517 53.633 6.517 20.774 0 39.867-2.655 53.392-6.517 12.076-3.63 19.325-7.733 19.325-11.844zm0-32.127h8.939v32.127c0 8.456-9.904 15.705-25.852 20.3-14.248 4.103-34.057 6.758-55.805 6.758-21.739 0-41.548-2.655-56.047-6.758-15.946-4.595-25.851-11.844-25.851-20.3v-32.127h8.938c0 4.104 7.491 8.215 19.326 11.836 13.774 3.87 32.617 6.283 53.633 6.283 20.774 0 39.867-2.413 53.392-6.283 12.078-3.622 19.327-7.733 19.327-11.836z" fill="#fbb615"/>
   <path d="m744.93 697.9c21.748 0 41.557 2.655 55.805 6.763 15.947 4.831 25.852 11.839 25.852 20.295s-9.904 15.456-25.852 20.292c-14.248 4.103-34.057 6.766-55.805 6.766-21.739 0-41.548-2.663-56.047-6.766-15.946-4.836-25.851-11.836-25.851-20.292s9.904-15.464 25.851-20.295c14.499-4.108 34.308-6.763 56.047-6.763zm53.392 15.219c-13.524-3.866-32.617-6.279-53.392-6.279-21.016 0-39.858 2.413-53.633 6.279-11.835 3.624-19.326 7.731-19.326 11.839 0 4.104 7.491 8.215 19.326 11.836 13.774 3.87 32.617 6.283 53.633 6.283 20.774 0 39.867-2.413 53.392-6.283 12.076-3.621 19.325-7.732 19.325-11.836 0-4.108-7.249-8.215-19.325-11.839z" fill="#fcc326"/>
   <g clip-rule="evenodd" fill-rule="evenodd">
    <path d="m798.32 713.12c-13.524-3.866-32.617-6.279-53.392-6.279-21.016 0-39.858 2.413-53.633 6.279-11.835 3.624-19.326 7.731-19.326 11.839 0 4.104 7.491 8.215 19.326 11.836 13.774 3.87 32.617 6.283 53.633 6.283 20.774 0 39.867-2.413 53.392-6.283 12.076-3.621 19.325-7.732 19.325-11.836 0-4.108-7.249-8.215-19.325-11.839z" fill="#ffda63"/>
    <g fill="#fcc326">
     <path d="m783.35 772.3c5.551-0.966 10.387-2.173 14.973-3.379l0.965-0.242v-17.636c-4.827 1.207-10.146 2.413-15.938 3.379z"/>
     <path d="m710.62 755.15c-5.793-0.966-11.111-1.932-15.938-3.139v17.878c4.827 1.207 10.146 2.173 15.938 3.138z"/>
     <path d="m683.8 748.87c-4.586-1.689-8.689-3.62-11.836-5.793v14.008c0 3.146 4.354 6.283 11.836 9.18z"/>
    </g>
    <path d="m744.93 712.87c20.774 0 39.867 2.413 53.392 6.521 8.938 2.418 15.464 5.56 18.119 8.697 0.965-1.206 1.206-2.172 1.206-3.138 0-4.107-7.249-8.215-19.325-11.839-13.524-3.866-32.617-6.279-53.392-6.279-21.016 0-39.858 2.413-53.633 6.279-11.835 3.624-19.326 7.731-19.326 11.839 0 0.966 0.483 1.932 1.207 3.138 2.655-3.138 9.181-6.279 18.119-8.697 13.775-4.107 32.617-6.521 53.633-6.521z" fill="#fbb615"/>
    <path d="m822.24 716.02v-32.135c0 12.563-34.79 22.713-77.312 22.713-42.763 0-77.303-10.149-77.303-22.713v32.135c0 12.56 34.54 22.705 77.303 22.705 42.522 0 77.312-10.145 77.312-22.705z" fill="#fbb615"/>
   </g>
   <path d="m817.64 716.02v-19.33c-4.103 2.9-9.904 5.314-16.912 7.491-14.248 4.106-34.057 6.762-55.805 6.762-21.739 0-41.548-2.655-56.047-6.762-6.766-2.177-12.559-4.591-16.912-7.491v19.33c0 4.104 7.491 8.211 19.326 11.835 13.774 3.87 32.617 6.525 53.633 6.525 20.774 0 39.867-2.655 53.392-6.525 12.076-3.624 19.325-7.731 19.325-11.835zm0-32.135h8.939v32.135c0 8.456-9.904 15.705-25.852 20.291-14.248 4.354-34.057 6.767-55.805 6.767-21.739 0-41.548-2.413-56.047-6.767-15.946-4.586-25.851-11.835-25.851-20.291v-32.135h8.938c0 4.107 7.491 8.215 19.326 11.84 13.774 3.865 32.617 6.279 53.633 6.279 20.774 0 39.867-2.414 53.392-6.279 12.078-3.625 19.327-7.732 19.327-11.84z" fill="#fbb615"/>
   <path d="m744.93 656.82c21.748 0 41.557 2.659 55.805 6.767 15.947 4.831 25.852 11.835 25.852 20.291s-9.904 15.464-25.852 20.296c-14.248 4.106-34.057 6.762-55.805 6.762-21.739 0-41.548-2.655-56.047-6.762-15.946-4.832-25.851-11.84-25.851-20.296s9.904-15.46 25.851-20.291c14.499-4.108 34.308-6.767 56.047-6.767zm53.392 15.222c-13.524-3.866-32.617-6.284-53.392-6.284-21.016 0-39.858 2.418-53.633 6.284-11.835 3.624-19.326 7.731-19.326 11.835 0 4.107 7.491 8.215 19.326 11.84 13.774 3.865 32.617 6.279 53.633 6.279 20.774 0 39.867-2.414 53.392-6.279 12.076-3.625 19.325-7.732 19.325-11.84 0-4.103-7.249-8.211-19.325-11.835z" fill="#fcc326"/>
   <g clip-rule="evenodd" fill-rule="evenodd">
    <path d="m798.32 672.05c-13.524-3.866-32.617-6.284-53.392-6.284-21.016 0-39.858 2.418-53.633 6.284-11.835 3.624-19.326 7.731-19.326 11.835 0 4.107 7.491 8.215 19.326 11.84 13.774 3.865 32.617 6.279 53.633 6.279 20.774 0 39.867-2.414 53.392-6.279 12.076-3.625 19.325-7.732 19.325-11.84 0-4.103-7.249-8.211-19.325-11.835z" fill="#ffda63"/>
    <g fill="#fcc326">
     <path d="m783.35 731.24c5.551-0.974 10.387-2.181 14.973-3.388l0.965-0.241v-17.636c-4.827 1.206-10.146 2.417-15.938 3.383z"/>
     <path d="m710.62 714.08c-5.793-0.965-11.111-1.931-15.938-3.142v17.878c4.827 1.207 10.146 2.172 15.938 3.146z"/>
     <path d="m683.8 707.8c-4.586-1.693-8.689-3.624-11.836-5.56v13.774c0 3.138 4.354 6.279 11.836 9.18z"/>
    </g>
    <path d="m744.93 671.8c20.774 0 39.867 2.413 53.392 6.521 8.938 2.659 15.464 5.556 18.119 8.697 0.965-1.206 1.206-2.172 1.206-3.142 0-4.104-7.249-8.211-19.325-11.835-13.524-3.866-32.617-6.284-53.392-6.284-21.016 0-39.858 2.418-53.633 6.284-11.835 3.624-19.326 7.731-19.326 11.835 0 0.97 0.483 1.936 1.207 3.142 2.655-3.142 9.181-6.038 18.119-8.697 13.775-4.108 32.617-6.521 53.633-6.521z" fill="#fbb615"/>
    <path d="m822.24 674.94v-32.131c0 12.563-34.79 22.709-77.312 22.709-42.763 0-77.303-10.146-77.303-22.709v32.131c0 12.563 34.54 22.713 77.303 22.713 42.522 0 77.312-10.15 77.312-22.713z" fill="#fbb615"/>
   </g>
   <path d="m817.64 674.94v-19.326c-4.103 2.9-9.904 5.556-16.912 7.49-14.248 4.107-34.057 6.763-55.805 6.763-21.739 0-41.548-2.655-56.047-6.763-6.766-1.935-12.559-4.59-16.912-7.49v19.326c0 4.107 7.491 8.456 19.326 11.839 13.774 4.107 32.617 6.521 53.633 6.521 20.774 0 39.867-2.414 53.392-6.521 12.076-3.383 19.325-7.732 19.325-11.839zm0-32.131h8.939v32.131c0 8.456-9.904 15.705-25.852 20.295-14.248 4.349-34.057 6.763-55.805 6.763-21.739 0-41.548-2.414-56.047-6.763-15.946-4.59-25.851-11.839-25.851-20.295v-32.131h8.938c0 4.107 7.491 8.215 19.326 11.839 13.774 3.866 32.617 6.28 53.633 6.28 20.774 0 39.867-2.414 53.392-6.28 12.078-3.624 19.327-7.732 19.327-11.839z" fill="#fbb615"/>
   <path d="m744.93 615.75c21.748 0 41.557 2.659 55.805 6.767 15.947 4.831 25.852 11.839 25.852 20.291 0 8.456-9.904 15.705-25.852 20.295-14.248 4.107-34.057 6.763-55.805 6.763-21.739 0-41.548-2.655-56.047-6.763-15.946-4.59-25.851-11.839-25.851-20.295 0-8.452 9.904-15.46 25.851-20.291 14.499-4.107 34.308-6.767 56.047-6.767zm53.392 15.464c-13.524-4.107-32.617-6.525-53.392-6.525-21.016 0-39.858 2.418-53.633 6.525-11.835 3.383-19.326 7.486-19.326 11.594s7.491 8.215 19.326 11.839c13.774 3.866 32.617 6.28 53.633 6.28 20.774 0 39.867-2.414 53.392-6.28 12.076-3.624 19.325-7.731 19.325-11.839s-7.249-8.211-19.325-11.594z" fill="#fcc326"/>
   <g clip-rule="evenodd" fill-rule="evenodd">
    <path d="m798.32 631.22c-13.524-4.107-32.617-6.525-53.392-6.525-21.016 0-39.858 2.418-53.633 6.525-11.835 3.383-19.326 7.486-19.326 11.594s7.491 8.215 19.326 11.839c13.774 3.866 32.617 6.28 53.633 6.28 20.774 0 39.867-2.414 53.392-6.28 12.076-3.624 19.325-7.731 19.325-11.839s-7.249-8.211-19.325-11.594z" fill="#ffda63"/>
    <g fill="#fcc326">
     <path d="m783.35 690.16c5.551-0.966 10.387-1.936 14.973-3.384l0.965-0.241v-17.636c-4.827 1.206-10.146 2.417-15.938 3.383z"/>
     <path d="m710.62 673.01c-5.793-0.965-11.111-1.931-15.938-3.142v17.878c4.827 1.211 10.146 2.176 15.938 3.142z"/>
     <path d="m683.8 666.73c-4.586-1.693-8.689-3.625-11.836-5.56v13.771c0 3.142 4.354 6.524 11.836 9.421z"/>
    </g>
    <path d="m744.93 630.74c20.774 0 39.867 2.413 53.392 6.521 8.938 2.659 15.464 5.556 18.119 8.697 0.965-0.965 1.206-2.172 1.206-3.142 0-4.107-7.249-8.211-19.325-11.594-13.524-4.107-32.617-6.525-53.392-6.525-21.016 0-39.858 2.418-53.633 6.525-11.835 3.383-19.326 7.486-19.326 11.594 0 0.97 0.483 2.177 1.207 3.142 2.655-3.142 9.181-6.038 18.119-8.697 13.775-4.108 32.617-6.521 53.633-6.521z" fill="#fbb615"/>
    <path d="m822.24 634.11v-32.372c0 12.563-34.79 22.709-77.312 22.709-42.763 0-77.303-10.146-77.303-22.709v32.372c0 12.322 34.54 22.468 77.303 22.468 42.522-1e-3 77.312-10.146 77.312-22.468z" fill="#fbb615"/>
   </g>
   <path d="m817.64 634.11v-19.326c-4.103 2.659-9.904 5.314-16.912 7.249-14.248 4.107-34.057 6.763-55.805 6.763-21.739 0-41.548-2.655-56.047-6.763-6.766-1.935-12.559-4.59-16.912-7.249v19.326c0 3.866 7.491 8.215 19.326 11.598 13.774 4.107 32.617 6.525 53.633 6.525 20.774 0 39.867-2.418 53.392-6.525 12.076-3.383 19.325-7.732 19.325-11.598zm0-32.372h8.939v32.372c0 8.456-9.904 15.464-25.852 20.054-14.248 4.349-34.057 7.004-55.805 7.004-21.739 0-41.548-2.655-56.047-7.004-15.946-4.59-25.851-11.598-25.851-20.054v-32.372h8.938c0 4.107 7.491 8.215 19.326 11.839 13.774 3.866 32.617 6.521 53.633 6.521 20.774 0 39.867-2.655 53.392-6.521 12.078-3.625 19.327-7.732 19.327-11.839z" fill="#fbb615"/>
   <path d="m744.93 574.68c21.748 0 41.557 2.659 55.805 7.008 15.947 4.59 25.852 11.594 25.852 20.05s-9.904 15.705-25.852 20.295c-14.248 4.107-34.057 6.763-55.805 6.763-21.739 0-41.548-2.655-56.047-6.763-15.946-4.59-25.851-11.839-25.851-20.295s9.904-15.46 25.851-20.05c14.499-4.349 34.308-7.008 56.047-7.008zm53.392 15.464c-13.524-4.107-32.617-6.525-53.392-6.525-21.016 0-39.858 2.418-53.633 6.525-11.835 3.379-19.326 7.728-19.326 11.594 0 4.107 7.491 8.215 19.326 11.839 13.774 3.866 32.617 6.521 53.633 6.521 20.774 0 39.867-2.655 53.392-6.521 12.076-3.624 19.325-7.731 19.325-11.839 0-3.867-7.249-8.215-19.325-11.594z" fill="#fcc326"/>
   <g clip-rule="evenodd" fill-rule="evenodd">
    <path d="m798.32 590.15c-13.524-4.107-32.617-6.525-53.392-6.525-21.016 0-39.858 2.418-53.633 6.525-11.835 3.379-19.326 7.728-19.326 11.594 0 4.107 7.491 8.215 19.326 11.839 13.774 3.866 32.617 6.521 53.633 6.521 20.774 0 39.867-2.655 53.392-6.521 12.076-3.624 19.325-7.731 19.325-11.839 0-3.867-7.249-8.215-19.325-11.594z" fill="#ffda63"/>
    <g fill="#fcc326">
     <path d="m783.35 649.1c5.551-0.97 10.387-1.936 14.973-3.384l0.965-0.241v-17.637c-4.827 1.207-10.146 2.414-15.938 3.384z"/>
     <path d="m710.62 631.94c-5.793-0.724-11.111-1.935-15.938-2.9v17.637c4.827 1.207 10.146 2.418 15.938 3.142z"/>
     <path d="m683.8 625.66c-4.586-1.693-8.689-3.383-11.836-5.56v14.012c0 2.9 4.354 6.283 11.836 9.185z"/>
    </g>
    <path d="m744.93 589.67c20.774 0 39.867 2.414 53.392 6.521 8.938 2.659 15.464 5.556 18.119 8.697 0.965-0.965 1.206-2.176 1.206-3.142 0-3.866-7.249-8.215-19.325-11.594-13.524-4.107-32.617-6.525-53.392-6.525-21.016 0-39.858 2.418-53.633 6.525-11.835 3.379-19.326 7.728-19.326 11.594 0 0.966 0.483 2.177 1.207 3.142 2.655-3.142 9.181-6.038 18.119-8.697 13.775-4.107 32.617-6.521 53.633-6.521z" fill="#fbb615"/>
    <path d="m822.24 593.04v-32.372c0 12.563-34.79 22.709-77.312 22.709-42.763 0-77.303-10.146-77.303-22.709v32.372c0 12.322 34.54 22.468 77.303 22.468 42.522 0 77.312-10.145 77.312-22.468z" fill="#fbb615"/>
   </g>
   <path d="m817.64 593.04v-19.326c-4.103 2.659-9.904 5.314-16.912 7.25-14.248 4.103-34.057 6.762-55.805 6.762-21.739 0-41.548-2.659-56.047-6.762-6.766-1.935-12.559-4.59-16.912-7.25v19.326c0 3.866 7.491 8.215 19.326 11.598 13.774 4.107 32.617 6.521 53.633 6.521 20.774 0 39.867-2.414 53.392-6.521 12.076-3.383 19.325-7.732 19.325-11.598zm0-32.372h8.939v32.372c0 8.456-9.904 15.464-25.852 20.054-14.248 4.349-34.057 7.004-55.805 7.004-21.739 0-41.548-2.655-56.047-7.004-15.946-4.59-25.851-11.598-25.851-20.054v-32.372h8.938c0 4.107 7.491 8.215 19.326 11.839 13.774 3.866 32.617 6.521 53.633 6.521 20.774 0 39.867-2.655 53.392-6.521 12.078-3.624 19.327-7.731 19.327-11.839z" fill="#fbb615"/>
   <path d="m744.93 533.62c21.748 0 41.557 2.659 55.805 7.008 15.947 4.59 25.852 11.594 25.852 20.05s-9.904 15.705-25.852 20.295c-14.248 4.103-34.057 6.762-55.805 6.762-21.739 0-41.548-2.659-56.047-6.762-15.946-4.59-25.851-11.839-25.851-20.295s9.904-15.46 25.851-20.05c14.499-4.35 34.308-7.008 56.047-7.008zm53.392 15.459c-13.524-4.103-32.617-6.521-53.392-6.521-21.016 0-39.858 2.418-53.633 6.521-11.835 3.383-19.326 7.732-19.326 11.598 0 4.107 7.491 8.215 19.326 11.839 13.774 3.866 32.617 6.521 53.633 6.521 20.774 0 39.867-2.655 53.392-6.521 12.076-3.625 19.325-7.732 19.325-11.839 0-3.866-7.249-8.215-19.325-11.598z" fill="#fcc326"/>
   <g clip-rule="evenodd" fill-rule="evenodd">
    <path d="m798.32 549.07c-13.524-4.103-32.617-6.521-53.392-6.521-21.016 0-39.858 2.418-53.633 6.521-11.835 3.383-19.326 7.732-19.326 11.598 0 4.107 7.491 8.215 19.326 11.839 13.774 3.866 32.617 6.521 53.633 6.521 20.774 0 39.867-2.655 53.392-6.521 12.076-3.625 19.325-7.732 19.325-11.839 0-3.866-7.249-8.215-19.325-11.598z" fill="#ffda63"/>
    <g fill="#fcc326">
     <path d="m783.35 608.03c5.551-0.97 10.387-1.936 14.973-3.384l0.965-0.241v-17.636c-4.827 1.448-10.146 2.418-15.938 3.383z"/>
     <path d="m710.62 590.87c-5.793-0.724-11.111-1.689-15.938-2.901v17.637c4.827 1.207 10.146 2.418 15.938 3.142z"/>
     <path d="m683.8 584.59c-4.586-1.448-8.689-3.379-11.836-5.556v14.012c0 3.142 4.354 6.284 11.836 9.18z"/>
    </g>
    <path d="m744.93 548.59c20.774 0 39.867 2.659 53.392 6.525 8.938 2.655 15.464 5.556 18.119 8.697 0.965-0.965 1.206-1.935 1.206-3.142 0-3.866-7.249-8.215-19.325-11.598-13.524-4.103-32.617-6.521-53.392-6.521-21.016 0-39.858 2.418-53.633 6.521-11.835 3.383-19.326 7.732-19.326 11.598 0 1.207 0.483 2.176 1.207 3.142 2.655-3.142 9.181-6.042 18.119-8.697 13.775-3.866 32.617-6.525 53.633-6.525z" fill="#fbb615"/>
    <path d="m628.24 839.22v-32.127c0 12.318-34.548 22.464-77.303 22.464-42.763 0-77.312-10.146-77.312-22.464v32.127c0 12.567 34.549 22.713 77.312 22.713 42.755 0 77.303-10.145 77.303-22.713z" fill="#fbb615"/>
   </g>
   <path d="m623.9 839.22v-19.326c-4.354 2.905-10.146 5.318-16.913 7.25-14.498 4.353-34.307 7.008-56.046 7.008-21.748 0-41.557-2.655-55.81-7.008-7.004-1.932-12.805-4.345-17.153-7.25v19.326c0 4.111 7.49 8.215 19.571 11.844 13.524 3.861 32.372 6.275 53.392 6.275 21.016 0 39.858-2.414 53.392-6.275 12.076-3.629 19.567-7.732 19.567-11.844zm0-32.127h8.938v32.127c0 8.456-9.904 15.464-25.852 20.3-14.498 4.103-34.307 6.758-56.046 6.758-21.748 0-41.557-2.655-55.81-6.758-15.942-4.836-25.851-11.844-25.851-20.3v-32.127h8.697c0 3.862 7.49 8.215 19.571 11.594 13.524 4.112 32.372 6.525 53.392 6.525 21.016 0 39.858-2.413 53.392-6.525 12.078-3.379 19.569-7.731 19.569-11.594z" fill="#fbb615"/>
   <path d="m550.94 780.04c21.739 0 41.548 2.655 56.046 6.767 15.947 4.586 25.852 11.835 25.852 20.291s-9.904 15.465-25.852 20.051c-14.498 4.353-34.307 7.008-56.046 7.008-21.748 0-41.557-2.655-55.81-7.008-15.942-4.586-25.851-11.595-25.851-20.051s9.908-15.705 25.851-20.291c14.253-4.112 34.062-6.767 55.81-6.767zm53.391 15.222c-13.533-3.87-32.376-6.525-53.392-6.525-21.02 0-39.867 2.655-53.392 6.525-12.081 3.621-19.571 7.724-19.571 11.835 0 3.862 7.49 8.215 19.571 11.594 13.524 4.112 32.372 6.525 53.392 6.525 21.016 0 39.858-2.413 53.392-6.525 12.076-3.379 19.567-7.731 19.567-11.594 0-4.111-7.49-8.214-19.567-11.835z" fill="#fcc326"/>
   <g clip-rule="evenodd" fill-rule="evenodd">
    <path d="m604.33 795.26c-13.533-3.87-32.376-6.525-53.392-6.525-21.02 0-39.867 2.655-53.392 6.525-12.081 3.621-19.571 7.724-19.571 11.835 0 3.862 7.49 8.215 19.571 11.594 13.524 4.112 32.372 6.525 53.392 6.525 21.016 0 39.858-2.413 53.392-6.525 12.076-3.379 19.567-7.731 19.567-11.594 0-4.111-7.49-8.214-19.567-11.835z" fill="#ffda63"/>
    <g fill="#fcc326">
     <path d="m589.59 854.44c5.311-0.966 10.387-2.173 14.74-3.379l0.965-0.242v-17.877c-4.835 1.448-10.146 2.655-15.705 3.62z"/>
     <path d="m516.87 837.05c-5.802-0.724-11.115-1.689-15.947-2.896v17.877c4.832 1.207 10.146 2.173 15.947 3.138z"/>
     <path d="m489.81 831.01c-4.591-1.698-8.456-3.629-11.84-5.802v14.008c0 3.146 4.59 6.283 11.84 9.18z"/>
    </g>
    <path d="m550.94 795.01c21.016 0 39.858 2.422 53.392 6.283 9.18 2.655 15.455 5.801 18.119 8.697 0.965-0.965 1.448-1.931 1.448-2.896 0-4.111-7.491-8.214-19.567-11.835-13.533-3.87-32.376-6.525-53.392-6.525-21.02 0-39.867 2.655-53.392 6.525-12.081 3.621-19.571 7.724-19.571 11.835 0 0.966 0.482 1.932 1.452 2.896 2.655-2.896 9.181-6.042 18.119-8.697 13.525-3.861 32.372-6.283 53.392-6.283z" fill="#fbb615"/>
    <path d="m628.24 798.15v-32.135c0 12.326-34.548 22.472-77.303 22.472-42.763 0-77.312-10.146-77.312-22.472v32.135c0 12.56 34.549 22.705 77.312 22.705 42.755 0 77.303-10.146 77.303-22.705z" fill="#fbb615"/>
   </g>
   <path d="m623.9 798.15v-19.326c-4.354 2.896-10.146 5.311-16.913 7.491-14.498 4.104-34.307 6.758-56.046 6.758-21.748 0-41.557-2.654-55.81-6.758-7.004-2.181-12.805-4.595-17.153-7.491v19.326c0 4.104 7.49 8.215 19.571 11.835 13.524 3.87 32.372 6.284 53.392 6.284 21.016 0 39.858-2.414 53.392-6.284 12.076-3.62 19.567-7.732 19.567-11.835zm0-32.135h8.938v32.135c0 8.456-9.904 15.705-25.852 20.291-14.498 4.112-34.307 6.767-56.046 6.767-21.748 0-41.557-2.654-55.81-6.767-15.942-4.586-25.851-11.835-25.851-20.291v-32.135h8.697c0 4.111 7.49 8.215 19.571 11.603 13.524 4.103 32.372 6.517 53.392 6.517 21.016 0 39.858-2.414 53.392-6.517 12.078-3.388 19.569-7.492 19.569-11.603z" fill="#fbb615"/>
   <path d="m550.94 738.96c21.739 0 41.548 2.663 56.046 6.767 15.947 4.594 25.852 11.835 25.852 20.291s-9.904 15.464-25.852 20.3c-14.498 4.104-34.307 6.758-56.046 6.758-21.748 0-41.557-2.654-55.81-6.758-15.942-4.836-25.851-11.844-25.851-20.3s9.908-15.697 25.851-20.291c14.253-4.104 34.062-6.767 55.81-6.767zm53.391 15.223c-13.533-3.862-32.376-6.284-53.392-6.284-21.02 0-39.867 2.422-53.392 6.284-12.081 3.62-19.571 7.731-19.571 11.835 0 4.111 7.49 8.215 19.571 11.603 13.524 4.103 32.372 6.517 53.392 6.517 21.016 0 39.858-2.414 53.392-6.517 12.076-3.388 19.567-7.491 19.567-11.603 0-4.104-7.49-8.215-19.567-11.835z" fill="#fcc326"/>
   <g clip-rule="evenodd" fill-rule="evenodd">
    <path d="m604.33 754.18c-13.533-3.862-32.376-6.284-53.392-6.284-21.02 0-39.867 2.422-53.392 6.284-12.081 3.62-19.571 7.731-19.571 11.835 0 4.111 7.49 8.215 19.571 11.603 13.524 4.103 32.372 6.517 53.392 6.517 21.016 0 39.858-2.414 53.392-6.517 12.076-3.388 19.567-7.491 19.567-11.603 0-4.104-7.49-8.215-19.567-11.835z" fill="#ffda63"/>
    <g fill="#fcc326">
     <path d="m589.59 813.38c5.311-0.974 10.387-2.181 14.74-3.388l0.965-0.241v-17.636c-4.835 1.206-10.146 2.413-15.705 3.387z"/>
     <path d="m516.87 795.98c-5.802-0.725-11.115-1.698-15.947-2.905v17.878c4.832 1.207 10.146 2.181 15.947 3.146z"/>
     <path d="m489.81 789.94c-4.591-1.689-8.456-3.62-11.84-5.801v14.016c0 3.138 4.59 6.284 11.84 9.181z"/>
    </g>
    <path d="m550.94 753.94c21.016 0 39.858 2.413 53.392 6.283 9.18 2.655 15.455 5.793 18.119 8.698 0.965-0.966 1.448-1.939 1.448-2.905 0-4.104-7.491-8.215-19.567-11.835-13.533-3.862-32.376-6.284-53.392-6.284-21.02 0-39.867 2.422-53.392 6.284-12.081 3.62-19.571 7.731-19.571 11.835 0 0.966 0.482 1.939 1.452 2.905 2.655-2.905 9.181-6.043 18.119-8.698 13.525-3.87 32.372-6.283 53.392-6.283z" fill="#fbb615"/>
    <path d="m628.24 757.08v-32.127c0 12.56-34.548 22.705-77.303 22.705-42.763 0-77.312-10.146-77.312-22.705v32.127c0 12.567 34.549 22.713 77.312 22.713 42.755-1e-3 77.303-10.146 77.303-22.713z" fill="#fbb615"/>
   </g>
   <path d="m623.9 757.08v-19.326c-4.354 2.905-10.146 5.318-16.913 7.491-14.498 4.103-34.307 6.766-56.046 6.766-21.748 0-41.557-2.663-55.81-6.766-7.004-2.173-12.805-4.586-17.153-7.491v19.326c0 4.111 7.49 8.215 19.571 11.844 13.524 3.861 32.372 6.517 53.392 6.517 21.016 0 39.858-2.655 53.392-6.517 12.076-3.63 19.567-7.733 19.567-11.844zm0-32.127h8.938v32.127c0 8.456-9.904 15.705-25.852 20.3-14.498 4.103-34.307 6.758-56.046 6.758-21.748 0-41.557-2.655-55.81-6.758-15.942-4.595-25.851-11.844-25.851-20.3v-32.127h8.697c0 4.104 7.49 8.215 19.571 11.836 13.524 3.87 32.372 6.283 53.392 6.283 21.016 0 39.858-2.413 53.392-6.283 12.078-3.622 19.569-7.733 19.569-11.836z" fill="#fbb615"/>
   <path d="m550.94 697.9c21.739 0 41.548 2.655 56.046 6.763 15.947 4.831 25.852 11.839 25.852 20.295s-9.904 15.456-25.852 20.292c-14.498 4.103-34.307 6.766-56.046 6.766-21.748 0-41.557-2.663-55.81-6.766-15.942-4.836-25.851-11.836-25.851-20.292s9.908-15.464 25.851-20.295c14.253-4.108 34.062-6.763 55.81-6.763zm53.391 15.219c-13.533-3.866-32.376-6.279-53.392-6.279-21.02 0-39.867 2.413-53.392 6.279-12.081 3.624-19.571 7.731-19.571 11.839 0 4.104 7.49 8.215 19.571 11.836 13.524 3.87 32.372 6.283 53.392 6.283 21.016 0 39.858-2.413 53.392-6.283 12.076-3.621 19.567-7.732 19.567-11.836 0-4.108-7.49-8.215-19.567-11.839z" fill="#fcc326"/>
   <g clip-rule="evenodd" fill-rule="evenodd">
    <path d="m604.33 713.12c-13.533-3.866-32.376-6.279-53.392-6.279-21.02 0-39.867 2.413-53.392 6.279-12.081 3.624-19.571 7.731-19.571 11.839 0 4.104 7.49 8.215 19.571 11.836 13.524 3.87 32.372 6.283 53.392 6.283 21.016 0 39.858-2.413 53.392-6.283 12.076-3.621 19.567-7.732 19.567-11.836 0-4.108-7.49-8.215-19.567-11.839z" fill="#ffda63"/>
    <g fill="#fcc326">
     <path d="m589.59 772.3c5.311-0.966 10.387-2.173 14.74-3.379l0.965-0.242v-17.636c-4.835 1.207-10.146 2.413-15.705 3.379z"/>
     <path d="m516.87 755.15c-5.802-0.966-11.115-1.932-15.947-3.139v17.878c4.832 1.207 10.146 2.173 15.947 3.138z"/>
     <path d="m489.81 748.87c-4.591-1.689-8.456-3.62-11.84-5.793v14.008c0 3.146 4.59 6.283 11.84 9.18z"/>
    </g>
    <path d="m550.94 712.87c21.016 0 39.858 2.413 53.392 6.521 9.18 2.418 15.455 5.56 18.119 8.697 0.965-1.206 1.448-2.172 1.448-3.138 0-4.107-7.491-8.215-19.567-11.839-13.533-3.866-32.376-6.279-53.392-6.279-21.02 0-39.867 2.413-53.392 6.279-12.081 3.624-19.571 7.731-19.571 11.839 0 0.966 0.482 1.932 1.452 3.138 2.655-3.138 9.181-6.279 18.119-8.697 13.525-4.107 32.372-6.521 53.392-6.521z" fill="#fbb615"/>
    <path d="m628.24 716.02v-32.135c0 12.563-34.548 22.713-77.303 22.713-42.763 0-77.312-10.149-77.312-22.713v32.135c0 12.56 34.549 22.705 77.312 22.705 42.755 0 77.303-10.145 77.303-22.705z" fill="#fbb615"/>
   </g>
   <path d="m623.9 716.02v-19.33c-4.354 2.9-10.146 5.314-16.913 7.491-14.498 4.106-34.307 6.762-56.046 6.762-21.748 0-41.557-2.655-55.81-6.762-7.004-2.177-12.805-4.591-17.153-7.491v19.33c0 4.104 7.49 8.211 19.571 11.835 13.524 3.87 32.372 6.525 53.392 6.525 21.016 0 39.858-2.655 53.392-6.525 12.076-3.624 19.567-7.731 19.567-11.835zm0-32.135h8.938v32.135c0 8.456-9.904 15.705-25.852 20.291-14.498 4.354-34.307 6.767-56.046 6.767-21.748 0-41.557-2.413-55.81-6.767-15.942-4.586-25.851-11.835-25.851-20.291v-32.135h8.697c0 4.107 7.49 8.215 19.571 11.84 13.524 3.865 32.372 6.279 53.392 6.279 21.016 0 39.858-2.414 53.392-6.279 12.078-3.625 19.569-7.732 19.569-11.84z" fill="#fbb615"/>
   <path d="m550.94 656.82c21.739 0 41.548 2.659 56.046 6.767 15.947 4.831 25.852 11.835 25.852 20.291s-9.904 15.464-25.852 20.296c-14.498 4.106-34.307 6.762-56.046 6.762-21.748 0-41.557-2.655-55.81-6.762-15.942-4.832-25.851-11.84-25.851-20.296s9.908-15.46 25.851-20.291c14.253-4.108 34.062-6.767 55.81-6.767zm53.391 15.222c-13.533-3.866-32.376-6.284-53.392-6.284-21.02 0-39.867 2.418-53.392 6.284-12.081 3.624-19.571 7.731-19.571 11.835 0 4.107 7.49 8.215 19.571 11.84 13.524 3.865 32.372 6.279 53.392 6.279 21.016 0 39.858-2.414 53.392-6.279 12.076-3.625 19.567-7.732 19.567-11.84 0-4.103-7.49-8.211-19.567-11.835z" fill="#fcc326"/>
   <g clip-rule="evenodd" fill-rule="evenodd">
    <path d="m604.33 672.05c-13.533-3.866-32.376-6.284-53.392-6.284-21.02 0-39.867 2.418-53.392 6.284-12.081 3.624-19.571 7.731-19.571 11.835 0 4.107 7.49 8.215 19.571 11.84 13.524 3.865 32.372 6.279 53.392 6.279 21.016 0 39.858-2.414 53.392-6.279 12.076-3.625 19.567-7.732 19.567-11.84 0-4.103-7.49-8.211-19.567-11.835z" fill="#ffda63"/>
    <g fill="#fcc326">
     <path d="m589.59 731.24c5.311-0.974 10.387-2.181 14.74-3.388l0.965-0.241v-17.636c-4.835 1.206-10.146 2.417-15.705 3.383z"/>
     <path d="m516.87 714.08c-5.802-0.965-11.115-1.931-15.947-3.142v17.878c4.832 1.207 10.146 2.172 15.947 3.146z"/>
     <path d="m489.81 707.8c-4.591-1.693-8.456-3.624-11.84-5.56v13.774c0 3.138 4.59 6.279 11.84 9.18z"/>
    </g>
    <path d="m550.94 671.8c21.016 0 39.858 2.413 53.392 6.521 9.18 2.659 15.455 5.556 18.119 8.697 0.965-1.206 1.448-2.172 1.448-3.142 0-4.104-7.491-8.211-19.567-11.835-13.533-3.866-32.376-6.284-53.392-6.284-21.02 0-39.867 2.418-53.392 6.284-12.081 3.624-19.571 7.731-19.571 11.835 0 0.97 0.482 1.936 1.452 3.142 2.655-3.142 9.181-6.038 18.119-8.697 13.525-4.108 32.372-6.521 53.392-6.521z" fill="#fbb615"/>
    <path d="m439.32 839.22v-32.127c0 12.318-34.786 22.464-77.545 22.464-42.521 0-77.312-10.146-77.312-22.464v32.127c0 12.567 34.79 22.713 77.312 22.713 42.759 0 77.545-10.145 77.545-22.713z" fill="#fbb615"/>
   </g>
   <path d="m434.73 839.22v-19.326c-4.349 2.905-10.146 5.318-16.912 7.25-14.495 4.353-34.308 7.008-56.047 7.008-21.748 0-41.314-2.655-55.81-7.008-7.003-1.932-12.563-4.345-16.912-7.25v19.326c0 4.111 7.25 8.215 19.33 11.844 13.525 3.861 32.613 6.275 53.392 6.275 21.016 0 39.858-2.414 53.629-6.275 11.839-3.629 19.33-7.732 19.33-11.844zm0-32.127h8.938v32.127c0 8.456-9.904 15.464-25.851 20.3-14.495 4.103-34.308 6.758-56.047 6.758-21.748 0-41.314-2.655-55.81-6.758-15.942-4.836-25.851-11.844-25.851-20.3v-32.127h8.938c0 3.862 7.25 8.215 19.33 11.594 13.525 4.112 32.613 6.525 53.392 6.525 21.016 0 39.858-2.413 53.629-6.525 11.841-3.379 19.332-7.731 19.332-11.594z" fill="#fbb615"/>
   <path d="m361.77 780.04c21.739 0 41.552 2.655 56.047 6.767 15.946 4.586 25.851 11.835 25.851 20.291s-9.904 15.465-25.851 20.051c-14.495 4.353-34.308 7.008-56.047 7.008-21.748 0-41.314-2.655-55.81-7.008-15.942-4.586-25.851-11.595-25.851-20.051s9.908-15.705 25.851-20.291c14.495-4.112 34.062-6.767 55.81-6.767zm53.629 15.222c-13.771-3.87-32.613-6.525-53.629-6.525-20.778 0-39.866 2.655-53.392 6.525-12.08 3.621-19.33 7.724-19.33 11.835 0 3.862 7.25 8.215 19.33 11.594 13.525 4.112 32.613 6.525 53.392 6.525 21.016 0 39.858-2.413 53.629-6.525 11.839-3.379 19.33-7.731 19.33-11.594 0-4.111-7.491-8.214-19.33-11.835z" fill="#fcc326"/>
   <g clip-rule="evenodd" fill-rule="evenodd">
    <path d="m415.4 795.26c-13.771-3.87-32.613-6.525-53.629-6.525-20.778 0-39.866 2.655-53.392 6.525-12.08 3.621-19.33 7.724-19.33 11.835 0 3.862 7.25 8.215 19.33 11.594 13.525 4.112 32.613 6.525 53.392 6.525 21.016 0 39.858-2.413 53.629-6.525 11.839-3.379 19.33-7.731 19.33-11.594 0-4.111-7.491-8.214-19.33-11.835z" fill="#ffda63"/>
    <g fill="#fcc326">
     <path d="m400.43 854.44c5.314-0.966 10.388-2.173 14.978-3.379l0.728-0.242v-17.877c-4.594 1.448-9.908 2.655-15.705 3.62v17.878z"/>
     <path d="m327.71 837.05c-5.801-0.724-11.111-1.689-15.947-2.896v17.877c4.836 1.207 10.146 2.173 15.947 3.138z"/>
     <path d="m300.89 831.01c-4.832-1.698-8.697-3.629-11.84-5.802v14.008c0 3.146 4.349 6.283 11.84 9.18z"/>
    </g>
    <path d="m361.77 795.01c21.016 0 39.858 2.422 53.629 6.283 8.938 2.655 15.464 5.801 18.119 8.697 0.728-0.965 1.211-1.931 1.211-2.896 0-4.111-7.491-8.214-19.33-11.835-13.771-3.87-32.613-6.525-53.629-6.525-20.778 0-39.866 2.655-53.392 6.525-12.08 3.621-19.33 7.724-19.33 11.835 0 0.966 0.487 1.932 1.211 2.896 2.655-2.896 9.181-6.042 18.119-8.697 13.526-3.861 32.613-6.283 53.392-6.283z" fill="#fbb615"/>
    <path d="m439.32 798.15v-32.135c0 12.326-34.786 22.472-77.545 22.472-42.521 0-77.312-10.146-77.312-22.472v32.135c0 12.56 34.79 22.705 77.312 22.705 42.759 0 77.545-10.146 77.545-22.705z" fill="#fbb615"/>
   </g>
   <path d="m434.73 798.15v-19.326c-4.349 2.896-10.146 5.311-16.912 7.491-14.495 4.104-34.308 6.758-56.047 6.758-21.748 0-41.314-2.654-55.81-6.758-7.003-2.181-12.563-4.595-16.912-7.491v19.326c0 4.104 7.25 8.215 19.33 11.835 13.525 3.87 32.613 6.284 53.392 6.284 21.016 0 39.858-2.414 53.629-6.284 11.839-3.62 19.33-7.732 19.33-11.835zm0-32.135h8.938v32.135c0 8.456-9.904 15.705-25.851 20.291-14.495 4.112-34.308 6.767-56.047 6.767-21.748 0-41.314-2.654-55.81-6.767-15.942-4.586-25.851-11.835-25.851-20.291v-32.135h8.938c0 4.111 7.25 8.215 19.33 11.603 13.525 4.103 32.613 6.517 53.392 6.517 21.016 0 39.858-2.414 53.629-6.517 11.841-3.388 19.332-7.492 19.332-11.603z" fill="#fbb615"/>
   <path d="m361.77 738.96c21.739 0 41.552 2.663 56.047 6.767 15.946 4.594 25.851 11.835 25.851 20.291s-9.904 15.464-25.851 20.3c-14.495 4.104-34.308 6.758-56.047 6.758-21.748 0-41.314-2.654-55.81-6.758-15.942-4.836-25.851-11.844-25.851-20.3s9.908-15.697 25.851-20.291c14.495-4.104 34.062-6.767 55.81-6.767zm53.629 15.223c-13.771-3.862-32.613-6.284-53.629-6.284-20.778 0-39.866 2.422-53.392 6.284-12.08 3.62-19.33 7.731-19.33 11.835 0 4.111 7.25 8.215 19.33 11.603 13.525 4.103 32.613 6.517 53.392 6.517 21.016 0 39.858-2.414 53.629-6.517 11.839-3.388 19.33-7.491 19.33-11.603 0-4.104-7.491-8.215-19.33-11.835z" fill="#fcc326"/>
   <g clip-rule="evenodd" fill-rule="evenodd">
    <path d="m415.4 754.18c-13.771-3.862-32.613-6.284-53.629-6.284-20.778 0-39.866 2.422-53.392 6.284-12.08 3.62-19.33 7.731-19.33 11.835 0 4.111 7.25 8.215 19.33 11.603 13.525 4.103 32.613 6.517 53.392 6.517 21.016 0 39.858-2.414 53.629-6.517 11.839-3.388 19.33-7.491 19.33-11.603 0-4.104-7.491-8.215-19.33-11.835z" fill="#ffda63"/>
    <g fill="#fcc326">
     <path d="m400.43 813.38c5.314-0.974 10.388-2.181 14.978-3.388l0.728-0.241v-17.636c-4.594 1.206-9.908 2.413-15.705 3.387v17.878z"/>
     <path d="m327.71 795.98c-5.801-0.725-11.111-1.698-15.947-2.905v17.878c4.836 1.207 10.146 2.181 15.947 3.146z"/>
     <path d="m300.89 789.94c-4.832-1.689-8.697-3.62-11.84-5.801v14.016c0 3.138 4.349 6.284 11.84 9.181z"/>
    </g>
    <path d="m361.77 753.94c21.016 0 39.858 2.413 53.629 6.283 8.938 2.655 15.464 5.793 18.119 8.698 0.728-0.966 1.211-1.939 1.211-2.905 0-4.104-7.491-8.215-19.33-11.835-13.771-3.862-32.613-6.284-53.629-6.284-20.778 0-39.866 2.422-53.392 6.284-12.08 3.62-19.33 7.731-19.33 11.835 0 0.966 0.487 1.939 1.211 2.905 2.655-2.905 9.181-6.043 18.119-8.698 13.526-3.87 32.613-6.283 53.392-6.283z" fill="#fbb615"/>
   </g>
   <path d="m351.87 702.48c-2.9 1.694-6.521 0.729-8.211-1.931-1.935-2.896-0.97-6.521 1.931-8.456l295.95-179.74-11.594-4.103c-3.146-0.97-4.836-4.353-3.87-7.491 1.207-3.142 4.586-4.832 7.731-3.866l23.671 8.214c1.215 0.483 2.422 1.448 3.146 2.655 1.69 2.9 0.966 6.525-1.931 8.214z" fill="#0a6e9d"/>
   <path d="m661.58 533.62c0 3.383-2.655 6.038-5.801 6.038-3.379 0-6.034-2.655-6.034-6.038l-0.241-22.709c0-3.383 2.654-6.038 6.034-6.038 3.387 0 6.042 2.655 6.042 6.038z" fill="#0a6e9d"/>
  </g>
 </g>
</svg>
