<?xml version="1.0" encoding="UTF-8"?>
<svg width="44.794mm" height="60.59mm" version="1.1" viewBox="0 0 44.794 60.59" xmlns="http://www.w3.org/2000/svg" xmlns:cc="http://creativecommons.org/ns#" xmlns:dc="http://purl.org/dc/elements/1.1/" xmlns:rdf="http://www.w3.org/1999/02/22-rdf-syntax-ns#">
 <metadata>
  <rdf:RDF>
   <cc:Work rdf:about="">
    <dc:format>image/svg+xml</dc:format>
    <dc:type rdf:resource="http://purl.org/dc/dcmitype/StillImage"/>
    <dc:title/>
   </cc:Work>
  </rdf:RDF>
 </metadata>
 <g transform="translate(-293.84 -165.5)">
  <g id="XMLID_621_" transform="matrix(.26458 0 0 .26458 245.82 35.534)">
   <g id="XMLID_614_">
    <g id="XMLID_624_">
     <path id="XMLID_836_" d="m296.6 715h-97.8c-6.7 0-12.1-5.4-12.1-12.1v-159.1c0-6.7 5.4-12.1 12.1-12.1h97.8c6.7 0 12.1 5.4 12.1 12.1v159.2c0 6.6-5.4 12-12.1 12z" fill="#71c4ee"/>
    </g>
    <g id="XMLID_631_">
     <path id="XMLID_835_" d="m296.6 531.8h-97.8c-6.7 0-12.1 5.4-12.1 12.1v14.7h121.9v-14.7c0.1-6.7-5.3-12.1-12-12.1z" fill="#6d6d6d"/>
    </g>
    <g id="XMLID_620_">
     <path id="XMLID_834_" d="m198.7 715h98c1.7 0 3.2-0.3 4.7-1 5.4-7.5 6.9-17.5 7.3-24v-6.7h-122v19.6c0 6.7 5.4 12.1 12 12.1z" fill="#6d6d6d"/>
    </g>
    <g id="XMLID_618_">
     <path id="XMLID_802_" d="m296.6 720.2h-97.8c-9.5 0-17.3-7.7-17.3-17.3v-159.1c0-9.5 7.7-17.3 17.3-17.3h97.8c9.5 0 17.3 7.7 17.3 17.3v159.2c0 9.5-7.8 17.2-17.3 17.2zm-97.8-183.2c-3.8 0-6.9 3.1-6.9 6.9v159.1c0 3.8 3.1 6.9 6.9 6.9h97.8c3.8 0 6.9-3.1 6.9-6.9v-159.2c0-3.8-3.1-6.9-6.9-6.9h-97.8z" fill="#333"/>
    </g>
    <g id="XMLID_616_">
     <path id="XMLID_801_" d="m254.6 702.9h-11.7c-2.9 0-5.2-2.3-5.2-5.2s2.3-5.2 5.2-5.2h11.7c2.9 0 5.2 2.3 5.2 5.2 0 2.8-2.3 5.2-5.2 5.2z" fill="#333"/>
    </g>
    <g id="XMLID_615_">
     <path id="XMLID_800_" d="m308.7 688.5h-122c-2.9 0-5.2-2.3-5.2-5.2s2.3-5.2 5.2-5.2h121.9c2.9 0 5.2 2.3 5.2 5.2 0.1 2.8-2.3 5.2-5.1 5.2z" fill="#333"/>
    </g>
    <g id="XMLID_617_">
     <path id="XMLID_799_" d="m308.7 563.8h-122c-2.9 0-5.2-2.3-5.2-5.2s2.3-5.2 5.2-5.2h121.9c2.9 0 5.2 2.3 5.2 5.2 0.1 2.9-2.3 5.2-5.1 5.2z" fill="#333"/>
    </g>
    <g id="XMLID_619_">
     <path id="XMLID_798_" d="m254 550.7h-9c-2.9 0-5.2-2.3-5.2-5.2s2.3-5.2 5.2-5.2h9c2.9 0 5.2 2.3 5.2 5.2s-2.3 5.2-5.2 5.2z" fill="#333"/>
    </g>
   </g>
   <g id="XMLID_628_">
    <g id="XMLID_630_">
     <path id="XMLID_797_" d="m323.8 547.2c-1.3 0-2.7-0.5-3.7-1.5-2-2-2-5.3 0-7.3 4.6-4.6 4.6-12 0-16.6-2.2-2.2-5.2-3.4-8.3-3.4s-6.1 1.2-8.3 3.4c-2 2-5.3 2-7.3 0s-2-5.3 0-7.3c4.2-4.2 9.7-6.5 15.6-6.5s11.5 2.3 15.6 6.5c8.6 8.6 8.6 22.7 0 31.3-0.9 0.9-2.3 1.4-3.6 1.4z" fill="#333"/>
    </g>
    <g id="XMLID_629_">
     <path id="XMLID_796_" d="m335.8 559.2c-1.3 0-2.7-0.5-3.7-1.5-2-2-2-5.3 0-7.3 11.2-11.2 11.2-29.4 0-40.5-5.4-5.4-12.6-8.4-20.3-8.4s-14.9 3-20.3 8.4c-2 2-5.3 2-7.3 0s-2-5.3 0-7.3c7.4-7.4 17.2-11.4 27.6-11.4s20.2 4.1 27.6 11.4c15.2 15.2 15.2 40 0 55.2-1 0.9-2.3 1.4-3.6 1.4z" fill="#333"/>
    </g>
   </g>
  </g>
 </g>
</svg>
