<?xml version="1.0" encoding="utf-8"?>
<!-- Generator: Adobe Illustrator 19.2.1, SVG Export Plug-In . SVG Version: 6.00 Build 0)  -->
<svg version="1.1" id="Capa_1" xmlns="http://www.w3.org/2000/svg" xmlns:xlink="http://www.w3.org/1999/xlink" x="0px" y="0px"
	 viewBox="0 0 1400 980" enable-background="new 0 0 1400 980" xml:space="preserve">
<g>
	<path fill="#151D38" d="M654.6,822.9c-2.1-0.6-4.3-0.4-6.4-0.4c-15.3-0.3-30.7-1.1-46-2.2c-11.5-0.8-22.9-1.9-34.3-3.7
		c-4.3-0.7-8.7-1.5-12.9-2.9c-1.5-0.5-3.1-1-4.3-2.1c-1.2-1-1.1-2,0.1-3c1-0.8,2.2-1.3,3.4-1.7c4.6-1.6,9.4-2.5,14.2-3.2
		c15.3-2.4,30.6-3.5,46-4.4c13.9-0.8,27.8-1.2,41.7-1.6c17.9-0.4,35.8-0.4,53.7-0.1c16.4,0.3,32.8,0.8,49.1,1.9
		c13,0.8,26,1.9,38.9,3.7c4.8,0.7,9.6,1.5,14.3,2.8c1.8,0.5,3.5,1,5.2,1.9c0.9,0.5,1.9,1,1.8,2.3c0,1.1-0.9,1.6-1.8,2.1
		c-1.5,0.9-3.2,1.4-4.9,1.9c-5.9,1.6-11.9,2.6-17.9,3.3c-16.5,2.2-33.1,3.2-49.7,4c-9.4,0.5-18.8,0.8-28.3,1c-0.7,0-1.4-0.1-2.1,0.3
		C694.6,822.9,674.6,822.9,654.6,822.9z"/>
	<path fill="#151D38" d="M475.1,157.1c0.6,1,0.6,2.1,0.7,3.2c0.5,10,3.8,18.9,11.1,26c5.1,5,11.2,7.9,18.4,8.2c0.2,0,0.3,0,0.5,0
		c1,0,2,0.2,2,1.5c0,1.3-1.1,1.4-2.1,1.5c-12.8,0.8-21,8-26.3,19.1c-2.3,4.8-3.4,10-3.6,15.3c0,0.6,0,1.1-0.1,1.7
		c-0.1,0.8-0.6,1.3-1.5,1.2c-0.8,0-1.2-0.5-1.3-1.2c-0.1-0.8-0.1-1.6-0.1-2.4c-0.6-9.7-3.9-18.2-10.8-25.2
		c-5.1-5.2-11.4-8.2-18.7-8.5c-0.3,0-0.6,0-1,0c-0.8-0.1-1.4-0.5-1.5-1.3c-0.1-0.9,0.5-1.5,1.5-1.6c1.4-0.1,2.7-0.2,4.1-0.4
		c7.5-1.2,13.4-5.1,18.1-10.9c5.4-6.6,8-14.3,8.4-22.8c0.1-1.3-0.1-2.6,0.9-3.6C474.2,157.1,474.6,157.1,475.1,157.1z M496.4,196.3
		c-0.1-0.4-0.3-0.6-0.6-0.7c-1.6-0.6-3.1-1.3-4.5-2.2c-8-4.8-13.2-11.9-16.2-20.7c-0.2-0.6-0.2-1.6-0.8-1.5c-0.6,0-0.6,1-0.8,1.6
		c-3.6,10.4-10,18.3-20.3,22.7c-0.4,0.2-0.9,0.2-0.9,0.7c0,0.5,0.5,0.5,0.8,0.6c1.1,0.5,2.2,1,3.2,1.5c8.2,4.5,13.5,11.5,16.8,20.2
		c0.3,0.7,0.4,1.4,0.7,2c0.1,0.2,0.3,0.5,0.4,0.5c0.4,0.1,0.4-0.4,0.5-0.6c0.2-0.6,0.4-1.2,0.7-1.8c1.5-4.3,3.7-8.2,6.5-11.7
		c3.6-4.4,7.9-7.9,13.2-10C495.6,196.7,496,196.5,496.4,196.3z"/>
	<path fill="#151D38" d="M224.6,569.9c1-0.1,1.7-0.6,2.7-0.7c5.1-0.4,8.8-3.1,11.5-7.2c1.8-2.7,2.8-5.7,3.1-9
		c0.1-0.8,0.1-1.6,0.3-2.4c0.1-0.7,0.5-1.2,1.2-1.3c0.9-0.1,1.4,0.5,1.5,1.2c0.1,0.6,0.1,1.3,0.1,1.9c0.3,4.2,1.7,7.9,4.4,11.2
		c2.6,3.1,5.9,5.1,10,5.5c0.5,0,1,0.1,1.4,0.2c0.7,0.1,1.1,0.6,1.1,1.4c0,0.8-0.4,1.2-1.1,1.4c-0.3,0.1-0.6,0.1-1,0.1
		c-5.2,0.4-9,3.1-11.8,7.3c-2,3-3.1,6.3-3.1,9.9c0,1.8-0.7,2.6-1.5,2.6c-1,0-1.5-0.5-1.6-2.5c-0.2-3.2-1-6.3-2.6-9.1
		c-2.8-4.8-6.7-7.9-12.4-8.2c-0.9-0.1-1.6-0.6-2.4-0.9C224.6,570.9,224.6,570.4,224.6,569.9z M253.3,570.6c-0.1-0.1-0.2-0.2-0.3-0.3
		c-4.2-2.3-7-5.7-9-10c-0.5-1.1-0.8-0.2-1,0.2c-1.9,4-4.6,7.3-8.5,9.5c-0.8,0.4-0.9,0.8,0,1.3c3.9,2.2,6.6,5.5,8.5,9.5
		c0.1,0.3,0.4,0.7,0.5,0.7c0.4,0,0.6-0.5,0.7-0.8c1.2-2.7,3-5.1,5.2-7.1c1-0.9,2.1-1.7,3.3-2.3C253,571.2,253.2,571,253.3,570.6z"/>
	<path fill="#151D38" d="M1175.4,615c-0.4,0.2-0.9,0.5-1.3,0.5c-7.4,0.1-13.6,6.4-15.1,14.4c-0.2,1.3-0.4,2.5-0.4,3.8
		c0,1-0.4,1.8-1.5,1.8c-1.1,0-1.3-0.9-1.4-1.8c-0.2-4.1-1.3-8-3.7-11.4c-2.8-3.8-6.4-6.2-11.2-6.6c-0.4,0-0.8,0-1.2-0.1
		c-0.7-0.2-1-0.7-1-1.4c0-0.6,0.4-1,1-1.2c0.3-0.1,0.6-0.1,0.9-0.1c7.1-0.7,11.3-4.9,13.9-11.2c0.9-2.2,1.2-4.5,1.3-6.8
		c0.1-1,0.2-1.8,1.4-1.9c0.9-0.1,1.4,0.6,1.5,2c0.3,5.2,1.9,9.8,5.7,13.6c2.5,2.5,5.6,4,9.1,4.3c0.7,0.1,1.4,0.1,2.1,0.5
		C1175.4,613.8,1175.4,614.4,1175.4,615z M1157,603.2c-0.2,0.2-0.3,0.4-0.4,0.6c-1.9,4.1-4.6,7.4-8.6,9.7c-1,0.6-0.5,0.9,0.1,1.3
		c3.8,2.2,6.5,5.4,8.3,9.3c0.1,0.3,0.2,0.9,0.7,0.8c0.5-0.1,0.5-0.6,0.7-0.9c1.8-3.7,4.3-6.8,8-9c1.4-0.8,1.3-0.9-0.1-1.8
		c-3.4-2.1-5.8-4.9-7.6-8.4c-0.2-0.4-0.3-0.7-0.5-1.1C1157.5,603.5,1157.2,603.4,1157,603.2z"/>
	<path fill="#151D38" d="M659.3,308.6c38.5,0,77,0,115.4,0c2,0,3.4-0.5,4.9-1.9c11.6-10.5,25.1-13.7,40.3-9.9
		c0.6,0.2,1.2,0.4,1.8,0.6c0.6,0.3,0.9,0.9,0.7,1.6c-0.2,0.7-0.7,1.1-1.4,1c-0.7-0.1-1.4-0.3-2.1-0.5c-21.1-5.8-42.7,6.7-48.3,27.9
		c-5.9,22.5,9.5,45.4,32.5,48.6c19.5,2.7,39.9-10,43.9-31.9c1.6-8.5,0.3-16.7-3.6-24.5c-0.3-0.6-0.6-1.1-0.8-1.7
		c-0.2-0.7,0.1-1.2,0.7-1.6c0.7-0.4,1.3-0.2,1.7,0.3c0.4,0.5,0.8,1.2,1.1,1.8c1.8,3.6,3.1,7.4,3.7,11.3c0.3,2,0.4,2,2.4,2.3
		c5,0.7,10,1.4,15,2.1c10.8,1.5,21.7,3.1,32.5,4.6c10.8,1.5,21.7,3,32.5,4.5c11.8,1.7,23.6,3.3,35.4,5c10.9,1.5,21.8,3.1,32.8,4.6
		c10.8,1.5,21.7,3.1,32.5,4.6c7.3,1,14.6,2.1,21.8,3c6.5,0.9,10.2,5.3,9.3,11.8c-1.3,9.7-2.7,19.5-4,29.2
		c-1.4,9.8-2.8,19.6-4.2,29.4c-1.5,10.8-3.1,21.7-4.6,32.5c-1.5,10.8-3,21.5-4.5,32.3c-1.5,10.9-3.1,21.8-4.6,32.8
		c-1.5,10.8-3,21.7-4.5,32.5c-1.7,11.8-3.3,23.6-5,35.4c-1.5,10.9-3.1,21.8-4.6,32.8c-1.5,10.8-3.1,21.7-4.6,32.5
		c-1.5,10.8-3,21.5-4.5,32.3c-1.7,11.9-3.3,23.7-5,35.6c-1.1,7.6-2.1,15.2-3.2,22.8c-0.7,5.2-3.3,8.4-7.8,9.5
		c-1.3,0.3-2.7,0.3-4.1,0.1c-11.8-1.7-23.6-3.4-35.4-5c-13.1-1.8-26.1-3.6-39.2-5.5c-11.8-1.7-23.6-3.3-35.4-5
		c-10.9-1.5-21.8-3.1-32.8-4.6c-10.8-1.5-21.7-3.1-32.5-4.6c-10.8-1.5-21.7-3-32.5-4.5c-11.8-1.7-23.6-3.3-35.4-5
		c-10.9-1.5-21.8-3.1-32.8-4.6c-1.7-0.2-3.5-0.5-5.2-0.8c-3.8-0.8-6.2-3.2-7.4-6.8c-0.6-1.8-0.6-1.9-2.6-1.9c-14.4,0-28.8,0-43.2,0
		c-3.4,0-6.9,0-10.3,0c-1.8,0-1.8,0-2.1,1.7c-0.8,4.8-4,7.9-9,8.7c-4.7,0.7-9.5,1.3-14.2,2c-9.7,1.3-19.3,2.7-29,4
		c-10.9,1.5-21.8,3.1-32.8,4.6c-10.9,1.5-21.8,3.1-32.8,4.6c-9.6,1.3-19.2,2.7-28.7,4c-10.8,1.5-21.7,3.1-32.5,4.6
		c-10.8,1.5-21.5,3-32.3,4.5c-11,1.5-22,3.1-33,4.7c-10.8,1.5-21.7,3-32.5,4.5c-3.9,0.5-7.8,1-11.6,1.7c-6.5,1.1-11.4-3.3-12.1-8.7
		c-1.1-8.7-2.4-17.4-3.7-26.1c-1.4-9.7-2.7-19.3-4.1-29c-1.5-10.8-3-21.7-4.6-32.5c-1.5-10.9-3.1-21.8-4.6-32.8
		c-1.5-10.8-3-21.7-4.5-32.5c-1.5-10.8-3-21.5-4.6-32.3c-1.4-9.7-2.7-19.3-4.1-29c-1.5-10.8-3.1-21.7-4.6-32.5
		c-1.5-10.8-3-21.5-4.5-32.3c-1.5-10.9-3.1-21.8-4.6-32.8c-1.5-10.8-3-21.7-4.5-32.5c-1.7-11.9-3.4-23.7-5.1-35.6
		c-0.3-2.3-0.5-4.6,0.5-6.8c1.5-3.4,4.2-5.4,7.8-6c7.1-1.1,14.2-2,21.4-3c10.7-1.5,21.4-3,32.1-4.5c9.7-1.4,19.5-2.8,29.2-4.1
		c10.7-1.5,21.4-3,32.1-4.5c10.8-1.5,21.7-3.1,32.5-4.6c11.1-1.6,22.2-3.1,33.2-4.7c9.6-1.3,19.2-2.7,28.7-4
		c5.1-0.7,10.1-1.4,15.2-2.2c2.1-0.3,2.1-0.4,2.1-2.4c0-3.2,0.1-6.4,0-9.6c-0.2-5.4,4.4-10.2,9.9-10.1c0.7,0,1.4,0,2.2,0
		C583.2,308.6,621.3,308.6,659.3,308.6z"/>
	<path fill="#E894AF" d="M535.9,511.4c0,63.4,0,126.9,0,190.3c0,0.9,0,1.8,0,2.6c0.1,3.8,2.9,6.6,6.7,6.8c0.7,0,1.4,0,2.2,0
		c93.3,0,186.6,0,279.8,0c0.7,0,1.4,0,2.2,0c3.4-0.2,6-2.5,6.7-5.9c0.3-1.4,0.3-2.9,0.3-4.3c0-108.6,0-217.3,0-325.9
		c0-0.4,0-0.8,0-1.2c-0.1-0.7,0.3-1.6-0.4-2c-0.7-0.4-1.3,0.4-1.8,0.8c-9.5,6.1-19.8,8-30.8,6.1c-29.2-5.3-43.7-39.3-27.5-64.3
		c0.5-0.8,1.8-1.7,1.4-2.6c-0.4-0.9-1.9-0.4-2.9-0.4c-75.6,0-151.2,0-226.8-0.1c-5.9,0-9.1,3.1-9.1,8.9
		C535.9,384,535.9,447.7,535.9,511.4z"/>
	<path fill="#CCD6DA" d="M771.1,714c-18.2,0-36.5,0-54.7,0c-0.6,0-1.3,0-1.9,0c-1.4,0.1-1.7,0.5-1.1,1.8c1.1,2.6,3.2,3.9,5.9,4.3
		c2.7,0.4,5.4,0.7,8.1,1.1c8.5,1.2,16.9,2.4,25.4,3.6c8.5,1.2,17.1,2.4,25.6,3.6c10.8,1.5,21.5,3,32.3,4.5
		c10.9,1.5,21.8,3.1,32.8,4.6c9.6,1.3,19.2,2.7,28.7,4c10.8,1.5,21.7,3.1,32.5,4.6c10.8,1.5,21.5,3,32.3,4.5c11,1.5,22,3.1,33,4.7
		c9.5,1.3,19,2.6,28.5,4c5.3,0.8,8.6-1.5,9.4-6.7c0.9-5.9,1.7-11.9,2.5-17.8c1.5-10.8,3-21.7,4.5-32.5c1.5-10.8,3.1-21.7,4.6-32.5
		c1.5-10.8,3-21.7,4.5-32.5c1.5-10.8,3.1-21.7,4.6-32.5c1.3-9.6,2.7-19.2,4-28.7c1.7-12.1,3.4-24.2,5.1-36.3
		c1.3-9.6,2.7-19.2,4-28.7c1.5-10.9,3.1-21.8,4.6-32.8c1.5-10.8,3-21.7,4.6-32.5c1.3-9.5,2.7-19,4-28.5c1.4-9.8,2.8-19.6,4.1-29.4
		c0.8-5.4,1.6-10.8,2.2-16.2c0.5-4.3-2.2-7.4-6.4-8.1c-4.7-0.7-9.3-1.3-14-2c-10.8-1.5-21.7-3-32.5-4.5c-11.9-1.7-23.7-3.4-35.6-5.1
		c-10.8-1.5-21.7-3-32.5-4.5c-13.1-1.8-26.1-3.7-39.2-5.6c-14.6-2.1-29.3-4.1-43.9-6.2c-1.6-0.2-3.2-0.4-4.8-0.6
		c-1.9-0.2-1.9-0.2-1.9,1.6c0,0.2,0,0.5,0,0.7c-0.1,11.7-4.3,21.7-12.6,29.9c-1.1,1.1-1.5,2.2-1.5,3.8c0,14.4,0,28.8,0,43.2
		c0,0.8-0.4,1.9,0.3,2.2c0.7,0.4,1.3-0.7,1.9-1.1c3.6-2.7,7.6-4.1,12.1-2.9c2.5,0.7,4.5,2,6.2,3.9c0.8,1,1.3,0.9,2,0
		c0.1-0.2,0.3-0.4,0.5-0.5c6.6-7,14.8-11.4,24.1-13.5c9.6-2.2,19.1-1.5,28.5,0.5c19.6,4.3,34.8,14.8,45.4,31.9
		c4.9,7.9,8.4,16.3,11.4,25c2.5,7.3,4.5,14.7,6.8,22c1.3,4.2,2.7,8.4,4.8,12.3c1.6,2.9,3.5,5.4,6.9,6.2c0.8,0.2,1.3,0.6,1.3,1.5
		c0,0.9-0.6,1.3-1.3,1.5c-1.3,0.4-2.6,0.7-3.9,1.1c-1.7,0.5-1.7,0.5-1,2c1,2.2,1.6,4.5,1.9,6.9c0.5,3.3,0.2,6.6-0.2,9.8
		c-0.7,4.9-1.9,9.6-4.7,13.7c-0.5,0.7-0.6,1.4-0.5,2.3c0.2,6.7-0.2,13.4-1.4,20.1c-0.2,1.1,0,1.9,0.6,2.7c1.3,1.7,2.5,3.5,3.8,5.2
		c1.3,1.8,1.3,2.1-0.3,3.6c-2.3,2.1-4.7,4.2-7.2,6c-1.8,1.3-3,2.8-3.9,4.9c-9.8,21.4-25.6,36.9-47,46.5c-17.3,7.7-35.3,9.7-54,6.5
		c-11.2-2-21.7-5.9-31.5-11.8c-1.6-0.9-1.7-0.9-1.7,0.9c0,10.1,0,20.2,0,30.2c0,1.9,0,1.9,1.8,2.1c8.1,1.1,16.1,2.3,24.2,3.4
		c11.9,1.7,23.7,3.3,35.6,5c10.8,1.5,21.7,3.1,32.5,4.6c13.1,1.8,26.1,3.6,39.2,5.5c0.6,0.1,1.3,0.2,1.9,0.4
		c0.8,0.2,1.2,0.8,1.1,1.6c-0.1,0.9-0.7,1.2-1.5,1.2c-0.6,0-1.1-0.1-1.7-0.2c-5.2-0.7-10.4-1.5-15.7-2.2c-10.8-1.5-21.5-3-32.3-4.5
		c-10.8-1.5-21.7-3.1-32.5-4.6c-9.8-1.4-19.6-2.8-29.4-4.2c-7-1-14.1-2-21.1-3c-2-0.3-2.1-0.2-2.1,1.7c0,6.2,0,12.5,0,18.7
		c0,1.8,0,1.8,1.9,2c11.6,1.6,23.3,3.3,34.9,4.9c0.5,0.1,1,0.1,1.4,0.3c0.8,0.2,1.2,0.8,1.1,1.6c-0.2,0.8-0.7,1.2-1.6,1.2
		c-0.3,0-0.6-0.1-0.9-0.2c-9.2-1.3-18.4-2.6-27.5-3.9c-2.6-0.4-5.2-0.7-7.8-1.1c-0.8-0.1-1.4,0.1-1.3,1.1c0,0.6,0,1.1,0,1.7
		c0,5.2,0,10.4,0,15.6c0,1.6-0.1,3.2-0.6,4.7c-1.4,4.2-5,6.7-9.8,6.7C807.7,714,789.4,714,771.1,714z"/>
	<path fill="#ACDCF6" d="M533,383.1c0-15.5,0-31,0-46.6c0-0.7,0-1.4,0-2.2c0-0.7-0.3-1-1.1-0.9c-0.4,0.1-0.8,0.1-1.2,0.2
		c-12.4,1.8-24.8,3.5-37.3,5.2c-15.4,2.2-30.9,4.3-46.3,6.4c-16.5,2.3-32.9,4.7-49.4,7c-15.4,2.2-30.9,4.3-46.3,6.4
		c-14.6,2-29.1,4.1-43.7,6.2c-5,0.7-7.5,4.1-6.7,9.1c1.6,10.8,3.1,21.7,4.6,32.5c1.5,10.8,3,21.5,4.5,32.3
		c1.5,10.9,3.1,21.8,4.6,32.8c1.3,9.5,2.7,19,4,28.5c1.5,10.8,3.1,21.7,4.6,32.5c1.5,10.8,3,21.7,4.5,32.5
		c1.5,10.9,3.1,21.8,4.6,32.8c1.5,10.9,3.1,21.8,4.6,32.8c1.3,9.4,2.7,18.8,4,28.3c1.5,10.8,3,21.7,4.5,32.5c1.5,11,3.1,22,4.7,33
		c1.4,10.1,2.8,20.1,4.3,30.2c0.6,4.2,4.1,6.7,8.3,6c2.8-0.4,5.7-0.8,8.5-1.2c10.8-1.5,21.5-3,32.3-4.5c10.8-1.5,21.7-3.1,32.5-4.6
		c9.6-1.3,19.2-2.7,28.7-4c11.1-1.6,22.2-3.1,33.2-4.7c10.7-1.5,21.4-3,32.1-4.5c11.8-1.7,23.6-3.3,35.4-5c10.8-1.5,21.7-3,32.5-4.5
		c11.1-1.6,22.2-3.1,33.2-4.7c3.6-0.5,7.3-1,10.9-1.5c2.8-0.4,5-1.6,6.3-4.2c1.3-2.7,0.9-3.3-2.1-3.3c-0.7,0-1.4,0-2.2,0
		c-33.7,0-67.4-0.1-101,0.1c-5.4,0-10.7-4.3-10.4-10.4c0.2-5.4,0-10.7,0-16.1c0-0.6,0-1.3,0-1.9c0-0.8-0.4-1.2-1.2-1.1
		c-0.8,0.1-1.6,0.2-2.4,0.2c-0.7,0-1.2-0.4-1.3-1.1c-0.1-0.7,0.2-1.3,0.9-1.5c0.6-0.2,1.2-0.3,1.9-0.3c2.2-0.3,2.2-0.3,2.2-2.5
		c0-5.8,0-11.5,0-17.3c0-3.1,0-3.1-3.1-2.6c-11.9,1.7-23.9,3.4-35.8,5.1c-16.5,2.3-32.9,4.6-49.4,6.9c-16.5,2.3-32.9,4.7-49.4,7
		c-1.5,0.2-3,0.4-4.5,0.5c-0.8,0.1-1.4-0.5-1.4-1.3c-0.1-0.7,0.3-1.2,1-1.4c0.7-0.2,1.4-0.3,2.1-0.4c10.4-1.5,20.7-2.9,31.1-4.4
		c14.2-2,28.5-4,42.7-6c19.2-2.7,38.5-5.4,57.7-8.1c2.5-0.3,4.9-0.7,7.4-1c1.2-0.1,1.7-0.7,1.6-1.9c0-0.4,0-0.8,0-1.2
		c0-11.1,0-22.2,0-33.4c0-0.8,0.5-2.1-0.4-2.5c-0.8-0.4-1.4,0.7-2.1,1.2c-22.2,16.3-46.9,22.4-73.9,17.1
		c-30.8-6.1-53.1-23.9-66.7-52.2c-8.1-16.9-10.3-34.8-7.5-53.4c0.9-5.8,2.3-11.4,4.3-16.9c0.3-0.8,0.6-1.6,0.1-2.5
		c-2.3-4-3.2-8.5-3.8-13c-0.2-1.6-0.2-1.6-1.7-1.4c-1.6,0.2-3.2,0.4-4.8,0.2c-1.7-0.2-2.1-1.2-1.3-2.7c0.1-0.2,0.3-0.4,0.4-0.6
		c2.5-3.9,4.3-8.2,5.7-12.6c2.3-7.5,3.3-15.3,4.2-23.1c0.8-7.1,1.5-14.3,2.9-21.4c2.1-10.5,5.6-20.3,12.8-28.5
		c0.8-0.9,0.8-1.6,0.3-2.6c-1.3-2.9-2.6-5.8-3.9-8.8c-0.3-0.6-0.5-1.2-0.6-1.8c-0.1-0.9,0.3-1.6,1.4-1.5c0.5,0,1.1,0.1,1.6,0.3
		c1.8,0.5,3.7,1.1,5.5,1.6c1.4,0.4,1.5,0.3,1.6-1.1c0.2-1.8,0.3-3.7,0.4-5.5c0.1-1-0.2-2.2,1-2.7c1.3-0.6,1.9,0.6,2.6,1.3
		c2.2,2.2,4.4,4.4,6.6,6.6c0.7,0.7,1.3,0.9,2.3,0.4c1.7-0.8,3.5-1.6,5.3-2.3c17.4-6.2,35.3-9,53.7-7.6c7.9,0.6,15.4,2.6,22.5,6.3
		c9.1,4.8,15.8,12,21,20.8c3.5,5.9,6.2,12.3,8.8,18.6c0.3,0.7,0.6,1.5,0.9,2.2c0.1,0.2,0.3,0.4,0.5,0.3c0.1-0.1,0.2-0.2,0.2-0.4
		c0-0.7,0-1.4,0-2.2C533,414,533,398.6,533,383.1z"/>
	<path fill="#FAE0D6" d="M533,527.5c0-12.3,0-24.6,0-37c0-1.1,0-2.2-0.2-3.3c-1.1-7.5-2.3-15-3.4-22.5c-0.2-1.1-0.6-1.7-1.7-2.1
		c-1.9-0.7-3.6-1.8-5.1-3c-2.8-2.3-5.1-5.1-6.8-8.3c-0.7-1.3-1.6-1.7-3-1.9c-10.5-1-20-4.7-28.4-11.2c-0.9-0.7-1.7-1.7-2.8-2.2
		c-0.1,1.4,0.8,2.3,1.5,3.3c3.9,6.4,8.4,12.1,15.9,14.5c0.7,0.2,1.1,0.7,1.1,1.4c0,0.7-0.4,1.2-1.1,1.4c-1.4,0.5-2.8,1.1-4.3,1.5
		c-7.5,2.4-15.1,3.3-22.9,2c-9-1.4-16.8-5.4-23.4-11.7c-0.5-0.4-0.9-0.9-1.4-1.3c-0.3-0.2-0.6-0.1-0.7,0.3c0,0.4,0,0.8,0.1,1.2
		c0.3,5,1.1,9.8,2.8,14.6c0.7,2.1,0.1,2.8-2.1,2.5c-1.4-0.2-2.8-0.6-4.2-1.1c-5.8-2.3-10-6.5-13.4-11.6c-2.1-3.2-3.7-6.7-5-10.3
		c-0.1-0.3-0.2-0.7-0.6-0.7c-0.4,0-0.3,0.5-0.3,0.7c-0.6,3.8-1.3,7.6-2.4,11.3c-3.5,12.4-9.3,23.4-19.3,31.9
		c-0.9,0.8-1.1,1.6-0.9,2.7c1.2,8.7,2.3,17.4,3.5,26.1c1.7,11.7,3.7,23.4,6.6,34.8c2.4,9.3,5.4,18.4,10.2,26.8
		c4.7,8.3,10.7,15.3,19.2,19.9c7.2,4,15.1,5.6,23.2,6.1c6.1,0.4,12.1-0.1,18.2-0.9c8.7-1.2,17.3-3.1,25.4-6.8
		c11.4-5.2,19.8-13.3,24.7-25c0.7-1.6,1-3.2,1-4.9C533,552.5,533,540,533,527.5z"/>
	<path fill="#FAE0D6" d="M836.4,537.4c0,7,0.1,14.1-0.1,21.1c-0.1,2.9,0.8,4.9,2.9,6.9c19,18.1,41.7,24.2,67.2,20
		c19.3-3.2,34.4-13.7,45.6-29.7c10.2-14.5,14.7-30.9,15.5-48.4c0.1-1.5-0.1-1.6-1.8-1.8c-7.8-0.7-15-3.2-21.6-7.4
		c-14-8.8-23.4-21.3-28.7-36.9c-0.2-0.5-0.3-1.1-0.5-1.6c0-0.1-0.2-0.2-0.3-0.3c-0.1,0.1-0.1,0.3-0.2,0.4c0,0.5,0,1,0,1.4
		c0.1,5.4,0.6,10.7,1.4,16c0.4,2.4,0,2.8-2.5,2.8c-9.5-0.3-18.5-2.6-26.8-7.3c-9.6-5.4-17.2-12.8-21-23.4c-0.1-0.2-0.1-0.3-0.1-0.5
		c-0.3-0.7-0.6-0.6-1-0.1c-0.4,0.5-0.7,1.1-1,1.6c-3,4.6-6.4,9-10.2,13c-4.4,4.6-9.3,8.5-15,11.5c-0.8,0.4-1.7,0.7-1.7,2
		c0.1,4.1,0,8.2,0,12.2c0,0.9,0.3,1.2,1.3,1.1c1.7-0.2,3.4-0.3,5,0.1c5.5,1.4,8.9,6.6,8.2,12.4c-0.7,5.3-5.4,9.5-11,9.5
		c-0.9,0-1.8-0.1-2.6-0.2c-0.6-0.1-0.9,0.2-0.9,0.8c0,0.6,0,1.3,0,1.9C836.4,522.4,836.4,529.9,836.4,537.4z"/>
	<path fill="#EBBE62" d="M533,450.6C533,450.6,533,450.6,533,450.6c0-2.6,0-5.3,0-7.9c0-1.2-0.3-2.3-0.8-3.5
		c-1.3-2.9-2.6-5.8-3.8-8.8c-3-7.1-6-14.1-10.2-20.6c-4.8-7.5-11-13.5-19-17.5c-9.6-4.7-19.8-6-30.3-6c-7.2,0-14.4,0.9-21.4,2.1
		c-9.5,1.7-18.7,4.1-27.4,8.4c-2,1-2,1-3.7-0.7c-1.7-1.7-3.4-3.4-5.1-5.1c-0.2-0.2-0.4-0.5-0.8-0.4c-0.4,0.1-0.3,0.5-0.3,0.8
		c-0.1,1.4-0.3,2.9-0.4,4.3c-0.2,2.8-0.6,3.1-3.2,2.4c-1.4-0.4-2.8-0.8-4.1-1.2c-0.4-0.1-0.8-0.4-1.1,0c-0.3,0.4,0,0.7,0.2,1.1
		c1.1,2.4,2.1,4.8,3.2,7.2c0.5,1.1,0.5,2.1-0.4,3.1c-6.7,7.2-10.4,15.8-12.5,25.3c-2.2,9.5-2.9,19.1-4.1,28.7
		c-0.8,6.6-1.9,13.1-3.8,19.5c-1.1,3.7-2.6,7.2-4.4,10.6c-0.2,0.3-0.5,0.7-0.1,1c0.2,0.2,0.6,0.1,0.9,0.1c2.4-0.4,4.7-1,6.9-1.9
		c9.7-3.9,17.1-10.5,22.8-19.1c6.2-9.5,9.4-20.1,10.9-31.2c0.4-2.9,0.6-5.9,0.9-8.8c0.1-0.9,0.5-1.6,1.4-1.6c0.8,0,1.3,0.5,1.5,1.3
		c0.1,0.7,0.3,1.4,0.5,2.1c1.7,7.1,4.2,13.7,8.6,19.6c2.5,3.4,5.7,6.1,9.6,7.8c0.7,0.3,1.5,0.9,2,0.5c0.7-0.5,0-1.3-0.1-2
		c-1.4-5.5-1.9-11.2-1.7-16.9c0-0.9,0.1-1.8,1.1-2.2c1.1-0.4,1.6,0.4,2.1,1.1c9.6,11.7,22,16.8,37.1,15.4c3-0.3,6-0.9,8.9-1.8
		c0.4-0.1,0.9-0.1,1-0.5c0.1-0.6-0.5-0.7-0.9-0.9c-1.8-1.2-3.5-2.5-5.1-4c-4.9-4.9-8.4-10.9-11.1-17.2c-0.8-1.8-1.4-3.7-2.2-5.6
		c-0.3-0.8-0.2-1.5,0.5-1.9c0.8-0.5,1.5-0.2,2.1,0.5c0.2,0.3,0.5,0.6,0.7,1c2.9,3.9,6.3,7.2,10.2,10c10,7.2,21.2,10.2,33.4,9.7
		c0.4,0,0.8-0.1,1.2,0c0.8,0.2,1.3,0.7,1.3,1.5c0,0.7-0.5,1.2-1.2,1.3c-1,0.1-2.1,0.2-3.1,0.3c-0.8,0.1-0.9,0.5-0.5,1.1
		c2.9,4.7,6.6,8.4,12.2,9.8c1.6,0.4,1.7,0.3,1.7-1.3C533.1,456.5,533,453.5,533,450.6z"/>
	<path fill="#151D38" d="M836.4,446.8c0,7.6,0,15.2,0,22.8c0,0.8-0.5,2,0.4,2.4c0.8,0.4,1.6-0.6,2.3-1c7.2-4.4,13-10.3,18.1-17
		c2.5-3.4,4.8-7,6.9-10.7c0.4-0.7,0.9-1.4,1.9-1.2c1,0.2,1.2,0.9,1.3,1.8c0.8,5.8,3.4,10.8,7.2,15.2c9.7,11.2,22.1,16.8,36.7,17.9
		c1.5,0.1,1.5,0,1.4-1.7c-0.3-2.9-0.6-5.7-0.8-8.6c-0.5-6.7-0.2-13.4,1.3-20c0.2-0.8,0.4-1.5,0.7-2.3c0.3-0.6,0.9-0.9,1.6-0.7
		c0.6,0.2,0.9,0.6,1,1.2c0,0.5,0,1-0.1,1.4c-0.3,3.1,0.1,6.2,0.8,9.3c1.8,8.3,5.4,15.9,10.4,22.7c7.2,10,16.3,17.8,28.1,21.9
		c8.4,2.9,17,3.3,25.7,1.4c1.3-0.3,1.4-0.5,0.4-1.4c-1.5-1.5-2.7-3.2-3.7-5c-1.7-3.2-3-6.5-4.1-10c-2.3-7.2-4.4-14.5-6.7-21.8
		c-3.2-10.1-7.3-19.8-13-28.8c-16.7-26.4-47.8-33.6-67.6-30.2c-9.4,1.6-17.6,5.6-24.3,12.5c-1.1,1.1-2,2.3-3,3.4
		c-1.1,1.3-1.9,1.2-2.9-0.1c-0.6-0.8-1.1-1.6-1.7-2.3c-2.4-2.5-5.2-3.8-8.8-3.1c-3.3,0.7-5.7,2.7-8,4.9c-1,1-1.5,2.1-1.5,3.6
		C836.5,431.4,836.4,439.1,836.4,446.8z"/>
	<path fill="#EBBE62" d="M836.4,592.6c0,7.7,0,15.4,0,23c0,1.7,0.5,2.7,2,3.6c21.4,12.8,44.2,16.7,68.5,11.1
		c11.4-2.6,21.9-7.5,31.5-14.3c1.4-1,2.2-2,2-3.9c-0.3-3.5-0.6-7-1-10.5c-0.9-7.5-2.5-14.8-5-21.9c-0.6-1.8-0.7-1.8-2.2-0.8
		c-5.1,3.1-10.4,5.6-16.1,7.3c-11.7,3.6-23.5,4.3-35.6,2.5c-16-2.4-30.1-8.8-42-20c-0.3-0.3-0.7-0.7-1.1-1c-0.5-0.4-0.9-0.4-0.9,0.3
		c0,0.6,0,1.3,0,1.9C836.4,577.5,836.4,585,836.4,592.6z"/>
	<path fill="#151D38" d="M533,594.4c0-5.7,0-11.4,0-17c0-0.5,0.2-1.1-0.4-1.2c-0.4-0.1-0.6,0.5-0.8,0.8
		c-6.2,10.9-15.5,17.9-27.1,22.2c-15.2,5.6-31,7.7-47.1,5.8c-10.8-1.3-20.3-5.5-28.3-13c-1.4-1.4-2.7-2.9-4.1-4.4
		c-1-1.1-1.1-1-1.6,0.4c0,0.1,0,0.2-0.1,0.2c-2.3,8.7-3.4,17.5-3.9,26.5c-0.1,1.1,0.3,1.8,1.2,2.4c4.5,3.2,9.2,6.1,14.2,8.5
		c17,8.1,34.8,10.8,53.4,7.8c16-2.6,30.2-9,42.8-19.2c1.3-1,1.7-2.1,1.7-3.7C533,605.1,533,599.7,533,594.4z"/>
	<path fill="#FFFFFF" d="M395.8,528.2c0.2-3-0.1-5.9-0.2-8.9c0-1-0.4-1.6-1.4-1.8c-1.2-0.3-2.2-1-3.1-1.7c-1.6-1.2-1.6-1.2-2.3,0.6
		c-2.3,6.9-3.8,14-4.2,21.3c-1.2,18.1,2.5,35.1,11.4,51c5,8.9,11.4,16.8,19.1,23.5c0.5,0.4,1,1.3,1.7,1c0.6-0.3,0.3-1.3,0.4-2
		c0.7-8.9,1.9-17.6,4.4-26.2c0.3-1,0.6-1.9-0.1-2.9c-1.7-2.4-3.1-5-4.4-7.7c-0.5-1-1-1.2-2.1-0.8c-3.7,1.5-7.7,2.1-11.7,2.4
		c-2.2,0.2-4.3,0.1-6.5-0.3c-1.4-0.3-1.8-1.2-1.1-2.4c0.3-0.5,0.7-0.9,1-1.4c1.4-1.8,2.6-3.8,3.7-5.9c1-1.8,1.7-3.8,2.2-5.8
		c0.2-0.8,0-1.3-1-0.8c-0.8,0.4-1.6,0.7-2.4,1c-3.5,1.1-6.9,0.9-10-1.4c-1.7-1.3-1.8-2-0.6-3.8c2.4-3.2,3.9-6.8,4.9-10.6
		C395.1,539.3,395.6,533.8,395.8,528.2z"/>
	<path fill="#151D38" d="M979.2,568.4c0-0.7-0.6-1.1-0.9-1.6c-4.2-5.7-7.6-11.8-10.2-18.4c-0.8-2.2-1.6-4.4-2.3-6.5
		c-0.3-0.8-0.7-1.7-1.4-1.8c-0.9-0.1-0.9,1-1.1,1.5c-5.7,13.4-14,24.7-25.7,33.4c-1.1,0.8-1.2,1.6-0.7,2.8c1.4,3.5,2.3,7.1,3.2,10.8
		c0.2,0.9,0.5,1.7,0.6,2.6c0.2,1.2,0.8,1.2,1.6,0.7c0.3-0.1,0.6-0.3,0.9-0.4c9.8-4.4,19.1-9.8,27.8-16.1c2.5-1.8,5-3.7,7.3-5.8
		C978.5,569.4,979,569.1,979.2,568.4z"/>
	<path fill="#EBBE62" d="M403.7,573c3.2-0.1,6.5-0.7,9.8-1.9c1.6-0.6,1.6-0.7,1-2.2c-5.8-14.2-8.8-29.1-11.3-44.2
		c-0.4-2.3-0.7-4.6-1.1-6.9c-0.1-0.4-0.1-1.2-0.7-1c-0.9,0.3-1.8,0.7-2.6,1.2c-0.6,0.4-0.3,1.2-0.2,1.8c0.5,6.3,0.2,12.6-0.7,18.9
		c-0.8,5.7-2.4,11.2-5.4,16.3c-1.4,2.3-1.2,2.7,1.4,3.1c0.8,0.1,1.6,0.2,2.4,0.1c2.5-0.3,4.5-1.4,6.4-3c1.5-1.3,2.6-0.9,2.9,1.1
		c0.3,1.9,0.1,3.8-0.4,5.7c-0.8,3.1-2.2,5.8-3.8,8.5c-0.5,0.8-1.6,1.7-1.2,2.4c0.5,0.8,1.9,0.3,2.9,0.3
		C403.2,573.1,403.3,573,403.7,573z"/>
	<path fill="#FAE0D6" d="M981.7,519.4c0.3-3,0.1-5.3-0.3-7.5c-0.3-1.7-0.8-3.2-1.6-4.7c-0.7-1.3-1.5-1.9-3-1.7
		c-1.4,0.3-2.9,0.3-4.3,0.4c-1.9,0.2-1.9,0.2-2,2.1c-0.4,8.8-1.8,17.5-4.4,25.9c-1,3.2,1.1,5.8,4.5,5.5c2.2-0.2,3.9-1.3,5.4-2.9
		c1.7-1.8,2.9-4,3.7-6.4C980.9,526.4,981.6,522.6,981.7,519.4z"/>
	<path fill="#FAE0D6" d="M401,510.9c0-0.3-0.1-0.8-0.2-1.2c-0.8-6.3-1.7-12.6-2.5-19c-0.2-1.5-0.3-1.6-1.6-0.8
		c-3.1,2-6.3,3.7-9.8,4.8c-1.1,0.4-1.3,1-1.1,2c0.5,4.2,1.4,8.3,3.4,12.2c0.9,1.6,1.9,3.1,3.3,4.3c1.1,1,2.4,1.6,3.8,1.8
		C398.9,515.3,401,513.6,401,510.9z"/>
	<path fill="#FFFFFF" d="M941.5,596.2c0.8,5.2,1.4,10.1,1.7,14.9c0,0.8,0.5,0.7,1,0.3c1.2-1,2.4-2.1,3.6-3.2
		c7.4-7,13.5-14.9,18.1-24c0.3-0.5,1-1.2,0.6-1.7c-0.5-0.5-1.1,0.3-1.6,0.6c-3.9,2.5-7.9,4.8-12,6.9c-3.3,1.7-6.6,3.3-9.9,4.8
		C942.1,595.3,941.3,595.5,941.5,596.2z"/>
	<path fill="#E5384A" d="M836.4,501.1c0,2,0.1,4,0,6c-0.1,1.3,0.4,1.9,1.6,2.2c3.1,0.8,6.7-0.6,8.6-3.4c2-2.9,2-6.5-0.1-9.4
		c-1.9-2.7-5.6-4.1-8.7-3.2c-1,0.3-1.5,0.7-1.4,1.8C836.5,497.1,836.4,499.1,836.4,501.1z"/>
	<path fill="#FFFFFF" d="M976.1,546.8c0-1.7,0-3.3,0-5c0-0.8-0.2-1.3-1.1-0.7c-1.5,0.9-3.1,1.2-4.8,1.4c-0.7,0.1-1,0.3-0.7,1
		c1.3,3.9,2.9,7.8,4.9,11.4c0.1,0.3,0.3,0.6,0.7,0.5c0.4-0.1,0.3-0.5,0.4-0.8C975.6,552.1,975.9,549.4,976.1,546.8z"/>
	<path fill="#151D38" d="M533,465c0-0.3-0.1-0.5-0.4-0.5c-0.1,0-0.2,0.3-0.2,0.3c0.1,0.2,0.2,0.5,0.3,0.5
		C533.1,465.5,533,465.2,533,465z"/>
	<path fill="#151D38" d="M1116.9,704.1c0,0.6-0.3,1.1-0.9,1.3c-0.4,0.1-0.9,0.2-1.4,0.3c-6,0.2-10.9,2.9-14.9,7.3
		c-4.7,5.1-6.8,11.3-7.3,18.1c-0.1,0.7,0,1.4-0.2,2.1c-0.2,0.7-0.8,1-1.5,1c-0.6,0-1.1-0.4-1.2-1c-0.1-0.5-0.1-1.1-0.1-1.7
		c-0.4-6.9-2.6-13.2-7.2-18.4c-4-4.5-8.9-7.2-15-7.5c-0.4,0-0.8,0-1.2-0.2c-0.7-0.2-1.1-0.7-1.1-1.4c0-0.7,0.4-1.2,1.1-1.4
		c0.5-0.1,0.9-0.2,1.4-0.2c6-0.3,10.8-3.1,14.8-7.5c4.7-5.2,6.8-11.5,7.2-18.4c0-0.6,0-1.1,0.1-1.7c0.1-0.6,0.6-1,1.2-1
		c0.7,0,1.3,0.2,1.5,1c0.2,0.8,0.1,1.6,0.2,2.4c0.6,7.8,3.4,14.6,9.4,19.9c3.6,3.2,7.7,5.1,12.6,5.3c0.6,0,1.1,0.1,1.6,0.3
		C1116.6,703,1116.9,703.5,1116.9,704.1z M1091,686.3c-0.7,0.2-0.7,0.9-0.8,1.3c-2.8,7-7.3,12.5-14.2,15.8c-0.3,0.2-0.9,0.3-0.8,0.7
		c0.1,0.3,0.6,0.5,0.9,0.7c6.7,3.2,11.1,8.5,13.9,15.2c0.2,0.4,0.3,0.9,0.5,1.3c0.1,0.2,0.1,0.5,0.4,0.4c0.3,0,0.4-0.2,0.5-0.5
		c0.1-0.4,0.3-0.7,0.4-1.1c2.8-6.8,7.2-12.2,14-15.4c0.3-0.2,0.9-0.5,0.9-0.7c-0.1-0.5-0.6-0.6-1.1-0.8c-6.4-3.1-10.7-8.2-13.5-14.6
		c-0.3-0.6-0.5-1.2-0.7-1.8C1091.3,686.7,1091.1,686.5,1091,686.3z"/>
	<path fill="#151D38" d="M844.2,290.5c-0.1,0.8-0.6,1.5-1,2.1c-10.1,17.4-20.2,34.9-30.2,52.3c-1.8,3-3.5,6.1-5.3,9.1
		c-1.3,2.2-2.3,2.2-3.6,0c-4.2-7.3-8.5-14.7-12.7-22c-0.9-1.6-0.9-2.4,0-2.9c0.9-0.5,1.6-0.1,2.5,1.5c3.3,5.7,6.5,11.4,9.8,17
		c0.5,0.8,1,1.7,1.4,2.5c0.4,0.6,0.8,0.8,1.2,0.1c0.5-0.8,1-1.7,1.5-2.5c10.9-18.9,21.9-37.8,32.8-56.6c0.3-0.6,0.6-1.1,1-1.6
		c0.5-0.6,1.1-0.6,1.7-0.3C844,289.4,844.3,289.9,844.2,290.5z"/>
	<path fill="#151D38" d="M519.8,253.1c-1-0.1-1.4-0.8-1.4-1.8c0-1.5-0.2-3-0.6-4.5c-1.7-6.6-5.3-11.6-12.1-13.6
		c-0.9-0.3-1.9-0.4-2.8-0.4c-1,0-1.8-0.3-1.9-1.4c-0.1-1.2,0.7-1.5,1.7-1.5c8-0.1,15.1-7.7,15.7-17.7c0-0.6,0-1.1,0.1-1.7
		c0.2-0.7,0.7-1.1,1.4-1c0.7,0.1,1.2,0.5,1.2,1.2c0.1,1.2,0.2,2.4,0.4,3.6c0.4,2.9,1.4,5.6,3,8c2.8,4.3,6.7,7,11.9,7.5
		c1,0.1,2.3,0,2.3,1.5c0,1.4-1.2,1.4-2.3,1.5c-7.2,0.8-11.4,5.2-13.9,11.6c-0.9,2.3-1.1,4.6-1.3,7
		C521.2,252.4,521,253.1,519.8,253.1z M529.9,231.5c0.1-0.3,0.1-0.3-0.5-0.7c-4.1-2.2-6.9-5.6-8.8-9.7c-0.2-0.3-0.2-0.9-0.7-0.9
		c-0.4,0-0.5,0.5-0.7,0.9c-1.4,3-3.3,5.7-5.9,7.7c-1.1,0.9-2.3,1.7-3.5,2.5c0.9,1.2,2.4,1.7,3.6,2.7c2.5,2.2,4.4,4.8,5.8,7.8
		c0.2,0.4,0.3,0.8,0.7,0.8c0.2,0,0.4-0.4,0.5-0.7c2-4.3,4.8-7.7,9-9.9C529.6,231.8,529.8,231.6,529.9,231.5z"/>
	<path fill="#151D38" d="M866.1,239.6c-0.8-0.1-1.2-0.6-1.3-1.4c-0.1-1.1-0.1-2.2-0.3-3.3c-1.1-6.2-4-11.1-9.7-13.9
		c-1.6-0.8-3.3-1.1-5.1-1.3c-1-0.1-2-0.2-1.9-1.5c0.1-1.1,0.9-1.4,1.9-1.4c7-0.1,13.5-6.5,14.8-14.9c0.2-1.1,0.2-2.2,0.3-3.3
		c0.1-0.9,0.4-1.6,1.4-1.6c1,0,1.4,0.7,1.4,1.6c0.1,1.6,0.2,3.2,0.6,4.7c1.3,5,3.8,9.1,8.4,11.7c1.8,1,3.6,1.6,5.7,1.8
		c0.5,0,1,0,1.4,0.2c0.7,0.2,1,0.8,1,1.5c0,0.6-0.3,1.1-1,1.2c-0.3,0.1-0.6,0.1-1,0.1c-7.6,0.5-12.8,6.6-14.5,13.4
		c-0.4,1.6-0.5,3.1-0.6,4.7C867.6,239,867,239.6,866.1,239.6z M875.9,218.3c-0.1-0.5-0.4-0.7-0.8-0.9c-3.8-2.2-6.5-5.4-8.3-9.3
		c-0.2-0.4-0.3-0.8-0.7-0.8c-0.2,0-0.4,0.5-0.5,0.8c-1.8,4-4.6,7.3-8.4,9.5c-0.8,0.4-0.9,0.8,0,1.3c3.9,2.2,6.6,5.4,8.5,9.5
		c0.1,0.3,0.3,0.7,0.5,0.7c0.3,0.1,0.5-0.3,0.6-0.6c1.9-4.1,4.6-7.4,8.6-9.6C875.6,218.6,875.7,218.5,875.9,218.3z"/>
	<path fill="#151D38" d="M1092.3,529.4c-0.1,0.7-0.5,1.1-1.2,1.3c-0.8,0.2-1.6,0.3-2.3,0.6c-3,1.3-4.4,3.8-5,6.9
		c-0.1,0.5-0.1,1.1-0.2,1.7c-0.1,0.6-0.6,0.9-1.2,1c-0.7,0.1-1.3-0.3-1.5-1c-0.1-0.5-0.1-1.1-0.2-1.7c-0.7-3.9-2.6-6.7-6.8-7.3
		c-0.8-0.1-1.6-0.3-1.7-1.4c0-1.1,0.8-1.4,1.7-1.6c4.1-0.8,6.2-3.2,6.8-7.5c0.2-1,0-2.2,1.4-2.4c0.9-0.2,1.4,0.6,1.6,2.4
		c0.2,1.4,0.5,2.7,1.3,3.8c1.2,2,2.9,3.4,5.3,3.7C1091.8,528,1092.4,528.5,1092.3,529.4z M1082.3,525.8c-0.1,0.1-0.3,0.1-0.4,0.2
		c-0.7,1.1-1.6,1.9-2.6,2.8c-0.1,0.1-0.3,0.5-0.3,0.6c1,1.1,2,2.2,3,3.4c0,0,0.2,0.1,0.2,0c1.1-1.2,2.2-2.4,3.2-3.6
		c-1-1.1-2-2.2-3-3.3C1082.5,525.8,1082.4,525.9,1082.3,525.8z"/>
	<path fill="#151D38" d="M279.3,620.7c-0.1,1-0.6,1.5-1.4,1.5c-1.4,0.1-2.7,0.6-3.8,1.4c-1.7,1.3-2.7,3.1-3.1,5.2
		c-0.1,0.7-0.2,1.4-0.3,2.1c-0.1,0.7-0.5,1.2-1.2,1.2c-0.8,0.1-1.4-0.4-1.5-1.2c-0.1-0.4-0.1-0.8-0.1-1.2c-0.5-4.1-2.7-6.7-6.8-7.6
		c-1-0.2-1.8-0.5-1.7-1.6c0-1,0.8-1.3,1.7-1.4c3.9-0.2,6.5-4,6.9-7.5c0-0.3,0-0.6,0-1c0.1-0.9,0.5-1.5,1.5-1.5
		c0.9,0,1.2,0.6,1.4,1.4c0.1,0.7,0.2,1.4,0.4,2.1c0.9,3.5,2.8,5.9,6.5,6.4C278.6,619.4,279.3,619.7,279.3,620.7z M269.2,624.3
		c0.4,0,0.5-0.2,0.6-0.3c0.9-1.1,1.8-2.2,2.7-3.2c-0.8-0.9-1.7-1.9-2.5-2.9c-0.5-0.6-0.8-0.8-1.4-0.1c-0.8,1.1-2.4,2.1-2.3,3
		c0,1,1.6,2,2.4,3C268.9,624.1,269.1,624.2,269.2,624.3z"/>
	<path fill="#151D38" d="M596.2,413.5c5.1,0,10.2,0,15.4,0c3.3,0,2.7,0.2,3.1-2.8c0.7-6,1.6-12,3.1-17.9c1.6-6.5,3.7-12.7,6.9-18.6
		c6.4-11.9,16.2-19.5,29.1-23.4c7.2-2.2,14.7-3.2,22.2-3.6c10.7-0.6,21.4-0.2,32,2.1c10.3,2.2,19.6,6.5,27,14.1
		c5.8,6,9.7,13.3,12.4,21.1c3.1,8.8,4.7,17.9,5.7,27.1c0.4,3.9,0.7,7.8,1,11.7c0.1,1.1,0.3,1.3,1.5,1c4.5-1.5,8.4-0.1,11.3,3.9
		c2,2.8,3.1,5.9,3.7,9.3c1.1,6.3,1,12.6-0.6,18.8c-0.9,3.3-2.3,6.3-4.9,8.6c-1,0.9-0.5,1.5-0.1,2.3c2.9,5.2,5.4,10.7,7.2,16.4
		c10.3,32,3,67.7-20.8,92.7c-14.6,15.4-32.4,25-53.3,28c-30,4.3-56.4-3.9-78.5-24.7c-15.1-14.2-24.2-31.7-27.5-52.1
		c-3.4-21,0-40.9,10.1-59.6c0.3-0.5,0.5-1,0.8-1.5c0.3-0.5,0.4-1-0.1-1.5c-4.5-4.2-5.8-9.8-6.2-15.6c-0.4-4.8-0.2-9.6,1.1-14.3
		c0.9-3.1,2.2-6,4.6-8.3c2.9-2.8,6.2-4,10.1-2.4c1,0.4,1.3,0.1,1.4-0.8c0.1-1.9,0.2-3.8,0.3-5.7c0.1-1.1-0.5-1.4-1.4-1.4
		c-0.6,0-1.1,0-1.7,0c-10.1,0-20.2,0-30.2,0c-0.7,0-1.4,0-2.2-0.1c-0.7-0.1-1.1-0.6-1.1-1.4c0-0.7,0.4-1.2,1.1-1.3
		c0.6-0.1,1.3-0.1,1.9-0.1C585.7,413.5,591,413.5,596.2,413.5z"/>
	<path fill="#FAE0D6" d="M683.8,416.4c-16.1,0-32.1,0-48.2,0c-3.2,0-2.9-0.2-2.9,3c0,18.6,0,37.3,0,55.9c0,3.1-0.1,6.2-1,9.3
		c-2.1,7-6.2,12.2-13.2,14.8c-0.9,0.3-0.8,0.9-0.7,1.5c0.3,2.3,0.6,4.6,0.9,6.9c1.2,7.8,2.9,15.6,5.7,23c2.9,7.6,7,14.4,12.9,20
		c7.7,7.3,17.1,11.1,27.3,13c7.5,1.4,15,1.8,22.7,1.6c6.9-0.2,13.7-0.9,20.4-2.6c15.1-3.7,26.3-12.3,33.2-26.3
		c4.1-8.3,6.3-17.1,7.9-26.1c0.5-3.1,0.9-6.3,1.3-9.5c0.1-0.6,0.3-1.2-0.6-1.5c-5.1-1.5-8.5-5-11.1-9.3c-2.5-4.1-3.3-8.6-3.3-13.3
		c0-19,0-38.1,0-57.1c0-0.6,0-1.3,0-1.9c0-0.9-0.3-1.4-1.3-1.3c-0.6,0-1.3,0-1.9,0C715.7,416.4,699.8,416.4,683.8,416.4z"/>
	<path fill="#7DA4EC" d="M683.7,413.5c21,0,42.1,0,63.1,0c0.6,0,1.3,0,1.9,0c1.5-0.1,1.6-0.2,1.4-1.7c-0.3-2.2-0.6-4.4-0.9-6.6
		c-1.3-8.5-3.3-16.8-6.7-24.7c-5.7-13.3-15.4-22.4-29.3-26.8c-5.4-1.7-11-2.7-16.7-3.2c-12.2-1.1-24.4-0.9-36.5,1.6
		c-17.8,3.7-30,13.9-36.3,31c-3.3,9-5.1,18.3-6.2,27.8c-0.3,2.7-0.2,2.7,2.5,2.7C641.3,413.5,662.5,413.5,683.7,413.5z"/>
	<path fill="#7DA4EC" d="M685.3,602.5c2.6-0.2,5.1-0.3,7.5-0.5c1.4-0.1,2.7-0.3,4-0.5c18.9-3,35.2-11,49.2-24.1
		c1.2-1.1,1.4-2.1,1.1-3.6c-1.2-5.5-2.5-10.9-4.2-16.2c-1.1-3.5-2.5-6.9-3.9-10.3c-0.3-0.8-0.8-0.9-1.3-0.2
		c-0.1,0.2-0.3,0.4-0.4,0.6c-6.7,8.4-15.4,13.8-25.6,17c-9.3,2.9-18.8,3.7-28.4,3.7c-7.4,0-14.7-0.6-21.9-2.3
		c-12.5-2.9-23.3-8.6-31.3-19c-1.1-1.5-1.2-1.5-1.9,0.2c-3.8,8.7-6.3,17.8-8.1,27c-0.2,1.2,0.1,1.9,0.9,2.7
		c7.3,7,15.6,12.7,24.8,17.1C658.3,600,671.6,602.6,685.3,602.5z"/>
	<path fill="#FFFFFF" d="M593.7,512.4c0,1.8-0.1,3.5,0,5.3c0.1,1.8,0.2,3.5,0.5,5.3c2.3,18.2,9.3,34.3,21.3,48.2
		c0.3,0.4,0.6,0.7,1,1.1c0.5,0.5,0.8,0.3,1-0.3c0.1-0.5,0.2-0.9,0.3-1.4c2-9.1,4.5-18,8.5-26.4c0.5-1.2,0.4-2-0.2-3.1
		c-3.1-5.3-5.3-10.9-6.9-16.8c-3.8-13.2-5-26.8-5.6-40.5c-0.2-5.3-0.2-10.6-0.3-15.8c0-1.6-0.1-1.7-1.6-1.1
		c-1.2,0.4-2.4,0.6-3.5,0.3c-1.8-0.5-2.5,0.4-3.3,1.8C597.4,482.5,593.7,497,593.7,512.4z"/>
	<path fill="#FFFFFF" d="M773.8,512.3c0-6.3-0.7-12.5-2-18.6c-1.9-8.7-5-17-9.2-24.9c-0.7-1.3-1.5-1.9-3-1.6c-1.2,0.2-2.4,0-3.5-0.4
		c-1.4-0.5-1.4-0.5-1.5,1c0,0.5,0,1,0,1.4c-0.1,12.9-0.6,25.7-2.5,38.5c-1.8,12-4.6,23.7-10.9,34.3c-0.5,0.8-0.6,1.5-0.2,2.4
		c4,8.7,6.7,17.8,8.7,27.1c0.1,0.4,0,0.9,0.4,1c0.6,0.3,0.8-0.3,1.1-0.6c0.3-0.3,0.6-0.7,0.9-1.1
		C766.4,553.9,773.5,534.3,773.8,512.3z"/>
	<path fill="#151D38" d="M751.4,455.7c0-7.8,0.1-15.5,0-23.3c-0.1-4.8-0.1-9.6-0.7-14.4c-0.2-1.7-0.2-1.7-1.9-1.7c-3,0-6.1,0-9.1,0
		c-1.8,0-1.8,0.1-1.8,1.9c0,1.4,0,2.9,0,4.3c0,17.9,0,35.8,0,53.7c0,5.9,1.4,11.2,5.5,15.7c1.6,1.8,3.6,3.2,5.7,4.3
		c0.9,0.4,1.3,0.1,1.4-0.8c0-0.2,0-0.5,0.1-0.7c0.3-4.9,0.6-9.7,0.8-14.6C751.8,472,751.6,463.8,751.4,455.7z"/>
	<path fill="#151D38" d="M616.1,456.1c-0.5,4.6,0,10.3,0,15.9c0,7.6,0.4,15.2,1,22.7c0.2,1.8,0.4,2,2,1.1c4.4-2.4,7.4-6,9.1-10.7
		c1.2-3.2,1.5-6.5,1.5-9.9c0-18.7,0-37.4,0-56.1c0-0.4,0-0.8,0-1.2c0.1-1.2-0.4-1.7-1.7-1.7c-3.1,0.1-6.2,0.1-9.4,0
		c-1.4,0-1.8,0.6-1.9,1.8c-0.1,2.6-0.4,5.1-0.4,7.7C616.1,435.6,616.1,445.3,616.1,456.1z"/>
	<path fill="#FAE0D6" d="M613.2,444.8c0-0.8,0.1-1.6,0.1-2.4c0.1-3.8,0.2-7.7,0.1-11.5c-0.1-3.4-2.7-5.2-5.9-4.2
		c-1.1,0.3-2,0.9-2.9,1.7c-2.2,2-3.4,4.6-4.2,7.4c-1.4,5.2-1.4,10.6-0.7,15.9c0.4,3.1,1.3,6.1,3.1,8.7c1,1.6,2.4,2.8,4.1,3.5
		c3,1.2,6-0.8,6.1-3.9C613.2,455,613.1,449.9,613.2,444.8z"/>
	<path fill="#FAE0D6" d="M754.4,444.8c0.1,0,0.1,0,0.2,0c0,4.4,0,8.8,0,13.2c0,1,0,1.9,0.2,2.9c0.5,2.8,2.9,4.1,5.6,3.3
		c1.5-0.5,2.7-1.4,3.7-2.6c1.4-1.6,2.3-3.5,2.9-5.5c1.9-6.9,2-13.9,0.1-20.8c-0.5-1.8-1.2-3.5-2.3-5c-1-1.4-2.3-2.7-3.9-3.4
		c-3.4-1.5-6.6,0.9-6.4,4.2C754.6,435.7,754.4,440.2,754.4,444.8z"/>
	<path fill="#151D38" d="M684.7,633.8c-33.3,0-66.7,0-100,0c-0.7,0-1.4,0-2.2,0c-0.7,0-1.2-0.3-1.3-1.1c-0.1-0.8,0.3-1.4,1.1-1.6
		c0.3-0.1,0.6-0.1,0.9-0.1c0.6,0,1.1,0,1.7,0c66.5,0,133,0,199.6,0c0.6,0,1.3,0,1.9,0c1,0,1.8,0.3,1.8,1.5c0,1.2-0.8,1.4-1.8,1.4
		c-0.7,0-1.4,0-2.2,0C751,633.8,717.9,633.8,684.7,633.8z"/>
	<path fill="#151D38" d="M637.4,656.3c17.6,0,35.2,0,52.8,0c0.7,0,1.4,0,2.2,0c0.8,0,1.2,0.4,1.3,1.2c0.1,0.8-0.3,1.4-1.1,1.6
		c-0.6,0.1-1.3,0.1-1.9,0.1c-5.4,0-10.7,0-16.1,0c-29.9,0-59.8,0-89.7,0c-0.8,0-1.6,0-2.4-0.1c-0.8-0.1-1.3-0.6-1.3-1.5
		c0-0.9,0.5-1.3,1.4-1.3c0.7,0,1.4,0,2.2,0C602.2,656.3,619.8,656.3,637.4,656.3z"/>
	<path fill="#151D38" d="M753,656.3c10.6,0,21.3,0,31.9,0c0.6,0,1.3,0,1.9,0c0.7,0,1.2,0.4,1.3,1.1c0.1,0.8-0.3,1.4-1.1,1.6
		c-0.5,0.1-1.1,0.1-1.7,0.1c-21.7,0-43.3,0-65,0c-0.6,0-1.1,0-1.7-0.1c-0.8-0.2-1.2-0.8-1.1-1.6c0.1-0.7,0.6-1.1,1.3-1.1
		c0.6,0,1.3,0,1.9,0C731.6,656.3,742.3,656.3,753,656.3z"/>
	<path fill="#151D38" d="M967.3,702.3c-3.9-0.5-7.7-1.1-11.5-1.6c-11.1-1.6-22.1-3.1-33.2-4.7c-7-1-13.9-1.9-20.9-2.9
		c-1.9-0.3-2.4-0.7-2.3-1.8c0.1-1.1,0.8-1.3,2.7-1.1c19,2.6,38,5.3,56.9,7.9c2.9,0.4,5.8,0.9,8.8,1.3c0.9,0.1,1.6,0.6,1.5,1.5
		c-0.1,1.1-0.9,1.4-1.9,1.3C967.4,702.3,967.3,702.3,967.3,702.3z"/>
	<path fill="#151D38" d="M394.7,703.8c-0.9,0.1-1.6-0.2-1.7-1.2c-0.1-1.1,0.5-1.5,1.6-1.7c3-0.4,6-0.9,9-1.3
		c12.3-1.7,24.5-3.5,36.8-5.2c11.9-1.7,23.7-3.3,35.6-5c8.4-1.2,16.8-2.4,25.2-3.5c0.6-0.1,1.1-0.2,1.7-0.2c0.9-0.1,1.6,0.4,1.7,1.3
		c0.1,0.8-0.4,1.3-1.2,1.5c-1.6,0.3-3.1,0.5-4.7,0.8c-11.9,1.7-23.9,3.3-35.8,5c-13.1,1.8-26.1,3.7-39.1,5.5
		c-9.3,1.3-18.5,2.6-27.8,3.9C395.3,703.7,395,703.8,394.7,703.8z"/>
	<path fill="#151D38" d="M464.8,519.2c-15.2-0.4-27.2-7.4-36.1-19.9c-1.4-1.9-0.9-2.9,1.5-3.2c9.3-1.3,18.5-2.6,27.8-3.9
		c9.8-1.4,19.6-2.7,29.4-4.1c5.8-0.8,11.6-1.6,17.3-2.4c2.1-0.3,2.8,0.5,2.1,2.6c-5.8,15.5-16.3,26-32.6,29.9
		c-1.4,0.3-2.8,0.6-4.2,0.7C468.3,519.1,466.7,519.1,464.8,519.2z"/>
	<path fill="#FFFFFF" d="M464.8,516.3c3.1,0,6.2-0.3,9.3-1.1c13.7-3.4,23-12.1,28.7-24.7c0.7-1.5,0.5-1.6-1.1-1.4
		c-6.6,0.9-13.3,1.8-19.9,2.8c-10.9,1.5-21.8,3.1-32.8,4.6c-5.1,0.7-10.1,1.4-15.2,2.2c-1.6,0.2-1.7,0.5-0.7,1.7
		C441.3,510.3,451.8,515.9,464.8,516.3z"/>
	<path fill="#151D38" d="M462.7,485.3c-2.1-0.1-4.5-0.4-6.8-1.1c-0.5-0.1-0.9-0.3-1.3-0.5c-0.6-0.4-0.9-0.9-0.7-1.6
		c0.2-0.7,0.7-1.1,1.4-1c0.5,0,0.9,0.2,1.4,0.3c6.4,1.8,12.5,1,18.2-2.5c0.4-0.2,0.8-0.5,1.2-0.7c0.7-0.3,1.5-0.3,1.9,0.5
		c0.4,0.7,0.2,1.4-0.4,1.9c-0.4,0.3-0.8,0.6-1.2,0.8C472.2,484,467.7,485.2,462.7,485.3z"/>
	<path fill="#151D38" d="M492.3,468.7c0.1,2.4-1.8,4.5-4.2,4.6c-2.5,0.1-4.6-1.8-4.7-4.4c-0.1-2.4,1.9-4.4,4.3-4.6
		C490.1,464.2,492.2,466.2,492.3,468.7z"/>
	<path fill="#151D38" d="M441.6,479.7c-2.6,0-4.4-1.8-4.4-4.3c0-2.5,1.9-4.4,4.4-4.5c2.6-0.1,4.7,2,4.6,4.5
		C446,477.9,444.2,479.7,441.6,479.7z"/>
	<path fill="#151D38" d="M892.2,522.1c-8.6-0.4-15.9-4.6-20.4-13.2c-0.1-0.2-0.2-0.4-0.3-0.6c-0.4-0.8-0.7-1.7-0.1-2.5
		c0.6-0.7,1.4-0.5,2.2-0.3c12.1,1.7,24.2,3.4,36.2,5.1c0.5,0.1,1,0.1,1.4,0.3c1,0.4,1.3,1.2,0.8,2.1c-0.3,0.6-0.8,1.2-1.3,1.7
		C906,519.5,900.2,522,892.2,522.1z"/>
	<path fill="#FFFFFF" d="M892.6,519.2c5.8,0,10.3-1.7,14.2-4.9c0.3-0.2,0.7-0.5,0.5-0.9c-0.1-0.2-0.5-0.3-0.8-0.4
		c-0.5-0.1-1.1-0.2-1.7-0.2c-4-0.6-7.9-1.1-11.9-1.7c-5.1-0.7-10.3-1.5-15.4-2.1c-0.7-0.1-1.6-0.6-1.9,0.2c-0.3,0.6,0.5,1.3,0.9,1.8
		C880.8,516.4,886.5,519,892.6,519.2z"/>
	<path fill="#151D38" d="M943.7,504.7c6.1-0.1,11.2,4.8,11.3,11c0.2,6.1-5.1,11.4-11.2,11.4c-6.1,0-11.2-5.1-11.2-11.1
		C932.6,509.8,937.6,504.8,943.7,504.7z"/>
	<path fill="#E5384A" d="M952,515.9c0.1-4.4-3.7-8.3-8.2-8.4c-4.4-0.1-8.4,3.8-8.3,8.2c0.1,4.5,3.3,8.2,8.2,8.3
		C948.1,524.2,952,520.4,952,515.9z"/>
	<path fill="#151D38" d="M892,533.1c-4.7,0-9.2-1.2-13.2-3.7c-0.5-0.3-0.9-0.6-1.4-1c-0.7-0.6-0.8-1.4-0.3-2.1
		c0.5-0.7,1.3-0.6,1.9-0.2c0.3,0.2,0.7,0.4,1,0.7c5.7,3.5,11.7,4.4,18.1,2.5c1.8-0.5,2.5-0.4,2.9,0.6c0.4,1-0.2,1.7-2.1,2.3
		C896.7,532.8,894.4,533.1,892,533.1z"/>
	<path fill="#151D38" d="M907.1,491c0-2.5,1.9-4.4,4.3-4.5c2.5-0.1,4.5,2,4.5,4.5c0,2.5-1.9,4.4-4.3,4.4
		C909,495.5,907.1,493.6,907.1,491z"/>
	<path fill="#151D38" d="M877.8,481.9c2.6,0,4.4,1.8,4.4,4.4c0,2.6-1.9,4.5-4.6,4.5c-2.5-0.1-4.3-2-4.3-4.5
		C873.4,483.7,875.3,481.9,877.8,481.9z"/>
	<path fill="#151D38" d="M895,500c-2.6,0.1-5.1-0.6-7.3-2.1c-0.5-0.3-0.9-0.6-1.2-1.1c-0.3-0.6-0.2-1.1,0.2-1.6
		c0.4-0.4,0.9-0.7,1.5-0.4c0.2,0.1,0.4,0.2,0.6,0.3c2.9,2,6,2.4,9.4,1.4c0.9-0.3,1.8-0.3,2.2,0.8c0.3,0.9-0.2,1.6-1.4,2.1
		C897.7,499.9,896.4,500,895,500z"/>
	<path fill="#151D38" d="M685.4,456.9c9.9-0.5,18.5-3,26-8.6c0.4-0.3,0.9-0.7,1.3-1c0.9-0.6,1.2-1.3,0.8-2.4
		c-0.6-1.8-0.3-2.6,0.6-2.9c0.9-0.3,1.4,0.2,2.1,2c1.7,4.7,5.2,6.9,10.2,6.5c0.2,0,0.3,0,0.5-0.1c1.5-0.1,2.1,0.2,2.2,1.2
		c0,1.3-0.9,1.5-1.9,1.7c-1,0.3-2.4-0.4-3.1,0.8c-0.5,0.9-0.5,2-0.7,3c-1.9,8.7-5.7,16.4-12.1,22.8c-14.3,14.2-37.5,15.1-52.8,2
		c-7.8-6.7-12.2-15.2-14.4-25.1c-0.1-0.3-0.1-0.6-0.2-0.9c-0.5-2.1-0.5-2.1-2.7-2.4c-0.7-0.1-1.5,0-2.1-0.5
		c-0.6-0.4-0.9-0.9-0.7-1.6c0.2-0.6,0.6-0.9,1.2-0.9c0.6,0,1.1,0.1,1.7,0.1c4.6,0.4,8.1-1.9,9.8-6.1c0.2-0.5,0.3-1.1,0.6-1.6
		c0.3-0.7,0.8-1,1.5-0.9c0.8,0.2,1.2,0.8,1.2,1.6c0,0.2,0,0.3-0.1,0.5c-1.3,2.1,0.2,3.1,1.7,4.2c6.8,5.1,14.6,7.7,23.1,8.5
		C681.4,456.8,683.7,457.2,685.4,456.9z"/>
	<path fill="#FFFFFF" d="M721,453.6c0.1-0.4-0.2-0.9-0.9-1.2c-1.4-0.6-2.7-1.4-3.7-2.6c-0.9-1.1-1.5-0.7-2.3,0
		c-9,7.1-19.4,10-30.6,10c-11.1-0.1-21.5-3-30.3-10.2c-0.8-0.6-1.3-0.7-2,0.1c-1,1.2-2.2,2.1-3.7,2.6c-1.1,0.4-1.1,1.1-0.9,2.1
		c1.1,5.3,2.7,10.3,5.4,15c1.4,2.5,1.4,2.5,4.1,1.5c10.1-3.6,22.7-0.1,27,8.9c0.6,1.3,1,0.4,1.4-0.2c2.8-5.1,7.2-8,12.7-9.4
		c5.1-1.2,10.1-0.9,15.1,1c1.7,0.7,1.7,0.7,2.6-0.8c0.8-1.4,1.7-2.9,2.4-4.4C719.1,462.2,720.2,458.1,721,453.6z"/>
	<path fill="#E5384A" d="M687.4,488c9.1-0.9,17.2-5,23.7-12.3c1-1.1,0.9-1.3-0.4-1.8c-7-2.4-13.7-1.8-19.7,2.7
		c-3.3,2.4-4.9,6-5.5,10C685.2,487.9,685.4,488.1,687.4,488z"/>
	<path fill="#E5384A" d="M664.8,472.5c-3,0-5.4,0.4-7.8,1.3c-1.6,0.6-1.7,0.7-0.5,2c6.3,7.1,14.2,11.1,23.7,12.1
		c1.9,0.2,2.1,0,1.8-1.9c-0.6-4.2-2.7-7.6-6.2-10.1C672.4,473.5,668.5,472.6,664.8,472.5z"/>
	<path fill="#151D38" d="M682.8,443.5c-2.6,0-6.6-0.7-10.3-2.6c-0.3-0.1-0.6-0.3-0.8-0.5c-0.6-0.4-0.8-1-0.5-1.7
		c0.3-0.7,0.9-1,1.6-0.8c0.5,0.1,1,0.4,1.6,0.6c6.4,2.7,12.7,2.7,19-0.1c0.4-0.2,0.9-0.4,1.3-0.5c0.7-0.1,1.3,0,1.6,0.7
		c0.3,0.7,0.2,1.4-0.5,1.9c-0.5,0.3-1,0.5-1.5,0.7C691.1,442.7,687.7,443.4,682.8,443.5z"/>
	<path fill="#151D38" d="M659.1,426.7c2.4,0,4.6,1.3,6.1,3.9c0.5,0.8,0.7,1.7-0.2,2.3c-0.7,0.6-1.5,0.2-2.3-0.9
		c-2.5-3.4-5.7-3.4-8.1,0c-0.1,0.1-0.2,0.3-0.2,0.4c-0.5,0.8-1.3,0.9-2.1,0.5c-0.7-0.4-0.7-1.1-0.4-1.9
		C652.6,428.6,655.4,426.7,659.1,426.7z"/>
	<path fill="#151D38" d="M708.8,426.7c3.2,0.1,5.5,1.4,6.9,4c0.5,0.9,0.6,1.7-0.4,2.3c-0.9,0.5-1.7,0.1-2.2-0.8
		c-0.8-1.4-1.9-2.4-3.5-2.5c-1.7-0.2-3.2,0.4-4.2,1.8c-0.2,0.3-0.4,0.7-0.6,1c-0.5,0.8-1.3,1-2.1,0.5c-0.8-0.4-0.8-1.2-0.5-1.9
		c0.9-2.2,2.6-3.6,4.9-4.2C707.8,426.8,708.4,426.7,708.8,426.7z"/>
</g>
</svg>
