<?xml version="1.0" encoding="UTF-8"?>
<svg width="54.689mm" height="44.166mm" version="1.1" viewBox="0 0 54.689 44.166" xmlns="http://www.w3.org/2000/svg" xmlns:cc="http://creativecommons.org/ns#" xmlns:dc="http://purl.org/dc/elements/1.1/" xmlns:rdf="http://www.w3.org/1999/02/22-rdf-syntax-ns#">
 <metadata>
  <rdf:RDF>
   <cc:Work rdf:about="">
    <dc:format>image/svg+xml</dc:format>
    <dc:type rdf:resource="http://purl.org/dc/dcmitype/StillImage"/>
    <dc:title/>
   </cc:Work>
  </rdf:RDF>
 </metadata>
 <g transform="translate(-283.13 -163.07)">
  <g id="XMLID_621_" transform="matrix(.26458 0 0 .26458 245.82 35.534)">
   <g id="XMLID_640_" transform="translate(-281.99 -58.252)">
    <g id="XMLID_635_">
     <g id="XMLID_3_">
      <path id="XMLID_833_" d="m618.9 702h-185.1c-3.1 0-5.6-2.5-5.6-5.6v-47.1c0-3.1 2.5-5.6 5.6-5.6h185.1c3.1 0 5.6 2.5 5.6 5.6v47.1c0 3.1-2.5 5.6-5.6 5.6z" fill="#6d6d6d"/>
     </g>
    </g>
    <g id="XMLID_627_">
     <g id="XMLID_753_">
      <path id="XMLID_8_" d="m618.9 707.2h-185.1c-6 0-10.8-4.8-10.8-10.8v-47.1c0-6 4.8-10.8 10.8-10.8h185.1c6 0 10.8 4.8 10.8 10.8v47.1c0 6-4.8 10.8-10.8 10.8zm-185.1-58.3c-0.2 0-0.4 0.2-0.4 0.4v47.1c0 0.2 0.2 0.4 0.4 0.4h185.1c0.2 0 0.4-0.2 0.4-0.4v-47.1c0-0.2-0.2-0.4-0.4-0.4z" fill="#333"/>
     </g>
    </g>
    <g id="XMLID_633_">
     <g id="XMLID_752_">
      <rect id="XMLID_832_" x="583" y="606.1" width="10.4" height="37.6" fill="#333"/>
     </g>
    </g>
    <g id="XMLID_634_">
     <g id="XMLID_747_">
      <circle id="XMLID_831_" cx="588.2" cy="601.6" r="15.1" fill="#73c9bb"/>
     </g>
    </g>
    <g id="XMLID_632_">
     <g id="XMLID_748_">
      <path id="XMLID_9_" d="m588.2 621.9c-11.2 0-20.3-9.1-20.3-20.3s9.1-20.3 20.3-20.3 20.3 9.1 20.3 20.3-9.1 20.3-20.3 20.3zm0-30.3c-5.5 0-10 4.5-10 10s4.5 10 10 10 10-4.5 10-10-4.5-10-10-10z" fill="#333"/>
     </g>
    </g>
    <g id="XMLID_641_">
     <g id="XMLID_650_">
      <circle id="XMLID_830_" cx="460.8" cy="672.8" r="10.3" fill="#91c83e"/>
     </g>
    </g>
    <g id="XMLID_636_">
     <g id="XMLID_653_">
      <path id="XMLID_10_" d="m460.8 688.4c-8.6 0-15.5-7-15.5-15.5 0-8.6 7-15.5 15.5-15.5 8.6 0 15.5 7 15.5 15.5 0.1 8.5-6.9 15.5-15.5 15.5zm0-20.7c-2.8 0-5.1 2.3-5.1 5.1s2.3 5.1 5.1 5.1 5.1-2.3 5.1-5.1c0.1-2.8-2.2-5.1-5.1-5.1z" fill="#333"/>
     </g>
    </g>
    <g id="XMLID_637_">
     <g id="XMLID_639_">
      <g id="XMLID_652_">
       <path id="XMLID_829_" d="m556.5 600.2c-1.3 0-2.7-0.5-3.7-1.5-4.4-4.4-6.9-10.3-6.9-16.6s2.4-12.2 6.9-16.6c4.4-4.4 10.3-6.9 16.6-6.9s12.2 2.4 16.6 6.9c2 2 2 5.3 0 7.3s-5.3 2-7.3 0c-2.5-2.5-5.8-3.8-9.3-3.8s-6.8 1.4-9.3 3.8c-2.5 2.5-3.8 5.8-3.8 9.3s1.4 6.8 3.8 9.3c2 2 2 5.3 0 7.3-0.9 1-2.3 1.5-3.6 1.5z" fill="#333"/>
      </g>
     </g>
     <g id="XMLID_638_">
      <g id="XMLID_651_">
       <path id="XMLID_828_" d="m543.6 613.1c-1.3 0-2.7-0.5-3.7-1.5-16.3-16.3-16.3-42.8 0-59.1s42.8-16.3 59.1 0c2 2 2 5.3 0 7.3s-5.3 2-7.3 0c-12.2-12.2-32.1-12.2-44.4 0-12.2 12.2-12.2 32.1 0 44.4 2 2 2 5.3 0 7.3-1.1 1.1-2.4 1.6-3.7 1.6z" fill="#333"/>
      </g>
     </g>
    </g>
   </g>
  </g>
 </g>
</svg>
