<?xml version="1.0" encoding="UTF-8"?>
<svg width="680px" height="680px" viewBox="0 0 680 680" version="1.1" xmlns="http://www.w3.org/2000/svg" xmlns:xlink="http://www.w3.org/1999/xlink">
    <!-- Generator: Sketch 52.2 (67145) - http://www.bohemiancoding.com/sketch -->
    <title>lending-illustration-1</title>
    <desc>Created with Sketch.</desc>
    <g id="lending-illustration-1" stroke="none" stroke-width="1" fill="none" fill-rule="evenodd">
        <g id="Group-85-Copy" transform="translate(10.074152, 139.300000)">
            <path d="M386.141005,308.379341 C431.790742,292.459682 464.557105,249.060368 464.557105,197.98274 C464.557105,133.411646 412.211665,81.0667728 347.641138,81.0667728 C313.202692,81.0667728 282.249028,95.9618628 260.852149,119.653958 C234.164593,101.668718 202.015693,91.1656098 167.411116,91.1656098 C74.9526939,91.1656098 0.000396899997,166.118474 0.000396899997,258.577463 C0.000396899997,318.324521 31.3237449,370.727228 78.4198989,400.352411 L448.960636,400.352411 C448.327864,358.739147 422.562817,323.237576 386.141005,308.379341" id="Fill-1" fill="#D6EFF9"></path>
            <path d="M269.178941,203.809402 L268.013756,196.235416 L247.621034,170.016202 C251.400656,167.611555 256.324484,168.048712 259.621022,171.081028 L268.596632,179.338816 L276.170618,167.103523 C276.170618,167.103523 274.422557,160.111846 273.840248,153.702478 C273.585098,150.902632 273.664478,147.585115 273.834011,144.734806 C274.056842,141.002245 277.094261,138.084463 280.831925,137.971063 L287.240726,177.590755 L287.823602,204.391711 L269.178941,203.809402 Z" id="Fill-3" fill="#F7966B"></path>
            <polygon id="Fill-5" fill="#FFFFFF" points="267.43088 212.54914 266.265695 199.148095 290.153972 199.148095 291.901466 213.714325"></polygon>
            <polygon id="Fill-7" fill="#2068A0" points="95.5529379 283.048219 137.24785 256.946941 210.915325 253.334017 266.265865 263.821249 264.517804 210.21877 294.815449 210.21877 303.55462 300.527128 227.811925 322.085035 239.464909 400.740976 109.11331 400.740976"></polygon>
            <path d="M403.185875,401.129257 L403.185875,335.392979 C403.185875,328.794233 397.83623,323.444021 391.237484,323.444021 L304.821581,323.444021 C298.222835,323.444021 292.872623,328.794233 292.872623,335.392979 L292.872623,391.807778 L251.699918,391.807778 C246.550991,391.807778 242.377871,395.980898 242.377871,401.129257 C242.377871,401.129257 403.962665,400.353035 403.185875,401.129257" id="Fill-9" fill="#676970"></path>
            <path d="M187.368722,194.497051 L169.902854,172.641469 L123.315299,197.03551 L145.379537,244.144705 L159.50294,281.565004 C163.890953,293.191906 176.873552,299.060356 188.501588,294.671776 C200.129057,290.283763 205.997507,277.30003 201.609494,265.672561 L190.198052,235.437853 L192.937229,234.565807 C197.007155,232.434454 198.578879,227.407999 196.448093,223.33864 L182.630303,196.948192 L187.368722,194.497051 Z" id="Fill-11" fill="#F7966B"></path>
            <path d="M183.446783,198.509256 C179.323559,198.481473 175.805324,201.989502 173.435831,206.122365 C171.509732,209.481273 166.614254,209.080404 164.735783,205.491861 L152.78399,182.007855 C155.635433,182.039607 160.177103,180.966843 167.587793,176.687127 C172.338686,173.943414 174.487616,171.605106 174.487616,171.605106 C162.993959,167.331627 167.444342,161.253954 156.077693,159.95439 L149.942186,158.314059 C147.337955,158.016384 137.84354,158.445036 136.994174,160.632522 L119.075273,170.015805 C112.915952,173.240334 110.537954,180.847206 113.76305,187.00596 L124.152758,206.848692 C126.235916,210.828465 128.938805,214.436853 132.140087,217.558755 L139.744124,232.080759 L147.549446,219.165066 C148.932359,216.529083 148.932926,213.382233 147.551714,210.745683 L145.187324,206.229528 L154.932353,201.127095 L168.468911,227.409246 C168.468911,227.409246 174.723488,240.599367 185.820812,237.880602 L198.29708,233.662689 C200.489669,232.92162 201.434291,230.299245 200.293487,228.120831 L183.446783,198.509256 Z" id="Fill-13" fill="#1A171B"></path>
            <path d="M177.694285,193.524192 C176.840383,193.202136 174.516817,190.791252 172.18021,186.402672 C169.84417,182.006721 169.150162,178.741935 169.358818,177.851178 C170.216689,178.172667 172.539121,180.583551 174.872326,184.972698 C177.210067,189.360711 177.90691,192.632301 177.694285,193.524192 M176.558584,184.081941 C176.037511,183.092526 171.366565,174.490569 168.424969,176.094045 C166.490932,177.127119 167.766682,181.193076 169.017484,184.15395 L137.960626,200.67066 L138.858754,202.354083 L169.799944,185.897475 C170.119732,186.563133 170.393026,187.10235 170.495086,187.293996 C171.004819,188.255628 175.490356,196.481664 178.444993,195.366375 C178.508497,195.343128 178.571434,195.310809 178.631536,195.280758 C181.570297,193.701096 177.080224,185.062851 176.558584,184.081941" id="Fill-15" fill="#2068A0"></path>
            <polygon id="Fill-17" fill="#D6EFF9" points="145.076816 256.829402 167.217032 371.60948 208.584785 366.365864 203.923478 256.247093"></polygon>
            <path d="M148.749048,254.253011 L137.24802,256.946828 L148.318695,300.329132 L135.304344,303.650051 L159.041232,396.662432 L171.516366,396.662432 C173.767356,344.305652 158.242329,300.021251 148.749048,254.253011" id="Fill-19" fill="#3677AA"></path>
            <polygon id="Fill-21" fill="#F37032" points="186.656116 257.72203 176.04868 258.135373 181.45219 396.662545 197.139946 396.662545"></polygon>
            <path d="M221.893692,296.630704 L208.488111,295.794379 L210.331995,257.99419 L210.915438,252.750574 C206.74572,253.31077 202.367346,251.606935 198.0366,251.337043 L204.48906,396.662545 L215.658393,396.662545 L221.893692,296.630704 Z" id="Fill-23" fill="#3677AA"></path>
            <path d="M212.080283,376.27039 L223.538786,375.688081 C247.233149,368.889751 254.097251,374.668048 264.304952,380.338615 C267.172838,381.931318 276.254477,384.861007 274.763834,389.225206 C273.648545,392.489992 269.390942,392.411746 266.792381,391.807324 C259.273961,390.059263 249.175124,387.534412 243.737027,390.253744 L223.733267,400.158667 L212.857073,400.353148 L212.080283,376.27039 Z" id="Fill-25" fill="#F7966B"></path>
            <polygon id="Fill-27" fill="#FFFFFF" points="203.534856 400.352978 217.51821 400.352978 217.51821 370.055333 199.650339 370.055333"></polygon>
            <path d="M203.534856,400.352978 L109.11348,400.352978 C102.696174,400.352978 97.281891,395.577137 96.481287,389.210861 L85.537053,302.230793 C84.204036,291.639233 91.714518,281.974151 102.307779,280.650206 C112.469553,279.380126 121.856238,286.260104 123.704658,296.332859 L133.872102,351.742934 C135.084348,358.353587 140.73507,363.228653 147.452319,363.460556 L203.534856,365.394593 L203.534856,400.352978 Z" id="Fill-29" fill="#184E83"></path>
            <polygon id="Fill-31" fill="#FFFFFF" points="141.581261 255.664444 174.208709 269.647231 181.200386 257.411938 188.192063 267.899737 201.593108 251.586013 196.349492 245.758954 181.200386 254.498692 144.494507 246.924706"></polygon>
            <path d="M356.574506,356.723859 C356.574506,361.014348 353.096528,364.492326 348.806606,364.492326 C344.51555,364.492326 341.038139,361.014348 341.038139,356.723859 C341.038139,352.433937 344.51555,348.955392 348.806606,348.955392 C353.096528,348.955392 356.574506,352.433937 356.574506,356.723859" id="Fill-33" fill="#FFFFFF"></path>
            <path d="M216.158941,64.6225209 C216.158941,48.8553849 228.940822,36.0729369 244.708525,36.0729369 C260.475661,36.0729369 273.257542,48.8553849 273.257542,64.6225209 C273.257542,80.3902239 286.039423,93.1721049 301.807126,93.1721049 C317.573695,93.1721049 330.356143,80.3902239 330.356143,64.6225209 C330.356143,96.1573599 304.791814,121.721122 273.257542,121.721122 C241.722703,121.721122 216.158941,96.1573599 216.158941,64.6225209" id="Fill-35" fill="#13B5EA"></path>
            <path d="M216.158941,64.6225209 C216.158941,48.8553849 228.940822,36.0729369 244.708525,36.0729369 C260.475661,36.0729369 273.257542,48.8553849 273.257542,64.6225209 C273.257542,80.3902239 286.039423,93.1721049 301.807126,93.1721049 C317.573695,93.1721049 330.356143,80.3902239 330.356143,64.6225209 C330.356143,33.0882489 304.791814,7.5244869 273.257542,7.5244869 C241.722703,7.5244869 216.158941,33.0882489 216.158941,64.6225209" id="Fill-37" fill="#B3E4F8"></path>
            <path d="M306.948682,56.2947084 L306.948682,43.0586604 C306.948682,41.0344704 305.307784,39.3935724 303.283594,39.3935724 L243.756532,39.3935724 C241.731775,39.3935724 240.091444,41.0344704 240.091444,43.0586604 L240.091444,85.3942824 L306.948682,85.3942824 L306.948682,76.5728964 L306.948682,56.2947084 Z" id="Fill-39" fill="#EFEFEF"></path>
            <path d="M243.140713,89.6846013 L315.109456,89.6846013 C316.025728,89.6846013 316.767931,88.9418313 316.767931,88.0261263 L316.767931,85.3946793 L243.140713,85.3946793 L303.899299,85.3946793 L230.272648,85.3946793 L230.272648,88.0261263 C230.272648,88.9418313 231.014851,89.6846013 231.930556,89.6846013 L303.899299,89.6846013" id="Fill-41" fill="#D4D4D4"></path>
            <path d="M298.190063,80.869509 L248.948381,80.869509 C248.622923,80.869509 248.358134,80.605287 248.358134,80.279262 L248.358134,76.936797 C248.358134,76.610772 248.622923,76.34655 248.948381,76.34655 L298.190063,76.34655 C298.516088,76.34655 298.780877,76.610772 298.780877,76.936797 L298.780877,80.279262 C298.780877,80.605287 298.516088,80.869509 298.190063,80.869509" id="Fill-43" fill="#1EB5EA"></path>
            <path d="M257.252606,72.0594063 L251.61776,72.0594063 C251.291735,72.0594063 251.027513,71.7951843 251.027513,71.4691593 L251.027513,55.6929513 C251.027513,55.3669263 251.291735,55.1021373 251.61776,55.1021373 L257.252606,55.1021373 C257.578064,55.1021373 257.842853,55.3669263 257.842853,55.6929513 L257.842853,71.4691593 C257.842853,71.7951843 257.578064,72.0594063 257.252606,72.0594063" id="Fill-45" fill="#31465B"></path>
            <path d="M266.819597,72.0594063 L261.184751,72.0594063 C260.858726,72.0594063 260.594504,71.7951843 260.594504,71.4691593 L260.594504,59.6789613 C260.594504,59.3529363 260.858726,59.0887143 261.184751,59.0887143 L266.819597,59.0887143 C267.145622,59.0887143 267.409844,59.3529363 267.409844,59.6789613 L267.409844,71.4691593 C267.409844,71.7951843 267.145622,72.0594063 266.819597,72.0594063" id="Fill-47" fill="#31465B"></path>
            <path d="M276.386588,72.0594063 L270.752309,72.0594063 C270.426284,72.0594063 270.161495,71.7951843 270.161495,71.4691593 L270.161495,64.1713023 C270.161495,63.8452773 270.426284,63.5810553 270.752309,63.5810553 L276.386588,63.5810553 C276.712613,63.5810553 276.976835,63.8452773 276.976835,64.1713023 L276.976835,71.4691593 C276.976835,71.7951843 276.712613,72.0594063 276.386588,72.0594063" id="Fill-49" fill="#31465B"></path>
            <path d="M285.954203,72.0594063 L280.319357,72.0594063 C279.993332,72.0594063 279.72911,71.7951843 279.72911,71.4691593 L279.72911,66.1648743 C279.72911,65.8382823 279.993332,65.5740603 280.319357,65.5740603 L285.954203,65.5740603 C286.279661,65.5740603 286.54445,65.8382823 286.54445,66.1648743 L286.54445,71.4691593 C286.54445,71.7951843 286.279661,72.0594063 285.954203,72.0594063" id="Fill-51" fill="#31465B"></path>
            <path d="M295.521194,72.0594063 L289.886348,72.0594063 C289.560323,72.0594063 289.296101,71.7951843 289.296101,71.4691593 L289.296101,69.4069803 C289.296101,69.0809553 289.560323,68.8167333 289.886348,68.8167333 L295.521194,68.8167333 C295.847219,68.8167333 296.111441,69.0809553 296.111441,69.4069803 L296.111441,71.4691593 C296.111441,71.7951843 295.847219,72.0594063 295.521194,72.0594063" id="Fill-53" fill="#31465B"></path>
            <path d="M299.196204,50.6496564 L247.844148,50.6496564 C246.051294,50.6496564 244.596939,49.1958684 244.596939,47.4018804 C244.596939,45.6084594 246.051294,44.1552384 247.844148,44.1552384 L299.196204,44.1552384 C300.989625,44.1552384 302.443413,45.6084594 302.443413,47.4018804 C302.443413,49.1958684 300.989625,50.6496564 299.196204,50.6496564" id="Fill-55" fill="#1EB5EA"></path>
            <path d="M232.430155,14.3051058 C232.430155,18.3807018 229.125679,21.6857448 225.049516,21.6857448 C220.97392,21.6857448 217.670011,18.3807018 217.670011,14.3051058 C217.670011,10.2295098 220.97392,6.9250338 225.049516,6.9250338 C229.125679,6.9250338 232.430155,10.2295098 232.430155,14.3051058 Z" id="Stroke-57" stroke="#2068A0" stroke-width="3.495555"></path>
            <path d="M213.245865,80.8396281 C213.245865,84.4865721 210.28896,87.4429101 206.642583,87.4429101 C202.995639,87.4429101 200.039301,84.4865721 200.039301,80.8396281 C200.039301,77.1926841 202.995639,74.2363461 206.642583,74.2363461 C210.28896,74.2363461 213.245865,77.1926841 213.245865,80.8396281 Z" id="Stroke-59" stroke="#2068A0" stroke-width="3.495555"></path>
            <path d="M226.840541,125.11989 C226.840541,129.195486 223.536632,132.500529 219.460469,132.500529 C215.384873,132.500529 212.080397,129.195486 212.080397,125.11989 C212.080397,121.044294 215.384873,117.739818 219.460469,117.739818 C223.536632,117.739818 226.840541,121.044294 226.840541,125.11989 Z" id="Stroke-61" stroke="#2068A0" stroke-width="3.495555"></path>
            <path d="M342.099049,102.81901 C342.099049,106.251628 339.316213,109.033897 335.884162,109.033897 C332.451544,109.033897 329.669275,106.251628 329.669275,102.81901 C329.669275,99.3863925 332.451544,96.6041235 335.884162,96.6041235 C339.316213,96.6041235 342.099049,99.3863925 342.099049,102.81901 Z" id="Stroke-65" stroke="#2068A0" stroke-width="3.495555"></path>
            <path d="M335.779774,36.5308884 C335.779774,40.3921584 332.649367,43.5225654 328.788097,43.5225654 C324.926827,43.5225654 321.79642,40.3921584 321.79642,36.5308884 C321.79642,32.6690514 324.926827,29.5392114 328.788097,29.5392114 C332.649367,29.5392114 335.779774,32.6690514 335.779774,36.5308884 Z" id="Stroke-67" stroke="#2068A0" stroke-width="3.495555"></path>
            <path d="M266.971914,109.402884 C266.971914,112.620609 264.363147,115.229376 261.145989,115.229376 C257.927697,115.229376 255.31893,112.620609 255.31893,109.402884 C255.31893,106.185159 257.927697,103.576959 261.145989,103.576959 C264.363147,103.576959 266.971914,106.185159 266.971914,109.402884 Z" id="Stroke-71" stroke="#2068A0" stroke-width="3.495555"></path>
            <path d="M305.302511,121.207689 C305.302511,124.854633 302.346173,127.810971 298.699229,127.810971 C295.052285,127.810971 292.095947,124.854633 292.095947,121.207689 C292.095947,117.560178 295.052285,114.604407 298.699229,114.604407 C302.346173,114.604407 305.302511,117.560178 305.302511,121.207689 Z" id="Stroke-79" stroke="#2068A0" stroke-width="3.495555"></path>
            <path d="M284.327366,4.7082546 C284.327366,7.2824346 282.240239,9.3695616 279.666059,9.3695616 C277.091879,9.3695616 275.005319,7.2824346 275.005319,4.7082546 C275.005319,2.1340746 277.091879,0.0469476 279.666059,0.0469476 C282.240239,0.0469476 284.327366,2.1340746 284.327366,4.7082546 Z" id="Stroke-81" stroke="#2068A0" stroke-width="3.495555"></path>
            <path d="M354.24391,69.1583364 C354.24391,72.5909544 351.461641,75.3732234 348.02959,75.3732234 C344.596972,75.3732234 341.814703,72.5909544 341.814703,69.1583364 C341.814703,65.7257184 344.596972,62.9434494 348.02959,62.9434494 C351.461641,62.9434494 354.24391,65.7257184 354.24391,69.1583364 Z" id="Stroke-83" stroke="#2068A0" stroke-width="3.495555"></path>
        </g>
    </g>
</svg>